<?xml version="1.0" encoding="UTF-8" standalone="no"?>
<svg
   xmlns:dc="http://purl.org/dc/elements/1.1/"
   xmlns:cc="http://creativecommons.org/ns#"
   xmlns:rdf="http://www.w3.org/1999/02/22-rdf-syntax-ns#"
   xmlns:svg="http://www.w3.org/2000/svg"
   xmlns="http://www.w3.org/2000/svg"
   id="svg1139"
   version="1.1"
   viewBox="0 0 52.916665 52.916668"
   height="200"
   width="200">
  <defs
     id="defs1133">
    <filter
       style="color-interpolation-filters:sRGB"
       id="filter2392">
      <feConvolveMatrix
         bias="0"
         result="result0"
         preserveAlpha="true"
         targetY="1"
         targetX="1"
         divisor="1"
         in="SourceGraphic"
         kernelMatrix="1 1 1 1 -8 1 1 1 1"
         order="3 3"
         id="feConvolveMatrix2388" />
      <feColorMatrix
         values="-0.15 -0.3 -0.05 0 1 -0.15 -0.3 -0.05 0 1 -0.15 -0.3 -0.05 0 1 0 0 0 1 0"
         result="result3"
         id="feColorMatrix2390" />
    </filter>
    <filter
       style="color-interpolation-filters:sRGB"
       id="filter57615">
      <feTurbulence
         numOctaves="5"
         baseFrequency="0.4"
         id="feTurbulence57591" />
      <feConvolveMatrix
         order="5 5"
         kernelMatrix="-4 0 0 0 -4 0 -2 0 -2 0 0 0 -10 0 0 0 -2 0 -2 0 -4 0 0 0 -4 "
         targetX="2"
         targetY="2"
         id="feConvolveMatrix57593" />
      <feConvolveMatrix
         order="3 3"
         kernelMatrix="2 0 2 0 -5 0 2 0 2 "
         targetX="1"
         targetY="1"
         id="feConvolveMatrix57595" />
      <feColorMatrix
         type="saturate"
         result="result1"
         id="feColorMatrix57597" />
      <feComposite
         k4="0"
         in2="SourceGraphic"
         operator="arithmetic"
         k1="1.5"
         k2="0.5"
         k3="0.5"
         result="result2"
         id="feComposite57599" />
      <feBlend
         mode="normal"
         in2="result1"
         result="result4"
         id="feBlend57601" />
      <feColorMatrix
         type="luminanceToAlpha"
         id="feColorMatrix57603" />
      <feDiffuseLighting
         surfaceScale="10"
         diffuseConstant="1"
         result="result3"
         id="feDiffuseLighting57607">
        <feDistantLight
           azimuth="180"
           elevation="35"
           id="feDistantLight57605" />
      </feDiffuseLighting>
      <feComposite
         k4="0"
         k2="0"
         in2="result4"
         operator="arithmetic"
         k1="1.5"
         k3="0.5"
         result="result5"
         id="feComposite57609" />
      <feBlend
         mode="normal"
         in2="result3"
         result="result6"
         id="feBlend57611" />
      <feComposite
         in2="SourceGraphic"
         operator="in"
         id="feComposite57613" />
    </filter>
  </defs>
  <metadata
     id="metadata1136">
    <rdf:RDF>
      <cc:Work
         rdf:about="">
        <dc:format>image/svg+xml</dc:format>
        <dc:type
           rdf:resource="http://purl.org/dc/dcmitype/StillImage" />
        <dc:title></dc:title>
      </cc:Work>
    </rdf:RDF>
  </metadata>
  <g
     transform="translate(0,-244.08332)"
     id="layer1">
    <rect
       ry="0"
       rx="0"
       y="244.05569"
       x="-0.053848758"
       height="53.002106"
       width="53.336197"
       id="rect56796"
       style="opacity:1;fill:#69ffff;fill-opacity:1;stroke:none;stroke-width:0.26458332;stroke-linecap:round;stroke-linejoin:miter;stroke-miterlimit:4;stroke-dasharray:none;stroke-dashoffset:0;stroke-opacity:1;paint-order:markers fill stroke" />
    <g
       transform="translate(0.36490857,1.2813839)"
       id="g2024">
      <path
         style="opacity:1;vector-effect:none;fill:#ffb380;fill-opacity:1;stroke:#000000;stroke-width:0.02645833;stroke-linecap:butt;stroke-linejoin:miter;stroke-miterlimit:4;stroke-dasharray:none;stroke-dashoffset:0;stroke-opacity:1"
         d="m 39.38039,256.58882 -0.191786,0.002 c -0.874028,0.58269 -1.679713,1.21599 -2.421955,1.87107 1.068294,-0.75904 1.954717,-1.39397 2.613741,-1.8726 z m -2.613741,1.8726 c -3.641683,2.58745 -8.652107,6.10229 -8.652107,6.10229 l 2.214873,2.32561 c 0,0 2.101172,-4.60106 6.437234,-8.4279 z"
         id="path56804" />
      <path
         style="opacity:1;vector-effect:none;fill:#ff9955;fill-opacity:1;stroke:#000000;stroke-width:0.02645833;stroke-linecap:butt;stroke-linejoin:miter;stroke-miterlimit:4;stroke-dasharray:none;stroke-dashoffset:0;stroke-opacity:1"
         d="m 29.899844,270.66008 -2.560461,4.64552 h 3.432947 z"
         id="path56806" />
      <path
         style="opacity:1;vector-effect:none;fill:#aa4400;fill-opacity:1;stroke:#000000;stroke-width:0.02645833;stroke-linecap:butt;stroke-linejoin:miter;stroke-miterlimit:4;stroke-dasharray:none;stroke-dashoffset:0;stroke-opacity:1"
         d="m 44.836336,269.54711 1.771843,1.88259 1.771846,-1.66111 1.993323,1.55036 0.996662,-2.43628 c 0,0 -3.543689,-4.09739 -6.533674,0.66444 -2.989984,4.76183 0,0 0,0 z"
         id="path56824" />
      <path
         style="opacity:1;vector-effect:none;fill:#ffb380;fill-opacity:1;stroke:#000000;stroke-width:0.02645833;stroke-linecap:butt;stroke-linejoin:miter;stroke-miterlimit:4;stroke-dasharray:none;stroke-dashoffset:0;stroke-opacity:1"
         d="m 0.42951187,248.28499 0.66444133,7.4196 6.644413,4.09738 6.4229328,9.96662 -0.221481,6.64441 -2.879245,6.86589 -3.5436872,5.09405 3.2114662,3.98666 6.644413,-3.76517 -2.436285,-2.76851 0.996662,-4.09739 -0.664441,-2.65776 2.436284,-3.43295 -1.439622,-5.31553 -2.344545,-6.05828 -2.638765,-7.00906 -2.4362847,-3.65443 z"
         id="path56798" />
      <path
         style="opacity:1;vector-effect:none;fill:#ff6600;fill-opacity:1;stroke:#000000;stroke-width:0.02645833;stroke-linecap:butt;stroke-linejoin:miter;stroke-miterlimit:4;stroke-dasharray:none;stroke-dashoffset:0;stroke-opacity:1"
         d="m 0.42951187,248.28499 8.41625643,5.31553 2.4362847,3.65443 4.98331,13.06734 1.439622,5.31553 -2.436284,3.43295 0.664441,2.65776 -0.996662,4.09739 2.436285,2.76851 7.087374,-7.64108 3.211465,-5.97997 1.993325,-3.76517 0.664441,-4.31887 -2.214804,-2.32554 -2.547025,-0.22148 -12.735125,-9.52366 z"
         id="path56800" />
      <path
         style="opacity:1;vector-effect:none;fill:#faaf00;fill-opacity:1;stroke:#000000;stroke-width:0.02645833;stroke-linecap:butt;stroke-linejoin:miter;stroke-miterlimit:4;stroke-dasharray:none;stroke-dashoffset:0;stroke-opacity:1"
         d="m 27.938955,246.96398 2.436285,-0.77518 4.540349,3.54368 4.429608,7.19812 -11.074021,7.97329 v 0 l -0.775183,-2.10406 2.657767,-6.8659 z"
         id="path56802" />
      <path
         style="opacity:1;vector-effect:none;fill:#ff6600;fill-opacity:1;stroke:#000000;stroke-width:0.02645833;stroke-linecap:butt;stroke-linejoin:miter;stroke-miterlimit:4;stroke-dasharray:none;stroke-dashoffset:0;stroke-opacity:1"
         d="m 39.188587,256.59051 0.332221,3.54368 -3.765168,2.87925 2.446548,1.76234 2.177671,-0.0688 c 0,0 1.573987,1.41217 1.739408,3.62199 0.03653,0.48807 -0.05894,1.08189 0.08275,1.34118 0.7057,1.29142 2.634323,-0.12304 2.634323,-0.12304 0,0 1.882584,-2.43628 3.765169,-1.99333 1.882583,0.44297 2.768505,1.32889 2.768505,1.32889 0,0 1.218142,-2.54703 0.44296,-3.65443 -0.775182,-1.1074 -12.624384,-8.63773 -12.624384,-8.63773 z"
         id="path56808" />
      <path
         style="opacity:1;vector-effect:none;fill:#ff9955;fill-opacity:1;stroke:#000000;stroke-width:0.02645833;stroke-linecap:butt;stroke-linejoin:miter;stroke-miterlimit:4;stroke-dasharray:none;stroke-dashoffset:0;stroke-opacity:1"
         d="m 19.76318,285.89751 -0.175611,3.02914 0.885922,1.6611 5.53701,-1.99332 5.42627,-4.20813 4.65109,-1.32888 1.771844,-3.43295 -1.439623,-1.1074 -0.442961,-2.10407 -2.989986,2.54703 -6.637694,-1.43291 -1.889302,3.42623 z"
         id="path56812" />
      <path
         style="opacity:1;vector-effect:none;fill:#f9f9f9;fill-opacity:1;stroke:#000000;stroke-width:0.02645833;stroke-linecap:butt;stroke-linejoin:miter;stroke-miterlimit:4;stroke-dasharray:none;stroke-dashoffset:0;stroke-opacity:1"
         d="m 35.977121,276.413 3.986648,0.99666 5.42627,-2.43628 1.218141,-3.54368 1.771845,-1.66111 1.993323,1.55036 -1.882583,5.42627 -4.429608,3.10073 -3.654428,0.66444 -3.100726,0.33222 0.553702,-1.21814 -1.439623,-1.1074 z"
         id="path56814" />
      <path
         style="opacity:1;vector-effect:none;fill:#ffccaa;fill-opacity:1;stroke:#000000;stroke-width:0.02645833;stroke-linecap:butt;stroke-linejoin:miter;stroke-miterlimit:4;stroke-dasharray:none;stroke-dashoffset:0;stroke-opacity:1"
         d="m 37.11024,280.84261 3.296489,-0.33222 -0.22148,3.65443 -2.879246,5.75849 -2.547024,1.6611 1.328882,-8.52699 z"
         id="path56816" />
      <path
         style="opacity:1;vector-effect:none;fill:#ffccaa;fill-opacity:1;stroke:#000000;stroke-width:0.02645833;stroke-linecap:butt;stroke-linejoin:miter;stroke-miterlimit:4;stroke-dasharray:none;stroke-dashoffset:0;stroke-opacity:1"
         d="m 40.406729,280.51039 3.654428,8.85922 1.661103,0.77518 0.22148,-3.43295 -1.882583,-6.86589 z"
         id="path56818" />
      <path
         style="opacity:1;vector-effect:none;fill:#ffd300;fill-opacity:1;stroke:#000000;stroke-width:0.02645833;stroke-linecap:butt;stroke-linejoin:miter;stroke-miterlimit:4;stroke-dasharray:none;stroke-dashoffset:0;stroke-opacity:1"
         d="m 32.987135,278.96003 2.989986,-2.54703 3.986648,0.99666 5.426269,-2.43628 1.218141,-3.54368 -1.771843,-1.88259 -2.592892,0.0324 -1.029098,2.20136 -3.133161,-2.01232 -0.572701,-3.31108 z"
         id="path56820" />
      <path
         style="opacity:1;vector-effect:none;fill:#ff944c;fill-opacity:1;stroke:#000000;stroke-width:0.02645833;stroke-linecap:butt;stroke-linejoin:miter;stroke-miterlimit:4;stroke-dasharray:none;stroke-dashoffset:0;stroke-opacity:1"
         d="m 32.987135,278.96003 4.208129,-11.40625 1.218141,-3.54368 -2.657765,-0.99666 3.765168,-2.87925 -0.332221,-3.54368 c 0,0 -15.946591,8.52699 -6.201452,22.36952 z"
         id="path56826" />
      <ellipse
         style="opacity:1;fill:#ececec;fill-opacity:1;stroke:none;stroke-width:0.26458332;stroke-linecap:round;stroke-linejoin:miter;stroke-miterlimit:4;stroke-dasharray:none;stroke-dashoffset:0;stroke-opacity:1;paint-order:markers fill stroke"
         id="path56810"
         cx="-30.833572"
         cy="269.26666"
         rx="2.1804287"
         ry="3.8278639"
         transform="rotate(-15)" />
      <ellipse
         transform="rotate(-15)"
         ry="2.3790693"
         rx="1.3551662"
         cy="269.20773"
         cx="-30.878576"
         id="ellipse56828"
         style="opacity:0.61499999;fill:#000000;fill-opacity:1;stroke:none;stroke-width:0.26458332;stroke-linecap:round;stroke-linejoin:miter;stroke-miterlimit:4;stroke-dasharray:none;stroke-dashoffset:0;stroke-opacity:1;paint-order:markers fill stroke" />
    </g>
  </g>
</svg>
