<?xml version="1.0" encoding="UTF-8" standalone="no"?>

<svg
  xmlns="http://www.w3.org/2000/svg"
  xmlns:xlink="http://www.w3.org/1999/xlink"
  id="svg-background-header"
  viewBox="0 0 264.58333 74.612502"
>
  <rect
    y="0.036851075"
    x="0.064961784"
    height="67.995865"
    width="264.54071"
    id="rect1066"
    style="opacity:1;fill:#333333;fill-opacity:1;stroke:none;stroke-width:1.32291663;stroke-linecap:round;stroke-linejoin:round;stroke-miterlimit:4;stroke-dasharray:none;stroke-dashoffset:0;stroke-opacity:1;paint-order:markers fill stroke" 
  />
  <g
     id="layer1"
     transform="translate(4.3710256e-7,496.86452)">
    <path
       transform="matrix(0,1.0184378,-1.1271822,0,158.18091,-330.55265)"
       d="m -119.55419,151.30355 c -1.14568,0.66146 -12.08348,0.66146 -13.22916,0 -1.14568,-0.66146 -6.61459,-10.13388 -6.61459,-11.45679 0,-1.32292 5.46891,-10.79534 6.61459,-11.4568 1.14568,-0.66146 12.08348,-0.66146 13.22916,0 1.14568,0.66146 6.61459,10.13388 6.61459,11.4568 0,1.32291 -5.46891,10.79533 -6.61459,11.45679 z"
       id="path1596"
       style="opacity:1;fill:#f7a23b;fill-opacity:1;stroke:none;stroke-width:1.23471904;stroke-linecap:round;stroke-linejoin:round;stroke-miterlimit:4;stroke-dasharray:none;stroke-dashoffset:0;stroke-opacity:1;paint-order:markers fill stroke" />
    <path
       style="opacity:1;fill:#f7a23b;fill-opacity:1;stroke:none;stroke-width:1.23471904;stroke-linecap:round;stroke-linejoin:round;stroke-miterlimit:4;stroke-dasharray:none;stroke-dashoffset:0;stroke-opacity:1;paint-order:markers fill stroke"
       id="path1625"
       d="m -119.55419,151.30355 c -1.14568,0.66146 -12.08348,0.66146 -13.22916,0 -1.14568,-0.66146 -6.61459,-10.13388 -6.61459,-11.45679 0,-1.32292 5.46891,-10.79534 6.61459,-11.4568 1.14568,-0.66146 12.08348,-0.66146 13.22916,0 1.14568,0.66146 6.61459,10.13388 6.61459,11.4568 0,1.32291 -5.46891,10.79533 -6.61459,11.45679 z"
       transform="matrix(0,1.0184378,-1.1271822,0,421.66799,-330.55265)" />
    <path
       transform="matrix(0,1.0184378,-1.1271822,0,172.87957,-307.14368)"
       d="m -119.55419,151.30355 c -1.14568,0.66146 -12.08348,0.66146 -13.22916,0 -1.14568,-0.66146 -6.61459,-10.13388 -6.61459,-11.45679 0,-1.32292 5.46891,-10.79534 6.61459,-11.4568 1.14568,-0.66146 12.08348,-0.66146 13.22916,0 1.14568,0.66146 6.61459,10.13388 6.61459,11.4568 0,1.32291 -5.46891,10.79533 -6.61459,11.45679 z"
       id="path1882"
       style="opacity:1;fill:#f7a23b;fill-opacity:1;stroke:none;stroke-width:1.23471904;stroke-linecap:round;stroke-linejoin:round;stroke-miterlimit:4;stroke-dasharray:none;stroke-dashoffset:0;stroke-opacity:1;paint-order:markers fill stroke" />
    <path
       style="opacity:1;fill:#f7a23b;fill-opacity:1;stroke:none;stroke-width:1.23471904;stroke-linecap:round;stroke-linejoin:round;stroke-miterlimit:4;stroke-dasharray:none;stroke-dashoffset:0;stroke-opacity:1;paint-order:markers fill stroke"
       id="path1884"
       d="m -119.55419,151.30355 c -1.14568,0.66146 -12.08348,0.66146 -13.22916,0 -1.14568,-0.66146 -6.61459,-10.13388 -6.61459,-11.45679 0,-1.32292 5.46891,-10.79534 6.61459,-11.4568 1.14568,-0.66146 12.08348,-0.66146 13.22916,0 1.14568,0.66146 6.61459,10.13388 6.61459,11.4568 0,1.32291 -5.46891,10.79533 -6.61459,11.45679 z"
       transform="matrix(0,1.0184378,-1.1271822,0,202.14079,-307.14368)" />
    <path
       transform="matrix(0,1.0184378,-1.1271822,0,231.40201,-307.14368)"
       d="m -119.55419,151.30355 c -1.14568,0.66146 -12.08348,0.66146 -13.22916,0 -1.14568,-0.66146 -6.61459,-10.13388 -6.61459,-11.45679 0,-1.32292 5.46891,-10.79534 6.61459,-11.4568 1.14568,-0.66146 12.08348,-0.66146 13.22916,0 1.14568,0.66146 6.61459,10.13388 6.61459,11.4568 0,1.32291 -5.46891,10.79533 -6.61459,11.45679 z"
       id="path1886"
       style="opacity:1;fill:#4682b4;fill-opacity:1;stroke:none;stroke-width:1.23471904;stroke-linecap:round;stroke-linejoin:round;stroke-miterlimit:4;stroke-dasharray:none;stroke-dashoffset:0;stroke-opacity:1;paint-order:markers fill stroke" />
    <path
       style="opacity:1;fill:#4682b4;fill-opacity:1;stroke:none;stroke-width:1.23471904;stroke-linecap:round;stroke-linejoin:round;stroke-miterlimit:4;stroke-dasharray:none;stroke-dashoffset:0;stroke-opacity:1;paint-order:markers fill stroke"
       id="path1888"
       d="m -119.55419,151.30355 c -1.14568,0.66146 -12.08348,0.66146 -13.22916,0 -1.14568,-0.66146 -6.61459,-10.13388 -6.61459,-11.45679 0,-1.32292 5.46891,-10.79534 6.61459,-11.4568 1.14568,-0.66146 12.08348,-0.66146 13.22916,0 1.14568,0.66146 6.61459,10.13388 6.61459,11.4568 0,1.32291 -5.46891,10.79533 -6.61459,11.45679 z"
       transform="matrix(0,1.0184378,-1.1271822,0,289.92445,-307.14368)" />
    <path
       transform="matrix(0,1.0184378,-1.1271822,0,260.66323,-307.14368)"
       d="m -119.55419,151.30355 c -1.14568,0.66146 -12.08348,0.66146 -13.22916,0 -1.14568,-0.66146 -6.61459,-10.13388 -6.61459,-11.45679 0,-1.32292 5.46891,-10.79534 6.61459,-11.4568 1.14568,-0.66146 12.08348,-0.66146 13.22916,0 1.14568,0.66146 6.61459,10.13388 6.61459,11.4568 0,1.32291 -5.46891,10.79533 -6.61459,11.45679 z"
       id="path1890"
       style="opacity:1;fill:#4682b4;fill-opacity:1;stroke:none;stroke-width:1.23471904;stroke-linecap:round;stroke-linejoin:round;stroke-miterlimit:4;stroke-dasharray:none;stroke-dashoffset:0;stroke-opacity:1;paint-order:markers fill stroke" />
    <path
       style="opacity:1;fill:#4682b4;fill-opacity:1;stroke:none;stroke-width:1.23471904;stroke-linecap:round;stroke-linejoin:round;stroke-miterlimit:4;stroke-dasharray:none;stroke-dashoffset:0;stroke-opacity:1;paint-order:markers fill stroke"
       id="path1892"
       d="m -119.55419,151.30355 c -1.14568,0.66146 -12.08348,0.66146 -13.22916,0 -1.14568,-0.66146 -6.61459,-10.13388 -6.61459,-11.45679 0,-1.32292 5.46891,-10.79534 6.61459,-11.4568 1.14568,-0.66146 12.08348,-0.66146 13.22916,0 1.14568,0.66146 6.61459,10.13388 6.61459,11.4568 0,1.32291 -5.46891,10.79533 -6.61459,11.45679 z"
       transform="matrix(0,1.0184378,-1.1271822,0,319.18567,-307.14368)" />
    <path
       transform="matrix(0,1.0184378,-1.1271822,0,348.44688,-307.14368)"
       d="m -119.55419,151.30355 c -1.14568,0.66146 -12.08348,0.66146 -13.22916,0 -1.14568,-0.66146 -6.61459,-10.13388 -6.61459,-11.45679 0,-1.32292 5.46891,-10.79534 6.61459,-11.4568 1.14568,-0.66146 12.08348,-0.66146 13.22916,0 1.14568,0.66146 6.61459,10.13388 6.61459,11.4568 0,1.32291 -5.46891,10.79533 -6.61459,11.45679 z"
       id="path1894"
       style="opacity:1;fill:#4682b4;fill-opacity:1;stroke:none;stroke-width:1.23471904;stroke-linecap:round;stroke-linejoin:round;stroke-miterlimit:4;stroke-dasharray:none;stroke-dashoffset:0;stroke-opacity:1;paint-order:markers fill stroke" />
    <path
       style="opacity:1;fill:#f7a23b;fill-opacity:1;stroke:none;stroke-width:1.23471904;stroke-linecap:round;stroke-linejoin:round;stroke-miterlimit:4;stroke-dasharray:none;stroke-dashoffset:0;stroke-opacity:1;paint-order:markers fill stroke"
       id="path1896"
       d="m -119.55419,151.30355 c -1.14568,0.66146 -12.08348,0.66146 -13.22916,0 -1.14568,-0.66146 -6.61459,-10.13388 -6.61459,-11.45679 0,-1.32292 5.46891,-10.79534 6.61459,-11.4568 1.14568,-0.66146 12.08348,-0.66146 13.22916,0 1.14568,0.66146 6.61459,10.13388 6.61459,11.4568 0,1.32291 -5.46891,10.79533 -6.61459,11.45679 z"
       transform="matrix(0,1.0184378,-1.1271822,0,377.70809,-307.14368)" />
    <path
       transform="matrix(0,1.0184378,-1.1271822,0,406.96933,-307.14368)"
       d="m -119.55419,151.30355 c -1.14568,0.66146 -12.08348,0.66146 -13.22916,0 -1.14568,-0.66146 -6.61459,-10.13388 -6.61459,-11.45679 0,-1.32292 5.46891,-10.79534 6.61459,-11.4568 1.14568,-0.66146 12.08348,-0.66146 13.22916,0 1.14568,0.66146 6.61459,10.13388 6.61459,11.4568 0,1.32291 -5.46891,10.79533 -6.61459,11.45679 z"
       id="path1898"
       style="opacity:1;fill:#f7a23b;fill-opacity:1;stroke:none;stroke-width:1.23471904;stroke-linecap:round;stroke-linejoin:round;stroke-miterlimit:4;stroke-dasharray:none;stroke-dashoffset:0;stroke-opacity:1;paint-order:markers fill stroke" />
    <text
       xml:space="preserve"
       style="font-style:normal;font-weight:normal;font-size:8.60610676px;line-height:1.25;font-family:sans-serif;letter-spacing:0px;word-spacing:0px;fill:#1a1a1a;fill-opacity:1;stroke:none;stroke-width:0.26458332"
       x="67.868629"
       y="-412.79941"
       id="text6713"
       transform="scale(0.95302284,1.0492928)"><tspan
         id="tspan6711"
         x="67.868629"
         y="-412.79941"
         style="fill:#1a1a1a;stroke-width:0.26458332">Blog</tspan></text>
    <text
       xml:space="preserve"
       style="font-style:normal;font-weight:normal;font-size:7.75364065px;line-height:1.25;font-family:sans-serif;letter-spacing:0px;word-spacing:0px;fill:#1a1a1a;fill-opacity:1;stroke:none;stroke-width:0.26458332"
       x="147.0206"
       y="-351.32758"
       id="text6717"
       transform="scale(0.81282693,1.2302742)"><tspan
         id="tspan6715"
         x="147.0206"
         y="-351.32758"
         style="fill:#1a1a1a;stroke-width:0.26458332">Resume</tspan></text>
    <text
       xml:space="preserve"
       style="font-style:normal;font-weight:normal;font-size:9.73522854px;line-height:1.25;font-family:sans-serif;letter-spacing:0px;word-spacing:0px;fill:#1a1a1a;fill-opacity:1;stroke:none;stroke-width:0.26458332"
       x="194.73366"
       y="-408.17587"
       id="text6721"
       transform="scale(0.94510509,1.0580834)"><tspan
         id="tspan6719"
         x="194.73366"
         y="-408.17587"
         style="fill:#1a1a1a;stroke-width:0.26458332">Art</tspan></text>
    <path
       id="path6781"
       d="m 100.81181,-431.65026 c 0,0.0541 -0.0621,0.0972 -0.14052,0.0972 -0.0892,0.008 -0.15133,-0.0352 -0.15133,-0.0972 0,-0.0541 0.0621,-0.0972 0.14052,-0.0972 0.0811,-0.008 0.15133,0.0352 0.15133,0.0972 z m -0.8404,-0.1216 c -0.01892,0.0541 0.03513,0.11619 0.11619,0.13241 0.0703,0.027 0.15134,0 0.16754,-0.0541 0.0162,-0.0541 -0.0351,-0.11619 -0.11619,-0.14053 -0.0703,-0.019 -0.148625,0.008 -0.16754,0.0621 z m 1.19439,-0.046 c -0.0784,0.019 -0.13241,0.0703 -0.1243,0.13241 0.008,0.0541 0.0784,0.0892 0.15943,0.0703 0.0784,-0.019 0.13241,-0.0703 0.1243,-0.12431 -0.008,-0.0513 -0.0811,-0.0864 -0.15943,-0.0784 z m 1.77807,-10.35495 c -3.748001,0 -6.615069,2.84545 -6.615069,6.59344 0,2.99678 1.886157,5.5612 4.580289,6.46374 0.34589,0.0621 0.46747,-0.15133 0.46747,-0.32697 0,-0.16753 -0.008,-1.0917 -0.008,-1.65916 0,0 -1.891555,0.40533 -2.288784,-0.80527 0,0 -0.308054,-0.78635 -0.75122,-0.98901 0,0 -0.618811,-0.42425 0.04323,-0.41615 0,0 0.672856,0.0541 1.043061,0.69716 0.591793,1.04308 1.583513,0.74313 1.969923,0.56477 0.0621,-0.43235 0.2378,-0.7323 0.43236,-0.91065 -1.51055,-0.16754 -3.034605,-0.38641 -3.034605,-2.98596 0,-0.74311 0.20537,-1.11603 0.637728,-1.59162 -0.07026,-0.17564 -0.299949,-0.89984 0.07025,-1.83481 0.564767,-0.17565 1.864547,0.7296 1.864547,0.7296 0.54045,-0.15132 1.12142,-0.22969 1.69701,-0.22969 0.57557,0 1.15655,0.0784 1.69699,0.22969 0,0 1.29978,-0.90794 1.86454,-0.7296 0.37021,0.93767 0.14051,1.65917 0.0703,1.83481 0.43236,0.4783 0.69718,0.8512 0.69718,1.59162 0,2.60766 -1.59162,2.81573 -3.10216,2.98596 0.2486,0.21348 0.45938,0.61881 0.45938,1.25383 0,0.91066 -0.008,2.03749 -0.008,2.25907 0,0.17565 0.1243,0.38913 0.46748,0.32698 2.70223,-0.89714 4.53434,-3.46156 4.53434,-6.45834 0,-3.74799 -3.04001,-6.59344 -6.788,-6.59344 z m -3.988499,9.32 c -0.03513,0.027 -0.02702,0.0892 0.01891,0.14051 0.04323,0.0432 0.105387,0.0621 0.140517,0.027 0.03513,-0.027 0.02702,-0.0892 -0.01892,-0.14051 -0.04323,-0.0432 -0.105387,-0.0621 -0.140516,-0.027 z m -0.291842,-0.21889 c -0.01892,0.0352 0.0081,0.0784 0.06215,0.10538 0.04323,0.027 0.09728,0.019 0.116195,-0.019 0.01892,-0.0352 -0.0081,-0.0784 -0.06215,-0.1054 -0.05405,-0.0162 -0.09728,-0.008 -0.116195,0.019 z m 0.875523,0.96201 c -0.04323,0.0352 -0.02702,0.11619 0.03514,0.16753 0.06215,0.0621 0.140516,0.0703 0.175644,0.027 0.03513,-0.0352 0.01892,-0.1162 -0.03513,-0.16753 -0.05946,-0.0621 -0.140517,-0.0703 -0.175645,-0.027 z m -0.308054,-0.39725 c -0.04323,0.027 -0.04323,0.0972 0,0.15944 0.04323,0.0621 0.116196,0.0892 0.151324,0.0621 0.04323,-0.0352 0.04323,-0.10538 0,-0.16754 -0.03783,-0.0621 -0.108088,-0.0892 -0.151324,-0.0541 z"
       style="fill:#1a1a1a;stroke-width:0.26458338" />
    <path
       id="path6831"
       d="m 166.76947,-441.7247 h -10.43585 c -0.47818,0 -0.86671,0.39395 -0.86671,0.87757 v 10.41682 c 0,0.4836 0.38853,0.87757 0.86671,0.87757 h 10.43585 c 0.47818,0 0.86941,-0.39397 0.86941,-0.87757 v -10.41682 c 0,-0.48362 -0.39123,-0.87757 -0.86941,-0.87757 z m -7.62379,10.43311 h -1.80406 v -5.80886 h 1.80678 v 5.80886 z m -0.90203,-6.60221 c -0.57871,0 -1.04603,-0.47004 -1.04603,-1.04603 0,-0.57598 0.46732,-1.04603 1.04603,-1.04603 0.57599,0 1.04602,0.47005 1.04602,1.04603 0,0.57872 -0.46732,1.04603 -1.04602,1.04603 z m 7.66455,6.60221 h -1.80407 v -2.82563 c 0,-0.67381 -0.0135,-1.54052 -0.93735,-1.54052 -0.94006,0 -1.08407,0.73358 -1.08407,1.49161 v 2.87454 h -1.80407 v -5.80886 h 1.73072 v 0.79337 h 0.0245 c 0.24181,-0.45646 0.8314,-0.93736 1.70897,-0.93736 1.8258,0 2.16541,1.20361 2.16541,2.76857 z"
       style="fill:#1a1a1a;stroke-width:0.26458335" />
  </g>
</svg>
