<?xml version="1.0" encoding="UTF-8" standalone="no"?>
<svg
   xmlns:dc="http://purl.org/dc/elements/1.1/"
   xmlns:cc="http://creativecommons.org/ns#"
   xmlns:rdf="http://www.w3.org/1999/02/22-rdf-syntax-ns#"
   xmlns:svg="http://www.w3.org/2000/svg"
   xmlns="http://www.w3.org/2000/svg"
   id="svg997"
   version="1.1"
   viewBox="0 0 79.374998 105.83334"
   >
  <defs
     id="defs991" />
  <metadata
     id="metadata994">
    <rdf:RDF>
      <cc:Work
         rdf:about="">
        <dc:format>image/svg+xml</dc:format>
        <dc:type
           rdf:resource="http://purl.org/dc/dcmitype/StillImage" />
        <dc:title></dc:title>
      </cc:Work>
    </rdf:RDF>
  </metadata>
  <g
     transform="translate(0,-191.16665)"
     id="layer1">
    <g
       transform="matrix(1,-0.26794919,0,1,1.5119048,9.0342904)"
       id="g1749">
      <path
         style="opacity:1;fill:#808080;fill-opacity:0.98989898;stroke:none;stroke-width:1.32291663;stroke-linecap:round;stroke-linejoin:round;stroke-miterlimit:4;stroke-dasharray:none;stroke-dashoffset:0;stroke-opacity:1;paint-order:markers fill stroke"
         d="m 11.828987,200.93322 c -1.278007,0 -2.3066446,1.2321 -2.3066446,2.76256 v 81.08289 c 0,1.53046 2.9576016,4.98433 3.4322096,4.61185 0.111443,-27.84238 -1.056847,-57.79554 -1.09766,-83.01872 -0.0028,-1.53046 1.028686,-2.7754 2.306644,-2.76257 l 51.400778,0.51608 c -0.938736,-1.31768 -2.550116,-3.19209 -3.803706,-3.19209 z"
         id="rect1673" />
      <rect
         ry="2.7625637"
         rx="2.3068728"
         y="203.60931"
         x="11.828988"
         height="86.608261"
         width="54.545288"
         id="rect1677"
         style="opacity:1;fill:#666666;fill-opacity:0.98989898;stroke:none;stroke-width:1.32291687;stroke-linecap:round;stroke-linejoin:round;stroke-miterlimit:4;stroke-dasharray:none;stroke-dashoffset:0;stroke-opacity:1;paint-order:markers fill stroke" />
      <rect
         style="opacity:1;fill:#333333;fill-opacity:0.98989898;stroke:none;stroke-width:1.32291687;stroke-linecap:round;stroke-linejoin:round;stroke-miterlimit:4;stroke-dasharray:none;stroke-dashoffset:0;stroke-opacity:1;paint-order:markers fill stroke"
         id="rect1684"
         width="48.041985"
         height="71.962433"
         x="15.08064"
         y="210.36526"
         rx="2.0318303"
         ry="2.2954021" />
      <rect
         style="opacity:1;fill:#333333;fill-opacity:0.98989898;stroke:none;stroke-width:1.32291687;stroke-linecap:round;stroke-linejoin:round;stroke-miterlimit:4;stroke-dasharray:none;stroke-dashoffset:0;stroke-opacity:1;paint-order:markers fill stroke"
         id="rect1688"
         width="7.2766213"
         height="3.9566002"
         x="35.463322"
         y="284.05203"
         rx="2.2736118"
         ry="1.9783001" />
      <rect
         style="opacity:1;fill:#333333;fill-opacity:0.98989898;stroke:none;stroke-width:1.32291687;stroke-linecap:round;stroke-linejoin:round;stroke-miterlimit:4;stroke-dasharray:none;stroke-dashoffset:0;stroke-opacity:1;paint-order:markers fill stroke"
         id="rect1690"
         width="11.555795"
         height="2.2363391"
         x="33.323734"
         y="206.27689"
         rx="0.84193128"
         ry="2.2363391" />
      <path
         style="opacity:1;fill:#1a1a1a;fill-opacity:0.98989898;stroke:none;stroke-width:1.32291687;stroke-linecap:round;stroke-linejoin:round;stroke-miterlimit:4;stroke-dasharray:none;stroke-dashoffset:0;stroke-opacity:1;paint-order:markers fill stroke"
         d="m 14.13594,203.51502 c -1.278006,0 -2.306836,1.23165 -2.306836,2.76211 v 81.08342 c 0,1.53046 1.02883,2.76263 2.306836,2.76263 h 49.931321 c 1.278007,0 2.306836,-1.23217 2.306836,-2.76263 v -81.08342 c 0,-1.53046 -1.028829,-2.76211 -2.306836,-2.76211 z m 0.951362,1.24954 h 48.028595 c 1.2293,0 2.218986,1.19445 2.218986,2.67839 v 78.61846 c 0,1.48394 -0.989686,2.67839 -2.218986,2.67839 H 15.087302 c -1.229299,0 -2.218986,-1.19445 -2.218984,-2.67839 v -78.61846 c 0,-1.48394 0.989685,-2.67839 2.218984,-2.67839 z"
         id="rect1723" />
    </g>
  </g>
</svg>
