<?xml version="1.0" encoding="UTF-8" standalone="no"?>
<svg
   xmlns:dc="http://purl.org/dc/elements/1.1/"
   xmlns:cc="http://creativecommons.org/ns#"
   xmlns:rdf="http://www.w3.org/1999/02/22-rdf-syntax-ns#"
   xmlns:svg="http://www.w3.org/2000/svg"
   xmlns="http://www.w3.org/2000/svg"
   xmlns:xlink="http://www.w3.org/1999/xlink"
   id="blog-HOC-svg"
   version="1.1"
   viewBox="0 0 132.29166 79.375002"
   >
  <defs
     id="defs1062">
    <linearGradient
       id="linearGradient1755">
      <stop
         id="stop1751"
         offset="0"
         style="stop-color:#b6b6b6;stop-opacity:1" />
      <stop
         id="stop1753"
         offset="1"
         style="stop-color:#f4f4f4;stop-opacity:1" />
    </linearGradient>
    <linearGradient
       id="linearGradient1747">
      <stop
         id="stop1743"
         offset="0"
         style="stop-color:#bbbbbb;stop-opacity:1" />
      <stop
         id="stop1745"
         offset="1"
         style="stop-color:#f8f8f8;stop-opacity:1" />
    </linearGradient>
    <linearGradient
       id="linearGradient1627">
      <stop
         id="stop1623"
         offset="0"
         style="stop-color:#76a6fc;stop-opacity:1" />
      <stop
         id="stop1625"
         offset="1"
         style="stop-color:#95f7fe;stop-opacity:1" />
    </linearGradient>
    <linearGradient
       gradientUnits="userSpaceOnUse"
       y2="280.74701"
       x2="124.35417"
       y1="222.53868"
       x1="17.764881"
       id="linearGradient1629"
       xlink:href="#linearGradient1627" />
    <radialGradient
       gradientUnits="userSpaceOnUse"
       gradientTransform="matrix(0.05598466,-0.66599592,-0.9793285,-0.08232385,334.04842,257.96228)"
       r="38.914299"
       fy="252.231"
       fx="-61.276104"
       cy="252.231"
       cx="-61.276104"
       id="radialGradient1749"
       xlink:href="#linearGradient1747" />
    <radialGradient
       gradientUnits="userSpaceOnUse"
       gradientTransform="matrix(-0.01830122,-0.90259269,1.1226586,-0.02276334,-200.28733,225.76642)"
       r="31.844546"
       fy="218.84952"
       fx="-40.065475"
       cy="218.84952"
       cx="-40.065475"
       id="radialGradient1757"
       xlink:href="#linearGradient1755" />
  </defs>
  <metadata
     id="metadata1065">
    <rdf:RDF>
      <cc:Work
         rdf:about="">
        <dc:format>image/svg+xml</dc:format>
        <dc:type
           rdf:resource="http://purl.org/dc/dcmitype/StillImage" />
        <dc:title></dc:title>
      </cc:Work>
    </rdf:RDF>
  </metadata>
  <g
     transform="translate(0,-217.62498)"
     id="layer1">
    <rect
       ry="0"
       y="217.81395"
       x="0.37797615"
       height="79.186005"
       width="132.10268"
       id="rect1613"
       style="opacity:1;fill:url(#linearGradient1629);fill-opacity:1;stroke:none;stroke-width:2.64583325;stroke-linecap:round;stroke-linejoin:round;stroke-miterlimit:4;stroke-dasharray:none;stroke-dashoffset:0;stroke-opacity:1;paint-order:markers fill stroke" />
    <path
       id="path1730"
       d="m 23.964305,267.92176 a 14.50338,17.043375 85.858567 0 0 14.049554,-8.21729 14.355422,24.21947 85.670111 0 0 8.422303,0.26255 14.355422,24.21947 85.670111 0 0 23.02982,-16.16085 14.355422,24.21947 85.670111 0 0 -25.267139,-12.46292 14.355422,24.21947 85.670111 0 0 -19.355184,7.67591 14.50338,17.043375 85.858567 0 0 -3.139724,-0.0161 14.50338,17.043375 85.858567 0 0 -15.8636171,15.76065 14.50338,17.043375 85.858567 0 0 18.1239871,13.15804 z"
       style="opacity:1;fill:url(#radialGradient1757);fill-opacity:1;stroke:none;stroke-width:2.64583325;stroke-linecap:round;stroke-linejoin:round;stroke-miterlimit:4;stroke-dasharray:none;stroke-dashoffset:0;stroke-opacity:1;paint-order:markers fill stroke" />
    <g
       style="fill:#1a1a1a;stroke-width:0.7130155"
       transform="matrix(1.4024941,0,0,1.4024941,15.339022,-91.531747)"
       id="g1705">
      <path
         id="path1635"
         style="font-style:normal;font-weight:normal;font-size:medium;line-height:1.25;font-family:sans-serif;letter-spacing:0px;word-spacing:0px;fill:#1a1a1a;fill-opacity:1;stroke:none;stroke-width:0.18865199"
         d="m -4.6309456,225.94053 h 1.0060151 v 6.69469 h 3.65552033 v -6.69469 H 1.036605 v 16.33199 H 0.03058983 v -7.77767 H -3.6249305 v 7.77767 h -1.0060151 z" />
      <path
         id="path1637"
         style="font-style:normal;font-weight:normal;font-size:medium;line-height:1.25;font-family:sans-serif;letter-spacing:0px;word-spacing:0px;fill:#1a1a1a;fill-opacity:1;stroke:none;stroke-width:0.18865199"
         d="m 3.0386745,225.94053 h 1.0060152 v 16.33199 H 3.0386745 Z" />
      <path
         id="path1639"
         style="font-style:normal;font-weight:normal;font-size:medium;line-height:1.25;font-family:sans-serif;letter-spacing:0px;word-spacing:0px;fill:#1a1a1a;fill-opacity:1;stroke:none;stroke-width:0.18865199"
         d="m 11.116677,239.9425 v -4.38656 H 9.4731867 v -1.81589 h 2.6395453 v 7.01193 q -0.582692,0.90795 -1.284911,1.37832 -0.702219,0.45945 -1.4990618,0.45945 -1.7430957,0 -2.7291897,-2.23157 -0.9811138,-2.2425 -0.9811138,-6.23525 0,-4.00369 0.9811138,-6.23526 0.986094,-2.2425 2.7291897,-2.2425 0.7271198,0 1.3795348,0.39381 0.657397,0.39379 1.210207,1.15954 v 2.35188 q -0.55779,-1.0392 -1.185305,-1.56427 -0.627515,-0.52508 -1.3197724,-0.52508 -1.3645944,0 -2.0518726,1.67367 -0.6822972,1.67368 -0.6822972,4.98821 0,3.30359 0.6822972,4.97726 0.6872782,1.67368 2.0518726,1.67368 0.5328894,0 0.9512324,-0.19691 0.418343,-0.20784 0.752021,-0.63446 z" />
      <path
         id="path1641"
         style="font-style:normal;font-weight:normal;font-size:medium;line-height:1.25;font-family:sans-serif;letter-spacing:0px;word-spacing:0px;fill:#1a1a1a;fill-opacity:1;stroke:none;stroke-width:0.18865199"
         d="m 13.955432,225.94053 h 1.006015 v 6.69469 h 3.655521 v -6.69469 h 1.006015 v 16.33199 h -1.006015 v -7.77767 h -3.655521 v 7.77767 h -1.006015 z" />
      <path
         id="path1643"
         style="font-style:normal;font-weight:normal;font-size:medium;line-height:1.25;font-family:sans-serif;letter-spacing:0px;word-spacing:0px;fill:#1a1a1a;fill-opacity:1;stroke:none;stroke-width:0.18865199"
         d="m 21.625054,225.94053 h 4.701378 v 1.85963 h -3.695363 v 4.83506 h 3.540974 v 1.85963 h -3.540974 v 5.91802 h 3.785008 v 1.85965 h -4.791023 z" />
      <path
         id="path1645"
         style="font-style:normal;font-weight:normal;font-size:medium;line-height:1.25;font-family:sans-serif;letter-spacing:0px;word-spacing:0px;fill:#1a1a1a;fill-opacity:1;stroke:none;stroke-width:0.18865199"
         d="m 31.60552,234.61518 q 0.323718,0.24067 0.627515,1.02827 0.308777,0.78761 0.617553,2.16593 l 1.020956,4.46314 h -1.080719 l -0.951232,-4.18966 q -0.36854,-1.64086 -0.717159,-2.17688 -0.343639,-0.53601 -0.941272,-0.53601 h -1.09566 v 6.90255 h -1.006015 v -16.33199 h 2.271004 q 1.27495,0 1.902465,1.17047 0.627514,1.17048 0.627514,3.53332 0,1.5424 -0.328698,2.55972 -0.323718,1.01734 -0.946252,1.41114 z m -2.520018,-6.85877 v 5.79769 h 1.264989 q 0.72712,0 1.09566,-0.73292 0.373521,-0.74385 0.373521,-2.17686 0,-1.43303 -0.373521,-2.15501 -0.36854,-0.7329 -1.09566,-0.7329 z" />
    </g>
    <path
       id="path1726"
       d="m 107.36434,241.63165 a 15.94534,11.609326 0 0 1 15.94518,11.60921 15.94534,11.609326 0 0 1 -5.19689,8.55604 23.498397,17.204183 0 0 1 11.9106,14.94235 23.498397,17.204183 0 0 1 -23.49839,17.20425 23.498397,17.204183 0 0 1 -20.824626,-9.26397 26.016082,16.92444 0 0 1 -0.995153,0.0324 26.016082,16.92444 0 0 1 -26.016145,-16.92464 26.016082,16.92444 0 0 1 26.016145,-16.92429 26.016082,16.92444 0 0 1 6.911833,0.60966 15.94534,11.609326 0 0 1 15.747446,-9.84111 z"
       style="opacity:1;fill:url(#radialGradient1749);fill-opacity:1;stroke:none;stroke-width:2.64583349;stroke-linecap:round;stroke-linejoin:round;stroke-miterlimit:4;stroke-dasharray:none;stroke-dashoffset:0;stroke-opacity:1;paint-order:markers fill stroke" />
    <g
       style="fill:#1a1a1a;stroke-width:0.72135878"
       transform="matrix(1.3862728,0,0,1.3862728,-104.16198,-43.042788)"
       id="g1724">
      <path
         id="path1657"
         style="font-style:normal;font-weight:normal;font-size:medium;line-height:1.25;font-family:sans-serif;letter-spacing:0px;word-spacing:0px;fill:#1a1a1a;fill-opacity:1;stroke:none;stroke-width:0.19085948"
         d="m 83.748977,227.19852 v 2.33001 q -0.507993,-1.03922 -1.085699,-1.55334 -0.572733,-0.51414 -1.220167,-0.51414 -1.27495,0 -1.952268,1.71743 -0.677319,1.70649 -0.677319,4.94445 0,3.22701 0.677319,4.94444 0.677318,1.7065 1.952268,1.7065 0.647434,0 1.220167,-0.51414 0.577706,-0.51414 1.085699,-1.55335 v 2.30814 q -0.527911,0.78761 -1.120563,1.18142 -0.587672,0.39381 -1.245072,0.39381 -1.688309,0 -2.659464,-2.2644 -0.971154,-2.27531 -0.971154,-6.20242 0,-3.93806 0.971154,-6.20244 0.971155,-2.27532 2.659464,-2.27532 0.667359,0 1.255031,0.39381 0.592652,0.38286 1.110604,1.15954 z" />
      <path
         id="path1659"
         style="font-style:normal;font-weight:normal;font-size:medium;line-height:1.25;font-family:sans-serif;letter-spacing:0px;word-spacing:0px;fill:#1a1a1a;fill-opacity:1;stroke:none;stroke-width:0.19085948"
         d="m 88.330824,227.43918 q -1.095664,0 -1.743098,1.79399 -0.642455,1.79401 -0.642455,4.88976 0,3.08481 0.642455,4.8788 0.647434,1.79401 1.743098,1.79401 1.095658,0 1.733133,-1.79401 0.642454,-1.79399 0.642454,-4.8788 0,-3.09575 -0.642454,-4.88976 -0.637475,-1.79399 -1.733133,-1.79399 z m 0,-1.79401 q 1.563806,0 2.500097,2.30814 0.936291,2.2972 0.936291,6.16962 0,3.86148 -0.936291,6.16961 -0.936291,2.29721 -2.500097,2.29721 -1.568786,0 -2.510056,-2.29721 -0.936297,-2.29719 -0.936297,-6.16961 0,-3.87242 0.936297,-6.16962 0.94127,-2.30814 2.510056,-2.30814 z" />
      <path
         id="path1661"
         style="font-style:normal;font-weight:normal;font-size:medium;line-height:1.25;font-family:sans-serif;letter-spacing:0px;word-spacing:0px;fill:#1a1a1a;fill-opacity:1;stroke:none;stroke-width:0.19085948"
         d="m 93.340984,225.94053 h 1.499065 l 1.897479,11.11406 1.907445,-11.11406 h 1.499067 v 16.33199 h -0.981116 v -14.3411 L 97.24552,239.133 h -1.010998 l -1.917404,-11.20158 v 14.3411 h -0.976134 z" />
      <path
         id="path1663"
         style="font-style:normal;font-weight:normal;font-size:medium;line-height:1.25;font-family:sans-serif;letter-spacing:0px;word-spacing:0px;fill:#1a1a1a;fill-opacity:1;stroke:none;stroke-width:0.19085948"
         d="m 103.15212,227.75641 v 6.1368 h 1.26499 q 0.70222,0 1.0857,-0.79856 0.38348,-0.79854 0.38348,-2.27532 0,-1.46582 -0.38348,-2.26438 -0.38348,-0.79854 -1.0857,-0.79854 z m -1.00601,-1.81588 h 2.271 q 1.25005,0 1.88753,1.24704 0.64245,1.23612 0.64245,3.63176 0,2.41754 -0.64245,3.65364 -0.63748,1.23612 -1.88753,1.23612 h -1.26499 v 6.56343 h -1.00601 z" />
      <path
         id="path1665"
         style="font-style:normal;font-weight:normal;font-size:medium;line-height:1.25;font-family:sans-serif;letter-spacing:0px;word-spacing:0px;fill:#1a1a1a;fill-opacity:1;stroke:none;stroke-width:0.19085948"
         d="m 111.31977,227.43918 q -1.09566,0 -1.74309,1.79399 -0.64246,1.79401 -0.64246,4.88976 0,3.08481 0.64246,4.8788 0.64743,1.79401 1.74309,1.79401 1.09566,0 1.73314,-1.79401 0.64245,-1.79399 0.64245,-4.8788 0,-3.09575 -0.64245,-4.88976 -0.63748,-1.79399 -1.73314,-1.79399 z m 0,-1.79401 q 1.56381,0 2.5001,2.30814 0.93629,2.2972 0.93629,6.16962 0,3.86148 -0.93629,6.16961 -0.93629,2.29721 -2.5001,2.29721 -1.56879,0 -2.51006,-2.29721 -0.93629,-2.29719 -0.93629,-6.16961 0,-3.87242 0.93629,-6.16962 0.94127,-2.30814 2.51006,-2.30814 z" />
      <path
         id="path1667"
         style="font-style:normal;font-weight:normal;font-size:medium;line-height:1.25;font-family:sans-serif;letter-spacing:0px;word-spacing:0px;fill:#1a1a1a;fill-opacity:1;stroke:none;stroke-width:0.19085948"
         d="m 116.32992,225.94053 h 1.35464 l 3.29694,13.66286 v -13.66286 h 0.97613 v 16.33199 H 120.603 l -3.29694,-13.66287 v 13.66287 h -0.97614 z" />
      <path
         id="path1669"
         style="font-style:normal;font-weight:normal;font-size:medium;line-height:1.25;font-family:sans-serif;letter-spacing:0px;word-spacing:0px;fill:#1a1a1a;fill-opacity:1;stroke:none;stroke-width:0.19085948"
         d="m 123.9597,225.94053 h 4.70137 v 1.85963 h -3.69536 v 4.83506 h 3.54098 v 1.85963 h -3.54098 v 5.91802 h 3.78501 v 1.85965 h -4.79102 z" />
      <path
         id="path1671"
         style="font-style:normal;font-weight:normal;font-size:medium;line-height:1.25;font-family:sans-serif;letter-spacing:0px;word-spacing:0px;fill:#1a1a1a;fill-opacity:1;stroke:none;stroke-width:0.19085948"
         d="m 130.41414,225.94053 h 1.35463 l 3.29694,13.66286 v -13.66286 h 0.97614 v 16.33199 h -1.35464 l -3.29694,-13.66287 v 13.66287 h -0.97613 z" />
      <path
         id="path1673"
         style="font-style:normal;font-weight:normal;font-size:medium;line-height:1.25;font-family:sans-serif;letter-spacing:0px;word-spacing:0px;fill:#1a1a1a;fill-opacity:1;stroke:none;stroke-width:0.19085948"
         d="m 137.013,225.94053 h 6.29008 v 1.85963 h -2.63955 v 14.47236 h -1.01099 V 227.80016 H 137.013 Z" />
      <path
         id="path1675"
         style="font-style:normal;font-weight:normal;font-size:medium;line-height:1.25;font-family:sans-serif;letter-spacing:0px;word-spacing:0px;fill:#1a1a1a;fill-opacity:1;stroke:none;stroke-width:0.19085948"
         d="m 148.73656,226.47654 v 2.15499 q -0.57274,-0.60165 -1.08072,-0.89701 -0.508,-0.29534 -0.98112,-0.29534 -0.82174,0 -1.26997,0.70009 -0.44324,0.7001 -0.44324,1.99091 0,1.08296 0.29384,1.64085 0.29881,0.54695 1.12554,0.88606 l 0.60759,0.27348 q 1.12554,0.47038 1.65843,1.66273 0.53787,1.18142 0.53787,3.17233 0,2.37377 -0.72712,3.59894 -0.72214,1.22518 -2.1216,1.22518 -0.52791,0 -1.12554,-0.26255 -0.59265,-0.26253 -1.23012,-0.77667 v -2.27531 q 0.61257,0.75479 1.20024,1.13765 0.58767,0.38287 1.15542,0.38287 0.86159,0 1.32974,-0.74385 0.46814,-0.74386 0.46814,-2.12218 0,-1.20329 -0.33866,-1.88151 -0.33367,-0.67823 -1.10064,-1.01734 l -0.61257,-0.26253 q -1.12554,-0.49226 -1.62855,-1.5424 -0.50301,-1.05015 -0.50301,-2.92074 0,-2.16592 0.69226,-3.41297 0.69723,-1.24705 1.9174,-1.24705 0.52293,0 1.06578,0.20784 0.54285,0.20784 1.11061,0.62353 z" />
    </g>
    <g
       style="fill:#1a1a1a;fill-opacity:1;stroke-width:0.72931534"
       transform="matrix(1.3711491,0,0,1.3711491,23.631599,-84.687204)"
       id="g1712">
      <path
         id="path1647"
         style="font-style:normal;font-weight:normal;font-size:medium;line-height:1.25;font-family:sans-serif;letter-spacing:0px;word-spacing:0px;fill:#1a1a1a;fill-opacity:1;stroke:none;stroke-width:0.19296466"
         d="m 41.436579,227.43918 q -1.09566,0 -1.743095,1.79399 -0.642456,1.79401 -0.642456,4.88976 0,3.08481 0.642456,4.8788 0.647435,1.79401 1.743095,1.79401 1.09566,0 1.733135,-1.79401 0.642455,-1.79399 0.642455,-4.8788 0,-3.09575 -0.642455,-4.88976 -0.637475,-1.79399 -1.733135,-1.79399 z m 0,-1.79401 q 1.563805,0 2.500097,2.30814 0.936292,2.2972 0.936292,6.16962 0,3.86148 -0.936292,6.16961 -0.936292,2.29721 -2.500097,2.29721 -1.568786,0 -2.510058,-2.29721 -0.936291,-2.29719 -0.936291,-6.16961 0,-3.87242 0.936291,-6.16962 0.941272,-2.30814 2.510058,-2.30814 z" />
      <path
         id="path1649"
         style="font-style:normal;font-weight:normal;font-size:medium;line-height:1.25;font-family:sans-serif;letter-spacing:0px;word-spacing:0px;fill:#1a1a1a;fill-opacity:1;stroke:none;stroke-width:0.19296466"
         d="m 49.972769,234.61518 q 0.323717,0.24067 0.627514,1.02827 0.308777,0.78761 0.617554,2.16593 l 1.020955,4.46314 h -1.080718 l -0.951233,-4.18966 q -0.36854,-1.64086 -0.717159,-2.17688 -0.343639,-0.53601 -0.941272,-0.53601 h -1.095659 v 6.90255 h -1.006016 v -16.33199 h 2.271005 q 1.27495,0 1.902464,1.17047 0.627514,1.17048 0.627514,3.53332 0,1.5424 -0.328698,2.55972 -0.323717,1.01734 -0.946251,1.41114 z m -2.520018,-6.85877 v 5.79769 h 1.264989 q 0.727119,0 1.095659,-0.73292 0.373521,-0.74385 0.373521,-2.17686 0,-1.43303 -0.373521,-2.15501 -0.36854,-0.7329 -1.095659,-0.7329 z" />
      <path
         id="path1651"
         style="font-style:normal;font-weight:normal;font-size:medium;line-height:1.25;font-family:sans-serif;letter-spacing:0px;word-spacing:0px;fill:#1a1a1a;fill-opacity:1;stroke:none;stroke-width:0.19296466"
         d="m 54.544658,227.75641 v 12.70022 h 1.215187 q 1.538904,0 2.251084,-1.53147 0.717159,-1.53147 0.717159,-4.83505 0,-3.28171 -0.717159,-4.80224 -0.71218,-1.53146 -2.251084,-1.53146 z m -1.006015,-1.81588 h 2.066814 q 2.161438,0 3.172433,1.97996 1.010996,1.96903 1.010996,6.16962 0,4.22247 -1.015976,6.20243 -1.015975,1.97998 -3.167453,1.97998 h -2.066814 z" />
      <path
         id="path1653"
         style="font-style:normal;font-weight:normal;font-size:medium;line-height:1.25;font-family:sans-serif;letter-spacing:0px;word-spacing:0px;fill:#1a1a1a;fill-opacity:1;stroke:none;stroke-width:0.19296466"
         d="m 61.38755,225.94053 h 4.701378 v 1.85963 h -3.695363 v 4.83506 h 3.540974 v 1.85963 h -3.540974 v 5.91802 h 3.785008 v 1.85965 H 61.38755 Z" />
      <path
         id="path1655"
         style="font-style:normal;font-weight:normal;font-size:medium;line-height:1.25;font-family:sans-serif;letter-spacing:0px;word-spacing:0px;fill:#1a1a1a;fill-opacity:1;stroke:none;stroke-width:0.19296466"
         d="m 71.368016,234.61518 q 0.32372,0.24067 0.627516,1.02827 0.308774,0.78761 0.617549,2.16593 l 1.020957,4.46314 H 72.55332 l -0.95123,-4.18966 q -0.368543,-1.64086 -0.717162,-2.17688 -0.343638,-0.53601 -0.94127,-0.53601 h -1.095657 v 6.90255 h -1.006019 v -16.33199 h 2.271003 q 1.274949,0 1.902465,1.17047 0.627516,1.17048 0.627516,3.53332 0,1.5424 -0.3287,2.55972 -0.323714,1.01734 -0.94625,1.41114 z m -2.520015,-6.85877 v 5.79769 h 1.264984 q 0.72712,0 1.095664,-0.73292 0.373516,-0.74385 0.373516,-2.17686 0,-1.43303 -0.373516,-2.15501 -0.368544,-0.7329 -1.095664,-0.7329 z" />
    </g>
  </g>
</svg>
