<?xml version="1.0" encoding="UTF-8" standalone="no"?>
<svg
   xmlns:dc="http://purl.org/dc/elements/1.1/"
   xmlns:cc="http://creativecommons.org/ns#"
   xmlns:rdf="http://www.w3.org/1999/02/22-rdf-syntax-ns#"
   xmlns:svg="http://www.w3.org/2000/svg"
   xmlns="http://www.w3.org/2000/svg"
   id="svg8"
   version="1.1"
   viewBox="0 0 210 297"
   height="297mm"
   width="210mm">
  <defs
     id="defs2" />
  <metadata
     id="metadata5">
    <rdf:RDF>
      <cc:Work
         rdf:about="">
        <dc:format>image/svg+xml</dc:format>
        <dc:type
           rdf:resource="http://purl.org/dc/dcmitype/StillImage" />
        <dc:title></dc:title>
      </cc:Work>
    </rdf:RDF>
  </metadata>
  <g
     id="layer1">
    <rect
       ry="0.31156516"
       y="1.621316"
       x="1.8250304"
       height="294.53101"
       width="207.93568"
       id="rect938"
       style="opacity:1;fill:#333333;fill-opacity:1;stroke:none;stroke-width:0.26458332;stroke-linecap:round;stroke-linejoin:round;stroke-miterlimit:4;stroke-dasharray:none;stroke-dashoffset:0;stroke-opacity:1;paint-order:markers fill stroke" />
    <polygon
       transform="matrix(0.26458333,0,0,0.26458333,-335.15148,22.772605)"
       id="polygon872"
       points=""
       style="fill:#61dafb" />
    <polygon
       transform="matrix(0.26458333,0,0,0.26458333,-335.15148,22.772605)"
       id="polygon876"
       points=""
       style="fill:#61dafb" />
    <g
       style="stroke-width:1.78688025"
       transform="matrix(0.56004905,0,0,0.55922048,242.12802,18.368562)"
       id="g1052">
      <path
         id="path996"
         d="m -228.38562,13.157992 c -9.52187,0 -21.987,6.78636 -34.59048,18.558844 -12.60349,-11.70323 -25.06861,-18.420204 -34.59047,-18.420204 v 0.03455 c -2.9085,0 -5.53986,0.623118 -7.82511,1.938858 -9.72961,5.609246 -11.91112,23.095393 -6.8905,45.047631 -21.53672,6.647994 -35.55957,17.277456 -35.55957,28.495945 0,11.253124 14.09223,21.917754 35.69821,28.531114 -4.986,22.02147 -2.77026,39.54186 6.99398,45.15109 2.25061,1.31576 4.88211,1.93886 7.79061,1.93886 9.52186,0 21.98698,-6.78636 34.59047,-18.55884 12.60348,11.70323 25.0686,18.4202 34.59048,18.4202 2.90849,0 5.53986,-0.6231 7.8251,-1.93886 9.72962,-5.60924 11.91113,-23.09472 6.89051,-45.04694 21.46749,-6.61337 35.49059,-17.27813 35.49059,-28.496624 0,-11.253103 -14.09223,-21.917742 -35.69821,-28.531108 4.986,-22.02148 2.76959,-39.541168 -6.99465,-45.150414 -2.24135,-1.310335 -4.86092,-1.933741 -7.72096,-1.938871 z"
         style="opacity:1;fill:#21c4c4;fill-opacity:1;stroke:#2a6663;stroke-width:4.72778702;stroke-linecap:round;stroke-linejoin:round;stroke-miterlimit:4;stroke-dasharray:none;stroke-dashoffset:0;stroke-opacity:1;paint-order:markers fill stroke" />
      <g
         style="stroke:#000000;stroke-width:0.94555748;stroke-miterlimit:4;stroke-dasharray:none;stroke-opacity:1"
         id="g1030"
         transform="translate(-44.366729,3.2470706)">
        <path
           d="m -218.43267,93.685549 5.64364,1.866841 q -1.77455,9.10565 -6.40001,13.90611 -4.59636,4.76236 -11.25818,4.76236 -6.89455,0 -11.2291,-3.65749 -4.30545,-3.6956 -6.57455,-10.667702 -2.24,-6.97211 -2.24,-14.972876 0,-8.724641 2.53092,-15.201473 2.55999,-6.514909 7.24363,-9.867607 4.71273,-3.3908 10.35637,-3.3908 6.4,0 10.76364,4.267069 4.36364,4.267077 6.08001,12.001162 l -5.55637,1.714453 q -1.48364,-6.095824 -4.30545,-8.877051 -2.82183,-2.781219 -7.0982,-2.781219 -4.91636,0 -8.23273,3.086009 -3.28727,3.086009 -4.62545,8.305564 -1.33818,5.181455 -1.33818,10.7058 0,7.124489 1.57091,12.458339 1.6,5.295752 4.94545,7.924572 3.34546,2.62883 7.24364,2.62883 4.74182,0 8.0291,-3.58129 3.28727,-3.58131 4.45091,-10.629601 z"
           style="font-style:normal;font-variant:normal;font-weight:normal;font-stretch:normal;font-size:143.90435791px;line-height:1.25;font-family:Arial;-inkscape-font-specification:'Arial, Normal';font-variant-ligatures:normal;font-variant-caps:normal;font-variant-numeric:normal;font-feature-settings:normal;text-align:start;letter-spacing:0px;word-spacing:0px;writing-mode:lr-tb;text-anchor:start;fill:#e6e6e6;fill-opacity:1;stroke:#000000;stroke-width:0.94555748;stroke-miterlimit:4;stroke-dasharray:none;stroke-opacity:1"
           id="path923" />
        <path
           d="m -208.89434,114.22086 11.97243,-57.757948 h 6.07019 l -12.33455,57.757948 z"
           style="font-style:normal;font-variant:normal;font-weight:normal;font-stretch:normal;font-size:143.90435791px;line-height:1.25;font-family:Arial;-inkscape-font-specification:'Arial, Normal';font-variant-ligatures:normal;font-variant-caps:normal;font-variant-numeric:normal;font-feature-settings:normal;text-align:start;letter-spacing:0px;word-spacing:0px;writing-mode:lr-tb;text-anchor:start;fill:#e6e6e6;fill-opacity:1;stroke:#000000;stroke-width:0.94555748;stroke-miterlimit:4;stroke-dasharray:none;stroke-opacity:1"
           id="path925" />
        <path
           id="path930"
           d="m -251.6196,42.471831 c -0.0141,0 -0.0281,0.0075 -0.039,0.0212 l -32.67902,42.797809 c -0.0215,0.02822 -0.0215,0.07379 0,0.10198 l 32.67904,42.79809 c 0.0215,0.0282 0.0561,0.028 0.0777,-3.1e-4 l 0.0102,-0.0134 c 0.007,-2.23733 0.0126,-5.37439 0.0171,-9.28077 l -0.0356,0.0466 c -0.0169,0.0221 -0.0775,-11.33932 0.16361,-6.29295 l -22.23834,-27.267892 c 8.72752,-10.911015 21.8794,-28.491816 22.01371,-28.572574 0,0 0.069,-7.20262 0.0398,-14.33499 -0.003,-6.77e-4 -0.005,-0.0025 -0.01,-0.0025 z"
           style="opacity:1;fill:#e6e6e6;fill-opacity:1;stroke:#000000;stroke-width:0.94555748;stroke-linecap:round;stroke-linejoin:round;stroke-miterlimit:4;stroke-dasharray:none;stroke-dashoffset:0;stroke-opacity:1;paint-order:markers fill stroke" />
        <path
           style="opacity:1;fill:#e6e6e6;fill-opacity:1;stroke:#000000;stroke-width:0.94555748;stroke-linecap:round;stroke-linejoin:round;stroke-miterlimit:4;stroke-dasharray:none;stroke-dashoffset:0;stroke-opacity:1;paint-order:markers fill stroke"
           d="m -187.09664,42.471832 c 0.0141,0 0.0281,0.0075 0.039,0.0212 l 32.67902,42.797809 c 0.0216,0.02822 0.0216,0.07379 0,0.10198 l -32.67904,42.798089 c -0.0215,0.0282 -0.0561,0.028 -0.0777,-3.1e-4 l -0.0102,-0.0134 c -0.007,-2.23733 -0.0126,-5.37439 -0.0171,-9.28077 l 0.0356,0.0466 c 0.0169,0.0221 0.0775,-11.33932 -0.16361,-6.29295 l 22.23834,-27.267891 c -8.72752,-10.911015 -21.8794,-28.491816 -22.01371,-28.572574 0,0 -0.069,-7.20262 -0.0398,-14.334989 0.003,-6.77e-4 0.005,-0.0025 0.01,-0.0025 z"
           id="path1012" />
      </g>
    </g>
    <g
       style="stroke-width:3.03048348"
       transform="matrix(0.32998036,0,0,0.32998036,279.20895,158.35744)"
       id="g1817">
      <path
         style="opacity:1;fill:#6c5353;fill-opacity:1;stroke:none;stroke-width:8.01815319;stroke-linecap:round;stroke-linejoin:round;stroke-miterlimit:4;stroke-dasharray:none;stroke-dashoffset:0;stroke-opacity:1;paint-order:markers fill stroke"
         d="m -740.74615,8.3489105 h 366.44385 c 0.0692,0 0.12497,0.055734 0.12497,0.1249653 V 276.56256 c 0,0.0692 -0.0557,0.12497 -0.12497,0.12497 h -366.44385 c -0.0692,0 -0.12497,-0.0557 -0.12497,-0.12497 V 8.4738758 c 0,-0.069231 0.0557,-0.1249653 0.12497,-0.1249653 z"
         id="rect1797" />
      <path
         style="opacity:1;fill:#6c5353;fill-opacity:1;stroke:none;stroke-width:8.01815319;stroke-linecap:round;stroke-linejoin:round;stroke-miterlimit:4;stroke-dasharray:none;stroke-dashoffset:0;stroke-opacity:1;paint-order:markers fill stroke"
         d="m -706.52146,-135.97638 c -0.0772,0 -0.15881,0.0644 -0.13901,0.13901 l 38.48655,145.3833713 222.90318,0.267168 36.88302,-145.6505393 c 0.0188,-0.0749 -0.0623,-0.13901 -0.13952,-0.13901 h -16.93489 c 0.0684,0 0.1402,0.0566 0.12351,0.12299 l -32.69103,129.0959943 -197.56727,-0.237194 -34.11265,-128.8588003 c -0.0176,-0.0661 0.055,-0.12299 0.1235,-0.12299 z"
         id="rect1799" />
      <path
         id="path1806"
         d="m -259.58859,262.67784 c 0,0.0623 -0.0519,0.12806 -0.11211,0.1121 l -117.2452,-31.03768 -0.21545,-179.761467 117.46065,-29.7445 c 0.0604,-0.01516 0.11211,0.05024 0.11211,0.112517 v 13.657224 c 0,-0.05516 -0.0456,-0.113057 -0.0992,-0.0996 l -104.11015,26.363854 0.19128,159.329182 103.91887,27.51033 c 0.0533,0.0142 0.0992,-0.0443 0.0992,-0.0996 z"
         style="opacity:1;fill:#6c5353;fill-opacity:1;stroke:none;stroke-width:8.01815319;stroke-linecap:round;stroke-linejoin:round;stroke-miterlimit:4;stroke-dasharray:none;stroke-dashoffset:0;stroke-opacity:1;paint-order:markers fill stroke" />
      <path
         id="path1808"
         d="m -724.68685,20.108771 h 334.32526 c 0.0631,0 0.11402,0.05085 0.11402,0.114012 V 264.81365 c 0,0.0631 -0.0508,0.11402 -0.11402,0.11402 h -334.32526 c -0.0631,0 -0.11402,-0.0508 -0.11402,-0.11402 V 20.222783 c 0,-0.06316 0.0508,-0.114012 0.11402,-0.114012 z"
         style="opacity:1;fill:#916f6f;fill-opacity:1;stroke:none;stroke-width:8.01815319;stroke-linecap:round;stroke-linejoin:round;stroke-miterlimit:4;stroke-dasharray:none;stroke-dashoffset:0;stroke-opacity:1;paint-order:markers fill stroke" />
      <path
         style="opacity:1;fill:#6c5353;fill-opacity:1;stroke:none;stroke-width:8.01815319;stroke-linecap:round;stroke-linejoin:round;stroke-miterlimit:4;stroke-dasharray:none;stroke-dashoffset:0;stroke-opacity:1;paint-order:markers fill stroke"
         d="m -690.37837,45.232116 h 265.7083 c 0.0501,0 0.0906,0.04041 0.0906,0.09061 V 239.71373 c 0,0.0502 -0.0404,0.0906 -0.0906,0.0906 h -265.7083 c -0.0502,0 -0.0906,-0.0404 -0.0906,-0.0906 V 45.322728 c 0,-0.0502 0.0404,-0.09061 0.0906,-0.09061 z"
         id="path1810" />
    </g>
  </g>
</svg>
