<?xml version="1.0" encoding="UTF-8" standalone="no"?>
<svg
   xmlns:dc="http://purl.org/dc/elements/1.1/"
   xmlns:cc="http://creativecommons.org/ns#"
   xmlns:rdf="http://www.w3.org/1999/02/22-rdf-syntax-ns#"
   xmlns:svg="http://www.w3.org/2000/svg"
   xmlns="http://www.w3.org/2000/svg"
   xmlns:xlink="http://www.w3.org/1999/xlink"
   id="svg1908"
   version="1.1"
   viewBox="0 0 286.27556 96.04254"
   >
  <defs
     id="defs1902">
    <linearGradient
       id="linearGradient2600">
      <stop
         id="stop2596"
         offset="0"
         style="stop-color:#ffda4a;stop-opacity:1" />
      <stop
         style="stop-color:#ffea75;stop-opacity:1"
         offset="0.44322336"
         id="stop2604" />
      <stop
         id="stop2598"
         offset="1"
         style="stop-color:#fffdd3;stop-opacity:1" />
    </linearGradient>
    <linearGradient
       gradientTransform="matrix(0.98892989,0,0,1,-1.0887891,0)"
       gradientUnits="userSpaceOnUse"
       y2="258.51199"
       x2="191.36256"
       y1="258.51199"
       x1="-98.353951"
       id="linearGradient2606"
       xlink:href="#linearGradient2600" />
  </defs>
  <metadata
     id="metadata1905">
    <rdf:RDF>
      <cc:Work
         rdf:about="">
        <dc:format>image/svg+xml</dc:format>
        <dc:type
           rdf:resource="http://purl.org/dc/dcmitype/StillImage" />
        <dc:title></dc:title>
      </cc:Work>
    </rdf:RDF>
  </metadata>
  <g
     transform="translate(0,-200.95578)"
     id="layer1">
    <text
       id="text2554"
       y="230.85332"
       x="-56.506729"
       style="font-style:normal;font-weight:normal;font-size:10.58320045px;line-height:1.25;font-family:sans-serif;letter-spacing:0px;word-spacing:0px;fill:#000000;fill-opacity:1;stroke:none;stroke-width:0.26458001"
       xml:space="preserve"><tspan
         style="stroke-width:0.26458001"
         y="240.21696"
         x="-56.506729"
         id="tspan2552" /></text>
    <g
       transform="translate(98.353946,-9.2760351)"
       id="g2632">
      <rect
         style="opacity:1;fill:url(#linearGradient2606);fill-opacity:1;stroke:none;stroke-width:1.32289994;stroke-linecap:round;stroke-linejoin:round;stroke-miterlimit:4;stroke-dasharray:none;stroke-dashoffset:0;stroke-opacity:1;paint-order:markers fill stroke"
         id="rect2594"
         width="286.50934"
         height="96.21582"
         x="-98.353951"
         y="210.40408" />
      <path
         style="opacity:1;fill:#00c3c3;fill-opacity:1;stroke:none;stroke-width:2.64579988;stroke-linecap:round;stroke-linejoin:round;stroke-miterlimit:4;stroke-dasharray:none;stroke-dashoffset:0;stroke-opacity:1;paint-order:markers fill stroke"
         d="m 13.267931,226.12868 h 47.912732 c 0.02157,0 0.03893,0.0267 0.03893,0.0601 v 62.4342 c 0,0.0332 -0.01737,0.0601 -0.03893,0.0601 H 13.267931 c -0.02152,0 -0.03894,-0.0267 -0.03894,-0.0601 v -62.4342 c 0,-0.0332 0.01732,-0.0601 0.03894,-0.0601 z"
         id="rect2482" />
      <path
         style="opacity:1;fill:#483737;fill-opacity:0.81042654;stroke:none;stroke-width:2.64579988;stroke-linecap:round;stroke-linejoin:round;stroke-miterlimit:4;stroke-dasharray:none;stroke-dashoffset:0;stroke-opacity:1;paint-order:markers fill stroke"
         d="m 30.855564,246.24725 a 14.055824,14.055824 0 0 0 -2.61076,0.25421 c -0.196361,2.063 -0.207464,4.51615 -1.342167,5.04528 -1.147641,0.53515 -3.06327,-1.07396 -4.78502,-2.2536 a 14.055824,14.055824 0 0 0 -2.263482,2.28489 c 1.178825,1.71838 2.778616,3.62765 2.244815,4.77239 -0.529241,1.13497 -2.983353,1.14596 -5.046646,1.34245 a 14.055824,14.055824 0 0 0 -0.252564,2.61021 14.055824,14.055824 0 0 0 0.02224,0.63168 c 1.987315,0.54498 4.36356,0.98438 4.684817,2.18332 0.313282,1.16919 -1.425398,2.68946 -2.855364,4.12341 a 14.055824,14.055824 0 0 0 1.969462,2.68214 c 1.818137,-0.8488 3.803352,-1.92623 4.782549,-1.24059 0.952032,0.66662 0.66346,2.79672 0.485091,4.75152 a 14.055824,14.055824 0 0 0 3.310805,0.81618 c 0.813019,-1.76556 1.622094,-3.70926 2.766143,-3.80935 1.122561,-0.0982 2.235968,1.60838 3.323433,3.18178 a 14.055824,14.055824 0 0 0 3.13099,-1.47532 c -0.505447,-1.84036 -1.092149,-3.78264 -0.297313,-4.57747 0.792886,-0.79289 2.727675,-0.21086 4.564024,0.29374 a 14.055824,14.055824 0 0 0 1.493432,-3.12385 c -1.574733,-1.08853 -3.284756,-2.20329 -3.186444,-3.327 0.09996,-1.14257 2.038752,-1.95117 3.802484,-2.76313 a 14.055824,14.055824 0 0 0 -0.798601,-3.31492 c -1.957693,0.17828 -4.094407,0.46977 -4.762235,-0.48399 -0.684685,-0.97783 0.389043,-2.95879 1.237298,-4.77486 a 14.055824,14.055824 0 0 0 -2.673352,-1.98264 c -1.435546,1.43098 -2.95823,3.17453 -4.128898,2.86085 -1.197098,-0.32076 -1.63704,-2.69004 -2.18085,-4.67548 a 14.055824,14.055824 0 0 0 -0.633883,-0.0318 z m -0.05765,9.08221 a 4.9195383,4.9195383 0 0 1 4.919539,4.91953 4.9195383,4.9195383 0 0 1 -4.919539,4.91954 4.9195383,4.9195383 0 0 1 -4.919538,-4.91954 4.9195383,4.9195383 0 0 1 4.919538,-4.91953 z"
         id="path2467" />
      <path
         id="path2480"
         d="m 46.844201,266.71055 a 9.7220031,9.7220031 0 0 0 -1.805784,0.17584 c -0.13582,1.42691 -0.143496,3.12369 -0.928339,3.48966 -0.793794,0.37015 -2.118776,-0.74282 -3.309658,-1.55874 a 9.7220031,9.7220031 0 0 0 -1.565585,1.58039 c 0.815358,1.18855 1.921884,2.50914 1.55267,3.30092 -0.366058,0.78502 -2.063499,0.79263 -3.490618,0.92853 a 9.7220031,9.7220031 0 0 0 -0.174691,1.80541 9.7220031,9.7220031 0 0 0 0.01541,0.43691 c 1.374568,0.37695 3.018145,0.68087 3.240351,1.51015 0.216687,0.80868 -0.985905,1.86022 -1.974971,2.85204 a 9.7220031,9.7220031 0 0 0 1.362216,1.85515 c 1.257555,-0.58709 2.630673,-1.33232 3.307953,-0.85808 0.658491,0.46108 0.4589,1.93441 0.335522,3.28649 a 9.7220031,9.7220031 0 0 0 2.289987,0.56453 c 0.562345,-1.22118 1.121959,-2.56559 1.913261,-2.63482 0.776444,-0.0679 1.546555,1.11247 2.298723,2.20074 a 9.7220031,9.7220031 0 0 0 2.165614,-1.02042 c -0.349603,-1.27293 -0.755407,-2.61635 -0.205643,-3.16612 0.548417,-0.54841 1.886654,-0.14584 3.156803,0.20318 a 9.7220031,9.7220031 0 0 0 1.032963,-2.16068 c -1.089197,-0.7529 -2.27197,-1.52395 -2.203971,-2.30119 0.06914,-0.79027 1.410146,-1.34956 2.630068,-1.91117 a 9.7220031,9.7220031 0 0 0 -0.55237,-2.29283 c -1.354078,0.12331 -2.831981,0.32492 -3.293898,-0.33477 -0.473577,-0.67634 0.26909,-2.04651 0.855803,-3.30263 a 9.7220031,9.7220031 0 0 0 -1.849079,-1.37133 c -0.992926,0.98977 -2.046122,2.19573 -2.855838,1.97877 -0.827998,-0.22187 -1.132292,-1.86062 -1.508433,-3.2339 a 9.7220031,9.7220031 0 0 0 -0.438436,-0.022 z m -0.0399,6.2819 a 3.402701,3.402701 0 0 1 3.402701,3.4027 3.402701,3.402701 0 0 1 -3.402701,3.4027 3.402701,3.402701 0 0 1 -3.402702,-3.4027 3.402701,3.402701 0 0 1 3.402702,-3.4027 z"
         style="opacity:1;fill:#483737;fill-opacity:0.81042654;stroke:none;stroke-width:2.64579988;stroke-linecap:round;stroke-linejoin:round;stroke-miterlimit:4;stroke-dasharray:none;stroke-dashoffset:0;stroke-opacity:1;paint-order:markers fill stroke" />
      <path
         style="opacity:1;fill:#666666;fill-opacity:1;stroke:none;stroke-width:2.64580011;stroke-linecap:round;stroke-linejoin:round;stroke-miterlimit:4;stroke-dasharray:none;stroke-dashoffset:0;stroke-opacity:1;paint-order:markers fill stroke"
         d="m -87.334862,284.01766 c -2.637328,0 -4.760396,2.39616 -4.760396,5.37273 v 0.59324 c 0,2.97657 2.123068,5.37325 4.760396,5.37325 h 81.5700282 c 2.6373278,0 4.760396,-2.39668 4.760396,-5.37325 v -0.59324 c 0,-2.97657 -2.1230682,-5.37273 -4.760396,-5.37273 z m 0.3608,2.3621 h 80.8484337 c 1.5384415,0 2.7769348,1.39781 2.7769348,3.13414 v 0.34622 c 0,1.73633 -1.2384933,3.13414 -2.7769348,3.13414 H -86.974062 c -1.538448,0 -2.77694,-1.39781 -2.77694,-3.13414 v -0.34622 c 0,-1.73633 1.238492,-3.13414 2.77694,-3.13414 z"
         id="rect2512" />
      <path
         id="path2519"
         d="m 82.381697,283.82312 c -2.97657,0 -5.37273,2.39616 -5.37273,5.37273 v 0.59324 c 0,2.97657 2.39616,5.37325 5.37273,5.37325 h 92.062473 c 2.97657,0 5.37273,-2.39668 5.37273,-5.37325 v -0.59324 c 0,-2.97657 -2.39616,-5.37273 -5.37273,-5.37273 z m 0.40721,2.3621 h 91.248063 c 1.73633,0 3.13413,1.39781 3.13413,3.13414 v 0.34622 c 0,1.73633 -1.3978,3.13414 -3.13413,3.13414 H 82.788907 c -1.73634,0 -3.13414,-1.39781 -3.13414,-3.13414 v -0.34622 c 0,-1.73633 1.3978,-3.13414 3.13414,-3.13414 z"
         style="opacity:1;fill:#666666;fill-opacity:1;stroke:none;stroke-width:2.64580011;stroke-linecap:round;stroke-linejoin:round;stroke-miterlimit:4;stroke-dasharray:none;stroke-dashoffset:0;stroke-opacity:1;paint-order:markers fill stroke" />
      <path
         style="opacity:1;fill:#d35f5f;fill-opacity:1;stroke:none;stroke-width:2.64580011;stroke-linecap:round;stroke-linejoin:round;stroke-miterlimit:4;stroke-dasharray:none;stroke-dashoffset:0;stroke-opacity:1;paint-order:markers fill stroke"
         d="m -64.849871,253.71796 -0.0389,0.0389 0.05551,6.7948 h -20.210166 v 8.29849 h 20.277834 l 0.05592,6.83371 10.912849,-10.91245 z"
         id="rect2521" />
      <path
         id="path2533"
         d="m 93.520155,252.67576 -0.0389,0.0389 0.0555,6.7948 h -20.21016 v 8.29849 h 20.27783 l 0.0559,6.83371 10.912855,-10.91245 z"
         style="opacity:1;fill:#d35f5f;fill-opacity:1;stroke:none;stroke-width:2.64580011;stroke-linecap:round;stroke-linejoin:round;stroke-miterlimit:4;stroke-dasharray:none;stroke-dashoffset:0;stroke-opacity:1;paint-order:markers fill stroke" />
      <text
         xml:space="preserve"
         style="font-style:normal;font-weight:normal;font-size:15.84045506px;line-height:1.25;font-family:sans-serif;letter-spacing:0px;word-spacing:0px;fill:#333333;fill-opacity:1;stroke:none;stroke-width:0.26458001"
         x="18.949556"
         y="242.12563"
         id="text2537"><tspan
           id="tspan2535"
           x="18.949556"
           y="242.12563"
           style="fill:#333333;stroke-width:0.26458001">HOC</tspan></text>
      <g
         id="g2559"
         transform="matrix(0.95448248,0,0,0.95379228,30.506258,47.831407)"
         style="stroke-width:1.04806721">
        <path
           transform="matrix(0.86028773,0.17598261,-0.2305134,0.65677606,27.16167,86.307963)"
           d="m -22.111323,238.22377 c -4.231919,4.23192 -5.997006,-3.68297 -11.777916,-2.13398 -5.780909,1.54899 -3.352077,9.28603 -9.132987,7.73704 -5.780909,-1.54899 0.191038,-7.03504 -4.040882,-11.26696 -4.231919,-4.23192 -9.717971,1.74002 -11.266961,-4.04089 -1.548991,-5.78091 6.188043,-3.35207 7.737033,-9.13298 1.54899,-5.78091 -6.365893,-7.546 -2.133974,-11.77792 4.231919,-4.23192 5.997006,3.68297 11.777915,2.13398 5.78091,-1.54899 3.352078,-9.28603 9.132988,-7.73704 5.780909,1.54899 -0.191038,7.03504 4.040881,11.26696 4.23192,4.23192 9.717972,-1.74003 11.266962,4.04088 1.54899,5.78091 -6.188043,3.35208 -7.737033,9.13299 -1.548991,5.78091 6.365893,7.546 2.133974,11.77792 z"
           id="path2542"
           style="opacity:1;fill:#00e3e3;fill-opacity:1;stroke:#217eb1;stroke-width:1.7816788;stroke-linecap:round;stroke-linejoin:round;stroke-miterlimit:4;stroke-dasharray:none;stroke-dashoffset:0;stroke-opacity:1;paint-order:markers fill stroke" />
        <text
           id="text2550"
           y="227.09608"
           x="-72.310455"
           style="font-style:normal;font-weight:normal;font-size:3.62199998px;line-height:1.25;font-family:sans-serif;letter-spacing:0px;word-spacing:0px;fill:#000000;fill-opacity:1;stroke:none;stroke-width:0.27729765"
           xml:space="preserve"><tspan
             style="stroke-width:0.27729765"
             y="227.09608"
             x="-72.310455"
             id="tspan2548">&lt; Component  /&gt;</tspan></text>
      </g>
      <g
         id="g2580"
         transform="translate(41.107174,6.5440875)">
        <path
           transform="matrix(1.2619829,0.22130535,-0.21910565,1.2679857,198.26067,-24.855247)"
           d="m -22.111323,238.22377 c -4.575587,4.57558 -6.546047,-1.35269 -12.937237,-0.34042 -6.39119,1.01226 -6.433271,7.25929 -12.198847,4.32158 -5.765576,-2.93771 -0.736357,-6.64366 -3.674065,-12.40924 -2.937708,-5.76557 -8.89199,-3.87516 -7.879724,-10.26635 1.012265,-6.39119 6.090952,-2.75332 10.666539,-7.32891 4.575587,-4.57558 0.937719,-9.65427 7.32891,-10.66654 6.39119,-1.01226 4.500773,4.94202 10.266349,7.87973 5.765576,2.93771 9.471532,-2.09151 12.409239,3.67406 2.937708,5.76558 -3.309322,5.80766 -4.321587,12.19885 -1.012265,6.39119 4.91601,8.36165 0.340423,12.93724 z"
           id="path2546"
           style="opacity:1;fill:#ff7f2a;fill-opacity:1;stroke:none;stroke-width:2.06058621;stroke-linecap:round;stroke-linejoin:round;stroke-miterlimit:4;stroke-dasharray:none;stroke-dashoffset:0;stroke-opacity:1;paint-order:markers fill stroke" />
        <g
           id="g2567"
           transform="matrix(0.80841462,0,0,0.8054138,147.43928,74.144742)"
           style="stroke-width:1.23929131">
          <path
             transform="matrix(0.86028773,0.17598261,-0.2305134,0.65677606,27.16167,86.307963)"
             d="m -22.111323,238.22377 c -4.231919,4.23192 -5.997006,-3.68297 -11.777916,-2.13398 -5.780909,1.54899 -3.352077,9.28603 -9.132987,7.73704 -5.780909,-1.54899 0.191038,-7.03504 -4.040882,-11.26696 -4.231919,-4.23192 -9.717971,1.74002 -11.266961,-4.04089 -1.548991,-5.78091 6.188043,-3.35207 7.737033,-9.13298 1.54899,-5.78091 -6.365893,-7.546 -2.133974,-11.77792 4.231919,-4.23192 5.997006,3.68297 11.777915,2.13398 5.78091,-1.54899 3.352078,-9.28603 9.132988,-7.73704 5.780909,1.54899 -0.191038,7.03504 4.040881,11.26696 4.23192,4.23192 9.717972,-1.74003 11.266962,4.04088 1.54899,5.78091 -6.188043,3.35208 -7.737033,9.13299 -1.548991,5.78091 6.365893,7.546 2.133974,11.77792 z"
             id="path2561"
             style="opacity:1;fill:#00e3e3;fill-opacity:1;stroke:#217eb1;stroke-width:2.10675335;stroke-linecap:round;stroke-linejoin:round;stroke-miterlimit:4;stroke-dasharray:none;stroke-dashoffset:0;stroke-opacity:1;paint-order:markers fill stroke" />
          <text
             id="text2565"
             y="227.09608"
             x="-72.310455"
             style="font-style:normal;font-weight:normal;font-size:3.62199998px;line-height:1.25;font-family:sans-serif;letter-spacing:0px;word-spacing:0px;fill:#000000;fill-opacity:1;stroke:none;stroke-width:0.32789171"
             xml:space="preserve"><tspan
               style="stroke-width:0.32789171"
               y="227.09608"
               x="-72.310455"
               id="tspan2563">&lt; Component  /&gt;</tspan></text>
        </g>
        <text
           id="text2571"
           y="242.1107"
           x="77.23922"
           style="font-style:normal;font-weight:normal;font-size:4.61645746px;line-height:1.25;font-family:sans-serif;letter-spacing:0px;word-spacing:0px;fill:#000000;fill-opacity:1;stroke:none;stroke-width:0.26458001"
           xml:space="preserve"><tspan
             style="stroke-width:0.26458001"
             y="242.1107"
             x="77.23922"
             id="tspan2569">&lt; NewComponent /&gt;</tspan></text>
      </g>
      <path
         style="opacity:1;fill:#008080;fill-opacity:1;stroke:none;stroke-width:2.64580035;stroke-linecap:round;stroke-linejoin:round;stroke-miterlimit:4;stroke-dasharray:none;stroke-dashoffset:0;stroke-opacity:1;paint-order:markers fill stroke"
         d="m 61.247097,226.11408 v 62.61731 h 10.528941 c 0.03,0 0.05426,-0.0504 0.05426,-0.11386 v -4.32501 h -6.806217 v -14.52018 h 0.01085 v -24.87182 h -0.01085 v -14.52018 h 6.806217 v -4.15189 c 0,-0.0632 -0.02418,-0.11437 -0.05426,-0.11437 z"
         id="path2582" />
      <path
         id="path2592"
         d="m 13.267931,240.29379 v 48.4522 H 2.73899 c -0.03,0 -0.05426,-0.039 -0.05426,-0.0881 v -3.34662 H 9.490947 V 274.0758 h -0.01085 v -19.24539 h 0.01085 V 243.59495 H 2.68473 v -3.21266 c 0,-0.0489 0.02418,-0.0885 0.05426,-0.0885 z"
         style="opacity:1;fill:#008080;fill-opacity:1;stroke:none;stroke-width:2.64580035;stroke-linecap:round;stroke-linejoin:round;stroke-miterlimit:4;stroke-dasharray:none;stroke-dashoffset:0;stroke-opacity:1;paint-order:markers fill stroke" />
    </g>
  </g>
</svg>
