<?xml version="1.0" encoding="UTF-8" standalone="no"?>
<svg
   xmlns:dc="http://purl.org/dc/elements/1.1/"
   xmlns:cc="http://creativecommons.org/ns#"
   xmlns:rdf="http://www.w3.org/1999/02/22-rdf-syntax-ns#"
   xmlns:svg="http://www.w3.org/2000/svg"
   xmlns="http://www.w3.org/2000/svg"
   xmlns:xlink="http://www.w3.org/1999/xlink"
   id="svg1908"
   version="1.1"
   viewBox="0 0 286.27556 96.04254"
   height="363"
   width="1082">
  <defs
     id="defs1902">
    <linearGradient
       id="linearGradient2600">
      <stop
         id="stop2596"
         offset="0"
         style="stop-color:#ffda4a;stop-opacity:1" />
      <stop
         style="stop-color:#ffea75;stop-opacity:1"
         offset="0.44322336"
         id="stop2604" />
      <stop
         id="stop2598"
         offset="1"
         style="stop-color:#fffdd3;stop-opacity:1" />
    </linearGradient>
    <linearGradient
       gradientTransform="matrix(0.98892989,0,0,1,97.265157,-9.2760351)"
       gradientUnits="userSpaceOnUse"
       y2="258.51199"
       x2="191.36256"
       y1="258.51199"
       x1="-98.353951"
       id="linearGradient2606"
       xlink:href="#linearGradient2600" />
  </defs>
  <metadata
     id="metadata1905">
    <rdf:RDF>
      <cc:Work
         rdf:about="">
        <dc:format>image/svg+xml</dc:format>
        <dc:type
           rdf:resource="http://purl.org/dc/dcmitype/StillImage" />
        <dc:title></dc:title>
      </cc:Work>
    </rdf:RDF>
  </metadata>
  <g
     transform="translate(0,-200.95578)"
     id="layer1">
    <text
       id="text2554"
       y="230.85332"
       x="-56.506729"
       style="font-style:normal;font-weight:normal;font-size:10.58320045px;line-height:1.25;font-family:sans-serif;letter-spacing:0px;word-spacing:0px;fill:#000000;fill-opacity:1;stroke:none;stroke-width:0.26458001"
       xml:space="preserve"><tspan
         style="stroke-width:0.26458001"
         y="240.21696"
         x="-56.506729"
         id="tspan2552" /></text>
    <rect
       y="201.12805"
       x="-4.5004881e-06"
       height="96.21582"
       width="286.50934"
       id="rect2594"
       style="opacity:1;fill:url(#linearGradient2606);fill-opacity:1;stroke:none;stroke-width:1.32289994;stroke-linecap:round;stroke-linejoin:round;stroke-miterlimit:4;stroke-dasharray:none;stroke-dashoffset:0;stroke-opacity:1;paint-order:markers fill stroke" />
    <path
       id="rect2482"
       d="m 111.62188,216.85264 h 47.91273 c 0.0216,0 0.0389,0.0267 0.0389,0.0601 v 62.4342 c 0,0.0332 -0.0174,0.0601 -0.0389,0.0601 h -47.91273 c -0.0215,0 -0.0389,-0.0267 -0.0389,-0.0601 v -62.4342 c 0,-0.0332 0.0173,-0.0601 0.0389,-0.0601 z"
       style="opacity:1;fill:#00c3c3;fill-opacity:1;stroke:none;stroke-width:2.64579988;stroke-linecap:round;stroke-linejoin:round;stroke-miterlimit:4;stroke-dasharray:none;stroke-dashoffset:0;stroke-opacity:1;paint-order:markers fill stroke" />
    <path
       id="path2467"
       d="m 129.20951,236.97121 a 14.055824,14.055824 0 0 0 -2.61076,0.25421 c -0.19636,2.063 -0.20746,4.51615 -1.34217,5.04528 -1.14764,0.53515 -3.06327,-1.07396 -4.78502,-2.2536 a 14.055824,14.055824 0 0 0 -2.26348,2.28489 c 1.17883,1.71838 2.77862,3.62765 2.24482,4.77239 -0.52925,1.13497 -2.98336,1.14596 -5.04665,1.34245 a 14.055824,14.055824 0 0 0 -0.25256,2.61021 14.055824,14.055824 0 0 0 0.0222,0.63168 c 1.98731,0.54498 4.36356,0.98438 4.68481,2.18332 0.31329,1.16919 -1.4254,2.68946 -2.85536,4.12341 a 14.055824,14.055824 0 0 0 1.96946,2.68214 c 1.81814,-0.8488 3.80335,-1.92623 4.78255,-1.24059 0.95203,0.66662 0.66346,2.79672 0.48509,4.75152 a 14.055824,14.055824 0 0 0 3.31081,0.81618 c 0.81301,-1.76556 1.62209,-3.70926 2.76614,-3.80935 1.12256,-0.0982 2.23597,1.60838 3.32343,3.18178 a 14.055824,14.055824 0 0 0 3.13099,-1.47532 c -0.50545,-1.84036 -1.09215,-3.78264 -0.29731,-4.57747 0.79288,-0.79289 2.72767,-0.21086 4.56402,0.29374 a 14.055824,14.055824 0 0 0 1.49343,-3.12385 c -1.57473,-1.08853 -3.28475,-2.20329 -3.18644,-3.327 0.1,-1.14257 2.03875,-1.95117 3.80248,-2.76313 a 14.055824,14.055824 0 0 0 -0.7986,-3.31492 c -1.95769,0.17828 -4.0944,0.46977 -4.76223,-0.48399 -0.68469,-0.97783 0.38904,-2.95879 1.2373,-4.77486 a 14.055824,14.055824 0 0 0 -2.67336,-1.98264 c -1.43554,1.43098 -2.95823,3.17453 -4.12889,2.86085 -1.1971,-0.32076 -1.63704,-2.69004 -2.18085,-4.67548 a 14.055824,14.055824 0 0 0 -0.63389,-0.0318 z m -0.0576,9.08221 a 4.9195383,4.9195383 0 0 1 4.91954,4.91953 4.9195383,4.9195383 0 0 1 -4.91954,4.91954 4.9195383,4.9195383 0 0 1 -4.91954,-4.91954 4.9195383,4.9195383 0 0 1 4.91954,-4.91953 z"
       style="opacity:1;fill:#483737;fill-opacity:0.81042654;stroke:none;stroke-width:2.64579988;stroke-linecap:round;stroke-linejoin:round;stroke-miterlimit:4;stroke-dasharray:none;stroke-dashoffset:0;stroke-opacity:1;paint-order:markers fill stroke" />
    <path
       style="opacity:1;fill:#483737;fill-opacity:0.81042654;stroke:none;stroke-width:2.64579988;stroke-linecap:round;stroke-linejoin:round;stroke-miterlimit:4;stroke-dasharray:none;stroke-dashoffset:0;stroke-opacity:1;paint-order:markers fill stroke"
       d="m 145.19815,257.43451 a 9.7220031,9.7220031 0 0 0 -1.80579,0.17584 c -0.13582,1.42691 -0.14349,3.12369 -0.92834,3.48966 -0.79379,0.37015 -2.11877,-0.74282 -3.30965,-1.55874 a 9.7220031,9.7220031 0 0 0 -1.56559,1.58039 c 0.81536,1.18855 1.92188,2.50914 1.55267,3.30092 -0.36606,0.78502 -2.0635,0.79263 -3.49062,0.92853 a 9.7220031,9.7220031 0 0 0 -0.17469,1.80541 9.7220031,9.7220031 0 0 0 0.0154,0.43691 c 1.37457,0.37695 3.01815,0.68087 3.24035,1.51015 0.21669,0.80868 -0.9859,1.86022 -1.97497,2.85204 a 9.7220031,9.7220031 0 0 0 1.36222,1.85515 c 1.25755,-0.58709 2.63067,-1.33232 3.30795,-0.85808 0.65849,0.46108 0.4589,1.93441 0.33552,3.28649 a 9.7220031,9.7220031 0 0 0 2.28999,0.56453 c 0.56234,-1.22118 1.12196,-2.56559 1.91326,-2.63482 0.77644,-0.0679 1.54656,1.11247 2.29872,2.20074 a 9.7220031,9.7220031 0 0 0 2.16562,-1.02042 c -0.34961,-1.27293 -0.75541,-2.61635 -0.20565,-3.16612 0.54842,-0.54841 1.88666,-0.14584 3.15681,0.20318 a 9.7220031,9.7220031 0 0 0 1.03296,-2.16068 c -1.0892,-0.7529 -2.27197,-1.52395 -2.20397,-2.30119 0.0691,-0.79027 1.41015,-1.34956 2.63007,-1.91117 a 9.7220031,9.7220031 0 0 0 -0.55237,-2.29283 c -1.35408,0.12331 -2.83198,0.32492 -3.2939,-0.33477 -0.47358,-0.67634 0.26909,-2.04651 0.8558,-3.30263 a 9.7220031,9.7220031 0 0 0 -1.84908,-1.37133 c -0.99292,0.98977 -2.04612,2.19573 -2.85583,1.97877 -0.828,-0.22187 -1.1323,-1.86062 -1.50844,-3.2339 a 9.7220031,9.7220031 0 0 0 -0.43843,-0.022 z m -0.0399,6.2819 a 3.402701,3.402701 0 0 1 3.4027,3.4027 3.402701,3.402701 0 0 1 -3.4027,3.4027 3.402701,3.402701 0 0 1 -3.40271,-3.4027 3.402701,3.402701 0 0 1 3.40271,-3.4027 z"
       id="path2480" />
    <path
       id="rect2512"
       d="m 11.019084,274.74162 c -2.637328,0 -4.760396,2.39616 -4.760396,5.37273 v 0.59324 c 0,2.97657 2.123068,5.37325 4.760396,5.37325 h 81.570028 c 2.637328,0 4.760396,-2.39668 4.760396,-5.37325 v -0.59324 c 0,-2.97657 -2.123068,-5.37273 -4.760396,-5.37273 z m 0.3608,2.3621 h 80.848434 c 1.538441,0 2.776934,1.39781 2.776934,3.13414 v 0.34622 c 0,1.73633 -1.238493,3.13414 -2.776934,3.13414 H 11.379884 c -1.538448,0 -2.77694,-1.39781 -2.77694,-3.13414 v -0.34622 c 0,-1.73633 1.238492,-3.13414 2.77694,-3.13414 z"
       style="opacity:1;fill:#666666;fill-opacity:1;stroke:none;stroke-width:2.64580011;stroke-linecap:round;stroke-linejoin:round;stroke-miterlimit:4;stroke-dasharray:none;stroke-dashoffset:0;stroke-opacity:1;paint-order:markers fill stroke" />
    <path
       style="opacity:1;fill:#666666;fill-opacity:1;stroke:none;stroke-width:2.64580011;stroke-linecap:round;stroke-linejoin:round;stroke-miterlimit:4;stroke-dasharray:none;stroke-dashoffset:0;stroke-opacity:1;paint-order:markers fill stroke"
       d="m 180.73564,274.54708 c -2.97657,0 -5.37273,2.39616 -5.37273,5.37273 v 0.59324 c 0,2.97657 2.39616,5.37325 5.37273,5.37325 h 92.06248 c 2.97657,0 5.37273,-2.39668 5.37273,-5.37325 v -0.59324 c 0,-2.97657 -2.39616,-5.37273 -5.37273,-5.37273 z m 0.40721,2.3621 h 91.24807 c 1.73633,0 3.13413,1.39781 3.13413,3.13414 v 0.34622 c 0,1.73633 -1.3978,3.13414 -3.13413,3.13414 h -91.24807 c -1.73634,0 -3.13414,-1.39781 -3.13414,-3.13414 v -0.34622 c 0,-1.73633 1.3978,-3.13414 3.13414,-3.13414 z"
       id="path2519" />
    <path
       id="rect2521"
       d="m 33.504075,244.44192 -0.0389,0.0389 0.05551,6.7948 H 13.310519 v 8.29849 h 20.277834 l 0.05592,6.83371 10.912849,-10.91245 z"
       style="opacity:1;fill:#d35f5f;fill-opacity:1;stroke:none;stroke-width:2.64580011;stroke-linecap:round;stroke-linejoin:round;stroke-miterlimit:4;stroke-dasharray:none;stroke-dashoffset:0;stroke-opacity:1;paint-order:markers fill stroke" />
    <path
       style="opacity:1;fill:#d35f5f;fill-opacity:1;stroke:none;stroke-width:2.64580011;stroke-linecap:round;stroke-linejoin:round;stroke-miterlimit:4;stroke-dasharray:none;stroke-dashoffset:0;stroke-opacity:1;paint-order:markers fill stroke"
       d="m 191.8741,243.39972 -0.0389,0.0389 0.0555,6.7948 h -20.21016 v 8.29849 h 20.27783 l 0.0559,6.83371 10.91286,-10.91245 z"
       id="path2533" />
    <path
       id="path2582"
       d="m 159.60104,216.83804 v 62.61731 h 10.52894 c 0.03,0 0.0543,-0.0504 0.0543,-0.11386 v -4.32501 h -6.80621 V 260.4963 h 0.0109 v -24.87182 h -0.0109 V 221.1043 h 6.80621 v -4.15189 c 0,-0.0632 -0.0242,-0.11437 -0.0543,-0.11437 z"
       style="opacity:1;fill:#008080;fill-opacity:1;stroke:none;stroke-width:2.64580035;stroke-linecap:round;stroke-linejoin:round;stroke-miterlimit:4;stroke-dasharray:none;stroke-dashoffset:0;stroke-opacity:1;paint-order:markers fill stroke" />
    <path
       style="opacity:1;fill:#008080;fill-opacity:1;stroke:none;stroke-width:2.64580035;stroke-linecap:round;stroke-linejoin:round;stroke-miterlimit:4;stroke-dasharray:none;stroke-dashoffset:0;stroke-opacity:1;paint-order:markers fill stroke"
       d="m 111.62188,231.01775 v 48.4522 h -10.52894 c -0.03,0 -0.0543,-0.039 -0.0543,-0.0881 v -3.34662 h 6.80621 v -11.23547 h -0.0109 v -19.24539 h 0.0109 v -11.23546 h -6.80621 v -3.21266 c 0,-0.0489 0.0242,-0.0885 0.0543,-0.0885 z"
       id="path2592" />
    <g
       style="stroke-width:1.587376"
       transform="matrix(0.62997043,0,0,0.62997043,96.595762,156.6254)"
       id="g2854">
      <g
         id="g2709"
         transform="matrix(1.3699771,0,0,1.3699771,131.77479,-83.563221)"
         style="fill:#ff8080;stroke-width:1.15868807">
        <g
           id="g2762"
           transform="matrix(1.1640258,0,0,1.1640258,-5.6193171,-20.903583)"
           style="stroke-width:0.99541438">
          <path
             id="path2707"
             d="m 81.263857,163.57441 -36.617997,5.79972 -16.831446,-33.03357 26.215591,-26.2156 33.033573,16.83145 z"
             style="opacity:1;fill:#ff8080;fill-opacity:1;stroke:none;stroke-width:1.31683385;stroke-linecap:round;stroke-linejoin:round;stroke-miterlimit:4;stroke-dasharray:none;stroke-dashoffset:0;stroke-opacity:1;paint-order:markers fill stroke"
             transform="rotate(8.9457053,-51.54881,183.99174)" />
        </g>
      </g>
      <g
         id="g2705"
         transform="matrix(0.67217668,0,0,0.67217668,183.88476,52.201449)"
         style="stroke-width:2.3615458">
        <g
           id="g2693"
           style="stroke-width:2.3615458">
          <path
             transform="rotate(8.9457053,-51.54881,183.99174)"
             style="opacity:1;fill:#0000ff;fill-opacity:1;stroke:none;stroke-width:3.12408924;stroke-linecap:round;stroke-linejoin:round;stroke-miterlimit:4;stroke-dasharray:none;stroke-dashoffset:0;stroke-opacity:1;paint-order:markers fill stroke"
             d="m 81.263857,163.57441 -36.617997,5.79972 -16.831446,-33.03357 26.215591,-26.2156 33.033573,16.83145 z"
             id="path2653" />
        </g>
        <g
           transform="matrix(0.60032571,0,0,0.60032571,-49.089414,64.557424)"
           style="fill:#f8f8f8;fill-opacity:1;stroke-width:3.93377423"
           id="g2690">
          <g
             id="g2681"
             transform="matrix(1.2254582,0,0,1.2254582,-34.178563,-31.525392)"
             style="fill:#f8f8f8;fill-opacity:1;stroke-width:3.21004367">
            <path
               d="m 157.23646,137.769 v 1.57011 h -1.80614 q -1.01595,0 -1.41617,0.41048 -0.38996,0.41049 -0.38996,1.47775 v 1.01595 h 3.10942 v 1.46749 h -3.10942 v 10.0261 h -1.89849 v -10.0261 h -1.80614 v -1.46749 h 1.80614 v -0.80044 q 0,-1.91902 0.8928,-2.7913 0.89281,-0.88255 2.83235,-0.88255 z"
               style="font-style:normal;font-weight:normal;font-size:medium;line-height:1.25;font-family:sans-serif;letter-spacing:0px;word-spacing:0px;fill:#f8f8f8;fill-opacity:1;stroke:none;stroke-width:0.84931332"
               id="path2660" />
            <path
               d="m 168.36061,146.79968 v 6.9372 h -1.88823 v -6.87563 q 0,-1.63168 -0.63626,-2.44239 -0.63625,-0.8107 -1.90875,-0.8107 -1.52906,0 -2.4116,0.9749 -0.88255,0.9749 -0.88255,2.65789 v 6.49593 h -1.89849 v -11.49359 h 1.89849 v 1.78561 q 0.6773,-1.03647 1.59063,-1.54958 0.9236,-0.51311 2.12427,-0.51311 1.98059,0 2.99654,1.23146 1.01595,1.22119 1.01595,3.60201 z"
               style="font-style:normal;font-weight:normal;font-size:medium;line-height:1.25;font-family:sans-serif;letter-spacing:0px;word-spacing:0px;fill:#f8f8f8;fill-opacity:1;stroke:none;stroke-width:0.84931332"
               id="path2662" />
          </g>
          <path
             id="path2664"
             style="font-style:normal;font-weight:normal;font-size:medium;line-height:1.25;font-family:sans-serif;letter-spacing:0px;word-spacing:0px;fill:#f8f8f8;fill-opacity:1;stroke:none;stroke-width:1.04079807"
             d="m 183.3741,138.10765 q -1.37512,2.36029 -2.04216,4.66927 -0.66704,2.30898 -0.66704,4.67953 0,2.37056 0.66704,4.70005 0.6773,2.31925 2.04216,4.66928 h -1.64194 q -1.53932,-2.4116 -2.30898,-4.7411 -0.75939,-2.3295 -0.75939,-4.62822 0,-2.28846 0.75939,-4.6077 0.7594,-2.31924 2.30898,-4.7411 z" />
          <path
             id="path2666"
             style="font-style:normal;font-weight:normal;font-size:medium;line-height:1.25;font-family:sans-serif;letter-spacing:0px;word-spacing:0px;fill:#f8f8f8;fill-opacity:1;stroke:none;stroke-width:1.04079807"
             d="m 193.44125,138.10766 h 1.64194 q 1.53932,2.42186 2.29872,4.7411 0.76966,2.31924 0.76966,4.6077 0,2.29872 -0.76966,4.62822 -0.7594,2.3295 -2.29872,4.7411 h -1.64194 q 1.36487,-2.35003 2.0319,-4.66928 0.6773,-2.32949 0.6773,-4.70005 0,-2.37055 -0.6773,-4.67953 -0.66703,-2.30897 -2.0319,-4.66926 z" />
          <path
             id="path2668"
             style="font-style:normal;font-weight:normal;font-size:medium;line-height:1.25;font-family:sans-serif;letter-spacing:0px;word-spacing:0px;fill:#f8f8f8;fill-opacity:1;stroke:none;stroke-width:1.04079807"
             d="m 213.24563,155.68668 v 1.47775 h -0.63625 q -2.55527,0 -3.42755,-0.7594 -0.86202,-0.7594 -0.86202,-3.02733 v -2.45265 q 0,-1.54958 -0.55415,-2.14478 -0.55416,-0.5952 -2.01138,-0.5952 h -0.62599 v -1.46749 h 0.62599 q 1.46748,0 2.01138,-0.58494 0.55415,-0.5952 0.55415,-2.12426 v -2.46291 q 0,-2.26793 0.86202,-3.01707 0.87228,-0.7594 3.42755,-0.7594 h 0.63625 v 1.46749 h -0.69782 q -1.44696,0 -1.88823,0.45153 -0.44127,0.45154 -0.44127,1.8985 v 2.545 q 0,1.61116 -0.47206,2.33977 -0.4618,0.72861 -1.59063,0.98516 1.13909,0.27708 1.60089,1.00569 0.4618,0.72861 0.4618,2.32951 v 2.545 q 0,1.44696 0.44127,1.8985 0.44127,0.45153 1.88823,0.45153 z" />
          <path
             id="path2670"
             style="font-style:normal;font-weight:normal;font-size:medium;line-height:1.25;font-family:sans-serif;letter-spacing:0px;word-spacing:0px;fill:#f8f8f8;fill-opacity:1;stroke:none;stroke-width:1.04079807"
             d="m 221.4213,155.68668 h 0.71835 q 1.4367,0 1.86771,-0.44127 0.44127,-0.44127 0.44127,-1.90876 v -2.545 q 0,-1.6009 0.4618,-2.32951 0.46179,-0.72861 1.60089,-1.00569 -1.1391,-0.25655 -1.60089,-0.98516 -0.4618,-0.72861 -0.4618,-2.33977 v -2.545 q 0,-1.45723 -0.44127,-1.8985 -0.43101,-0.45153 -1.86771,-0.45153 H 221.4213 V 137.769 h 0.64652 q 2.55527,0 3.40702,0.7594 0.86202,0.74914 0.86202,3.01707 v 2.46291 q 0,1.52906 0.55416,2.12426 0.55415,0.58494 2.01138,0.58494 h 0.63625 v 1.46749 h -0.63625 q -1.45723,0 -2.01138,0.5952 -0.55416,0.5952 -0.55416,2.14478 v 2.45265 q 0,2.26793 -0.86202,3.02733 -0.85175,0.7594 -3.40702,0.7594 h -0.64652 z" />
        </g>
      </g>
      <g
         transform="matrix(0.83162352,0,0,0.83162352,69.447819,3.3816835)"
         style="fill:#f8f8f8;fill-opacity:1;stroke-width:1.9087677"
         id="g2725">
        <g
           id="g2715"
           transform="matrix(1.2254582,0,0,1.2254582,-34.178563,-31.525392)"
           style="fill:#f8f8f8;fill-opacity:1;stroke-width:1.55759513">
          <path
             d="m 157.23646,137.769 v 1.57011 h -1.80614 q -1.01595,0 -1.41617,0.41048 -0.38996,0.41049 -0.38996,1.47775 v 1.01595 h 3.10942 v 1.46749 h -3.10942 v 10.0261 h -1.89849 v -10.0261 h -1.80614 v -1.46749 h 1.80614 v -0.80044 q 0,-1.91902 0.8928,-2.7913 0.89281,-0.88255 2.83235,-0.88255 z"
             style="font-style:normal;font-weight:normal;font-size:medium;line-height:1.25;font-family:sans-serif;letter-spacing:0px;word-spacing:0px;fill:#f8f8f8;fill-opacity:1;stroke:none;stroke-width:0.41210848"
             id="path2711" />
          <path
             d="m 168.36061,146.79968 v 6.9372 h -1.88823 v -6.87563 q 0,-1.63168 -0.63626,-2.44239 -0.63625,-0.8107 -1.90875,-0.8107 -1.52906,0 -2.4116,0.9749 -0.88255,0.9749 -0.88255,2.65789 v 6.49593 h -1.89849 v -11.49359 h 1.89849 v 1.78561 q 0.6773,-1.03647 1.59063,-1.54958 0.9236,-0.51311 2.12427,-0.51311 1.98059,0 2.99654,1.23146 1.01595,1.22119 1.01595,3.60201 z"
             style="font-style:normal;font-weight:normal;font-size:medium;line-height:1.25;font-family:sans-serif;letter-spacing:0px;word-spacing:0px;fill:#f8f8f8;fill-opacity:1;stroke:none;stroke-width:0.41210848"
             id="path2713" />
        </g>
        <path
           id="path2717"
           style="font-style:normal;font-weight:normal;font-size:medium;line-height:1.25;font-family:sans-serif;letter-spacing:0px;word-spacing:0px;fill:#f8f8f8;fill-opacity:1;stroke:none;stroke-width:0.50502181"
           d="m 183.3741,138.10765 q -1.37512,2.36029 -2.04216,4.66927 -0.66704,2.30898 -0.66704,4.67953 0,2.37056 0.66704,4.70005 0.6773,2.31925 2.04216,4.66928 h -1.64194 q -1.53932,-2.4116 -2.30898,-4.7411 -0.75939,-2.3295 -0.75939,-4.62822 0,-2.28846 0.75939,-4.6077 0.7594,-2.31924 2.30898,-4.7411 z" />
        <path
           id="path2719"
           style="font-style:normal;font-weight:normal;font-size:medium;line-height:1.25;font-family:sans-serif;letter-spacing:0px;word-spacing:0px;fill:#f8f8f8;fill-opacity:1;stroke:none;stroke-width:0.50502181"
           d="m 193.44125,138.10766 h 1.64194 q 1.53932,2.42186 2.29872,4.7411 0.76966,2.31924 0.76966,4.6077 0,2.29872 -0.76966,4.62822 -0.7594,2.3295 -2.29872,4.7411 h -1.64194 q 1.36487,-2.35003 2.0319,-4.66928 0.6773,-2.32949 0.6773,-4.70005 0,-2.37055 -0.6773,-4.67953 -0.66703,-2.30897 -2.0319,-4.66926 z" />
        <path
           id="path2721"
           style="font-style:normal;font-weight:normal;font-size:medium;line-height:1.25;font-family:sans-serif;letter-spacing:0px;word-spacing:0px;fill:#f8f8f8;fill-opacity:1;stroke:none;stroke-width:0.50502181"
           d="m 213.24563,155.68668 v 1.47775 h -0.63625 q -2.55527,0 -3.42755,-0.7594 -0.86202,-0.7594 -0.86202,-3.02733 v -2.45265 q 0,-1.54958 -0.55415,-2.14478 -0.55416,-0.5952 -2.01138,-0.5952 h -0.62599 v -1.46749 h 0.62599 q 1.46748,0 2.01138,-0.58494 0.55415,-0.5952 0.55415,-2.12426 v -2.46291 q 0,-2.26793 0.86202,-3.01707 0.87228,-0.7594 3.42755,-0.7594 h 0.63625 v 1.46749 h -0.69782 q -1.44696,0 -1.88823,0.45153 -0.44127,0.45154 -0.44127,1.8985 v 2.545 q 0,1.61116 -0.47206,2.33977 -0.4618,0.72861 -1.59063,0.98516 1.13909,0.27708 1.60089,1.00569 0.4618,0.72861 0.4618,2.32951 v 2.545 q 0,1.44696 0.44127,1.8985 0.44127,0.45153 1.88823,0.45153 z" />
        <path
           id="path2723"
           style="font-style:normal;font-weight:normal;font-size:medium;line-height:1.25;font-family:sans-serif;letter-spacing:0px;word-spacing:0px;fill:#f8f8f8;fill-opacity:1;stroke:none;stroke-width:0.50502181"
           d="m 221.4213,155.68668 h 0.71835 q 1.4367,0 1.86771,-0.44127 0.44127,-0.44127 0.44127,-1.90876 v -2.545 q 0,-1.6009 0.4618,-2.32951 0.46179,-0.72861 1.60089,-1.00569 -1.1391,-0.25655 -1.60089,-0.98516 -0.4618,-0.72861 -0.4618,-2.33977 v -2.545 q 0,-1.45723 -0.44127,-1.8985 -0.43101,-0.45153 -1.86771,-0.45153 H 221.4213 V 137.769 h 0.64652 q 2.55527,0 3.40702,0.7594 0.86202,0.74914 0.86202,3.01707 v 2.46291 q 0,1.52906 0.55416,2.12426 0.55415,0.58494 2.01138,0.58494 h 0.63625 v 1.46749 h -0.63625 q -1.45723,0 -2.01138,0.5952 -0.55416,0.5952 -0.55416,2.14478 v 2.45265 q 0,2.26793 -0.86202,3.02733 -0.85175,0.7594 -3.40702,0.7594 h -0.64652 z" />
      </g>
    </g>
    <g
       id="g2830"
       transform="matrix(0.67217668,0,0,0.67217668,31.008516,147.3482)"
       style="stroke-width:1.48770404">
      <g
         id="g2812"
         style="stroke-width:1.48770404">
        <path
           transform="rotate(8.9457053,-51.54881,183.99174)"
           style="opacity:1;fill:#0000ff;fill-opacity:1;stroke:none;stroke-width:1.96808386;stroke-linecap:round;stroke-linejoin:round;stroke-miterlimit:4;stroke-dasharray:none;stroke-dashoffset:0;stroke-opacity:1;paint-order:markers fill stroke"
           d="m 81.263857,163.57441 -36.617997,5.79972 -16.831446,-33.03357 26.215591,-26.2156 33.033573,16.83145 z"
           id="path2810" />
      </g>
      <g
         transform="matrix(0.60032571,0,0,0.60032571,-49.089414,64.557424)"
         style="fill:#f8f8f8;fill-opacity:1;stroke-width:2.47816157"
         id="g2828">
        <g
           id="g2818"
           transform="matrix(1.2254582,0,0,1.2254582,-34.178563,-31.525392)"
           style="fill:#f8f8f8;fill-opacity:1;stroke-width:2.02223253">
          <path
             d="m 157.23646,137.769 v 1.57011 h -1.80614 q -1.01595,0 -1.41617,0.41048 -0.38996,0.41049 -0.38996,1.47775 v 1.01595 h 3.10942 v 1.46749 h -3.10942 v 10.0261 h -1.89849 v -10.0261 h -1.80614 v -1.46749 h 1.80614 v -0.80044 q 0,-1.91902 0.8928,-2.7913 0.89281,-0.88255 2.83235,-0.88255 z"
             style="font-style:normal;font-weight:normal;font-size:medium;line-height:1.25;font-family:sans-serif;letter-spacing:0px;word-spacing:0px;fill:#f8f8f8;fill-opacity:1;stroke:none;stroke-width:0.53504229"
             id="path2814" />
          <path
             d="m 168.36061,146.79968 v 6.9372 h -1.88823 v -6.87563 q 0,-1.63168 -0.63626,-2.44239 -0.63625,-0.8107 -1.90875,-0.8107 -1.52906,0 -2.4116,0.9749 -0.88255,0.9749 -0.88255,2.65789 v 6.49593 h -1.89849 v -11.49359 h 1.89849 v 1.78561 q 0.6773,-1.03647 1.59063,-1.54958 0.9236,-0.51311 2.12427,-0.51311 1.98059,0 2.99654,1.23146 1.01595,1.22119 1.01595,3.60201 z"
             style="font-style:normal;font-weight:normal;font-size:medium;line-height:1.25;font-family:sans-serif;letter-spacing:0px;word-spacing:0px;fill:#f8f8f8;fill-opacity:1;stroke:none;stroke-width:0.53504229"
             id="path2816" />
        </g>
        <path
           id="path2820"
           style="font-style:normal;font-weight:normal;font-size:medium;line-height:1.25;font-family:sans-serif;letter-spacing:0px;word-spacing:0px;fill:#f8f8f8;fill-opacity:1;stroke:none;stroke-width:0.65567201"
           d="m 183.3741,138.10765 q -1.37512,2.36029 -2.04216,4.66927 -0.66704,2.30898 -0.66704,4.67953 0,2.37056 0.66704,4.70005 0.6773,2.31925 2.04216,4.66928 h -1.64194 q -1.53932,-2.4116 -2.30898,-4.7411 -0.75939,-2.3295 -0.75939,-4.62822 0,-2.28846 0.75939,-4.6077 0.7594,-2.31924 2.30898,-4.7411 z" />
        <path
           id="path2822"
           style="font-style:normal;font-weight:normal;font-size:medium;line-height:1.25;font-family:sans-serif;letter-spacing:0px;word-spacing:0px;fill:#f8f8f8;fill-opacity:1;stroke:none;stroke-width:0.65567201"
           d="m 193.44125,138.10766 h 1.64194 q 1.53932,2.42186 2.29872,4.7411 0.76966,2.31924 0.76966,4.6077 0,2.29872 -0.76966,4.62822 -0.7594,2.3295 -2.29872,4.7411 h -1.64194 q 1.36487,-2.35003 2.0319,-4.66928 0.6773,-2.32949 0.6773,-4.70005 0,-2.37055 -0.6773,-4.67953 -0.66703,-2.30897 -2.0319,-4.66926 z" />
        <path
           id="path2824"
           style="font-style:normal;font-weight:normal;font-size:medium;line-height:1.25;font-family:sans-serif;letter-spacing:0px;word-spacing:0px;fill:#f8f8f8;fill-opacity:1;stroke:none;stroke-width:0.65567201"
           d="m 213.24563,155.68668 v 1.47775 h -0.63625 q -2.55527,0 -3.42755,-0.7594 -0.86202,-0.7594 -0.86202,-3.02733 v -2.45265 q 0,-1.54958 -0.55415,-2.14478 -0.55416,-0.5952 -2.01138,-0.5952 h -0.62599 v -1.46749 h 0.62599 q 1.46748,0 2.01138,-0.58494 0.55415,-0.5952 0.55415,-2.12426 v -2.46291 q 0,-2.26793 0.86202,-3.01707 0.87228,-0.7594 3.42755,-0.7594 h 0.63625 v 1.46749 h -0.69782 q -1.44696,0 -1.88823,0.45153 -0.44127,0.45154 -0.44127,1.8985 v 2.545 q 0,1.61116 -0.47206,2.33977 -0.4618,0.72861 -1.59063,0.98516 1.13909,0.27708 1.60089,1.00569 0.4618,0.72861 0.4618,2.32951 v 2.545 q 0,1.44696 0.44127,1.8985 0.44127,0.45153 1.88823,0.45153 z" />
        <path
           id="path2826"
           style="font-style:normal;font-weight:normal;font-size:medium;line-height:1.25;font-family:sans-serif;letter-spacing:0px;word-spacing:0px;fill:#f8f8f8;fill-opacity:1;stroke:none;stroke-width:0.65567201"
           d="m 221.4213,155.68668 h 0.71835 q 1.4367,0 1.86771,-0.44127 0.44127,-0.44127 0.44127,-1.90876 v -2.545 q 0,-1.6009 0.4618,-2.32951 0.46179,-0.72861 1.60089,-1.00569 -1.1391,-0.25655 -1.60089,-0.98516 -0.4618,-0.72861 -0.4618,-2.33977 v -2.545 q 0,-1.45723 -0.44127,-1.8985 -0.43101,-0.45153 -1.86771,-0.45153 H 221.4213 V 137.769 h 0.64652 q 2.55527,0 3.40702,0.7594 0.86202,0.74914 0.86202,3.01707 v 2.46291 q 0,1.52906 0.55416,2.12426 0.55415,0.58494 2.01138,0.58494 h 0.63625 v 1.46749 h -0.63625 q -1.45723,0 -2.01138,0.5952 -0.55416,0.5952 -0.55416,2.14478 v 2.45265 q 0,2.26793 -0.86202,3.02733 -0.85175,0.7594 -3.40702,0.7594 h -0.64652 z" />
      </g>
    </g>
    <g
       transform="translate(93.008624,112.78632)"
       id="text2882"
       style="font-style:normal;font-weight:normal;font-size:17.13515282px;line-height:1.25;font-family:sans-serif;letter-spacing:0px;word-spacing:0px;fill:#333333;fill-opacity:1;stroke:none;stroke-width:0.26458001"
       aria-label="HOF">
      <path
         id="path2892"
         style="fill:#333333;stroke-width:0.26458001"
         d="m 27.230765,109.23209 h 1.690089 v 5.12047 h 6.141212 v -5.12047 h 1.690088 v 12.4916 h -1.690088 v -5.94878 h -6.141212 v 5.94878 h -1.690089 z" />
      <path
         id="path2894"
         style="fill:#333333;stroke-width:0.26458001"
         d="m 45.185862,110.37834 q -1.840691,0 -2.928371,1.37215 -1.079314,1.37215 -1.079314,3.73995 0,2.35943 1.079314,3.73158 1.08768,1.37215 2.928371,1.37215 1.84069,0 2.911637,-1.37215 1.079314,-1.37215 1.079314,-3.73158 0,-2.3678 -1.079314,-3.73995 -1.070947,-1.37215 -2.911637,-1.37215 z m 0,-1.37215 q 2.627167,0 4.20012,1.76539 1.572954,1.75702 1.572954,4.71886 0,2.95347 -1.572954,4.71886 -1.572953,1.75702 -4.20012,1.75702 -2.635534,0 -4.216854,-1.75702 -1.572954,-1.75702 -1.572954,-4.71886 0,-2.96184 1.572954,-4.71886 1.58132,-1.76539 4.216854,-1.76539 z" />
      <path
         id="path2896"
         style="fill:#333333;stroke-width:0.26458001"
         d="m 53.602836,109.23209 h 7.178691 v 1.42235 h -5.488603 v 3.68138 h 4.95313 v 1.42236 h -4.95313 v 5.96551 h -1.690088 z" />
    </g>
    <flowRoot
       style="fill:black;fill-opacity:1;stroke:none;font-family:sans-serif;font-style:normal;font-weight:normal;font-size:40px;line-height:1.25;letter-spacing:0px;word-spacing:0px"
       id="flowRoot2884"
       xml:space="preserve"><flowRegion
         id="flowRegion2886"><rect
           y="-382.49258"
           x="64.649765"
           height="86.873116"
           width="155.56349"
           id="rect2888" /></flowRegion><flowPara
         id="flowPara2890"></flowPara></flowRoot>  </g>
</svg>
