<?xml version="1.0" encoding="UTF-8" standalone="no"?>
<svg
   xmlns:dc="http://purl.org/dc/elements/1.1/"
   xmlns:cc="http://creativecommons.org/ns#"
   xmlns:rdf="http://www.w3.org/1999/02/22-rdf-syntax-ns#"
   xmlns:svg="http://www.w3.org/2000/svg"
   xmlns="http://www.w3.org/2000/svg"
   
   viewBox="0 0 52.916665 52.916668"
   version="1.1"
   id="svg2350">
  <defs
     id="defs2344" />
  <metadata
     id="metadata2347">
    <rdf:RDF>
      <cc:Work
         rdf:about="">
        <dc:format>image/svg+xml</dc:format>
        <dc:type
           rdf:resource="http://purl.org/dc/dcmitype/StillImage" />
        <dc:title></dc:title>
      </cc:Work>
    </rdf:RDF>
  </metadata>
  <g
     style="fill:#f29d3f;fill-opacity:0.94117647;stroke-width:0.26458333;stroke-miterlimit:4;stroke-dasharray:none"
     id="layer1"
     transform="translate(0,-244.08332)">
    <rect
       style="opacity:1;fill:#f29d3f;fill-opacity:0.94117647;stroke:none;stroke-width:0.26458333;stroke-linecap:round;stroke-linejoin:round;stroke-miterlimit:4;stroke-dasharray:none;stroke-dashoffset:0;stroke-opacity:1;paint-order:markers fill stroke"
       id="rect2895"
       width="52.785728"
       height="52.785728"
       x="0.13363464"
       y="244.21425"
       rx="6.4425325"
       ry="6.5887613" />
  </g>
  <path
     style="stroke-width:0.26458333;fill:#333333;fill-opacity:0.94117647;stroke:#f5f5f5;stroke-opacity:1;stroke-miterlimit:4;stroke-dasharray:none"
     d="m 15.432418,23.402963 c -0.05586,1.75749 0.822491,2.535752 0.844216,3.030022 a 0.63347263,0.63347263 0 0 1 -0.318133,0.486511 l -0.993195,0.695237 a 0.82714581,0.82714581 0 0 1 -0.436853,0.14898 c -0.03337,-0.0016 -0.635489,0.141995 -1.589112,-1.987168 a 6.0994633,6.0994633 0 0 1 -4.8581247,2.285126 c -1.2632207,0.06906 -4.686641,-0.716963 -4.5105041,-4.361526 -0.1233734,-2.970276 2.6428311,-4.815447 5.5037002,-4.659484 0.550912,0.0016 1.6760186,0.02871 3.6461156,0.48651 v -1.212008 c 0.208726,-2.053122 -1.140623,-3.646115 -3.4769618,-3.407128 -0.1862245,7.62e-4 -1.5053121,-0.03879 -3.5568822,0.78447 -0.5710877,0.262264 -0.6440253,0.218814 -0.8341291,0.218814 -0.5749671,0 -0.338307,-1.666707 -0.2281243,-1.877761 C 5.0286927,13.53696 7.4069297,12.609718 9.74094,12.62291 a 5.9635969,5.9635969 0 0 1 4.321178,1.340813 5.4536532,5.4536532 0 0 1 1.371075,4.062792 z m -6.7056233,2.51325 c 2.5163543,-0.03647 3.5817123,-1.549542 3.8245793,-2.364271 0.19088,-0.779814 0.159067,-1.273308 0.159067,-2.126059 -0.750329,-0.180018 -1.830429,-0.376328 -3.0695963,-0.377881 -1.1755404,-0.08845 -3.3225498,0.436851 -3.2387492,2.503163 -0.096216,1.302794 0.8628391,2.436434 2.3246992,2.365048 z m 13.2622673,1.788528 c -0.609885,0.05586 -0.893877,-0.377104 -0.983886,-0.804644 L 17.141025,14.124341 c -0.07528,-0.215709 -0.124925,-0.438402 -0.14898,-0.66575 a 0.35770564,0.35770564 0 0 1 0.299512,-0.407367 c 0.01862,-0.0031 -0.165275,0 1.726451,0 0.681272,-0.06828 0.903188,0.467888 0.973799,0.804645 l 2.771637,10.92748 2.572996,-10.92748 c 0.04112,-0.249851 0.228126,-0.858959 0.993197,-0.794555 h 1.331503 c 0.168377,-0.01397 0.862062,-0.03879 0.983884,0.804641 l 2.593171,11.06715 2.86087,-11.06715 c 0.03725,-0.169152 0.211055,-0.882236 0.983885,-0.804641 h 1.530141 c 0.06596,-0.01009 0.477201,-0.06285 0.407365,0.66575 -0.03337,0.143546 0.264593,-0.827146 -4.093052,13.183121 -0.08924,0.427539 -0.374,0.86051 -0.983883,0.804644 h -1.450223 c -0.848871,0.08924 -0.970693,-0.749553 -0.983884,-0.83413 L 26.936417,16.240314 24.392904,26.869836 c -0.01241,0.08457 -0.134236,0.923362 -0.983883,0.834129 h -1.419959 z m 21.220246,0.436851 c -0.45625,7.62e-4 -2.63197,-0.02328 -4.450759,-0.953624 a 0.9933509,0.9933509 0 0 1 -0.606006,-0.924137 v -0.834128 c 0,-0.655664 0.481081,-0.535396 0.685154,-0.457025 0.779035,0.315028 1.278738,0.554015 2.235464,0.744896 2.843799,0.584278 4.094603,-0.178465 4.401099,-0.347618 1.020353,-0.606006 1.101052,-1.9926 0.407365,-2.711891 -0.813178,-0.682045 -1.201146,-0.707652 -4.122538,-1.629461 -0.360033,-0.100096 -3.390832,-1.056047 -3.397818,-4.06279 -0.04733,-2.191239 1.943718,-4.359199 5.394297,-4.341353 0.983108,-7.61e-4 3.602661,0.320461 4.311865,1.212009 0.104751,0.16217 0.156739,0.35305 0.148978,0.546259 v 0.784468 c 0,0.344514 -0.125699,0.516773 -0.377879,0.516773 -0.598246,-0.06673 -1.659725,-0.866719 -3.814491,-0.834129 -0.534618,-0.02793 -3.0952,0.07061 -2.980364,1.937507 -0.03337,1.471172 2.06476,2.022861 2.304524,2.086486 2.829056,0.8512 3.774919,0.99242 4.897697,2.295214 1.32995,1.726453 0.612988,3.747762 0.337531,4.301778 -1.480483,2.908978 -5.30894,2.672319 -5.374119,2.670766 z m 3.119254,8.136445 c -5.433866,4.013131 -13.322011,6.149277 -20.057119,6.149277 A 36.401167,36.401167 0 0 1 1.6533785,33.059462 C 1.1466942,32.602438 1.5936271,31.976258 2.209723,32.324652 a 49.455713,49.455713 0 0 0 24.587802,6.527158 48.900921,48.900921 0 0 0 18.745793,-3.844752 c 0.91405,-0.387968 1.689209,0.605228 0.785244,1.270979 z m 2.264954,-2.583084 c -0.695238,-0.893876 -4.599739,-0.417453 -6.347917,-0.208727 -0.526863,0.05975 -0.616095,-0.397279 -0.138893,-0.73481 3.109168,-2.185805 8.215589,-1.559627 8.802195,-0.824818 0.585832,0.734811 -0.159065,5.85132 -3.069593,8.295514 -0.44694,0.37788 -0.874481,0.178465 -0.675839,-0.318136 0.654887,-1.648857 2.125282,-5.314371 1.430047,-6.209023 z"
     id="path8841" />
</svg>
