<?xml version="1.0" encoding="UTF-8" standalone="no"?>
<svg
   xmlns:dc="http://purl.org/dc/elements/1.1/"
   xmlns:cc="http://creativecommons.org/ns#"
   xmlns:rdf="http://www.w3.org/1999/02/22-rdf-syntax-ns#"
   xmlns:svg="http://www.w3.org/2000/svg"
   xmlns="http://www.w3.org/2000/svg"
   xmlns:xlink="http://www.w3.org/1999/xlink"
   
   viewBox="0 0 52.916665 52.916668"
   version="1.1"
   id="svg2350">
  <defs
     id="defs2344">
    <linearGradient
       id="linearGradient15209">
      <stop
         id="stop15205"
         offset="0"
         style="stop-color:#eda154;stop-opacity:1" />
      <stop
         id="stop15207"
         offset="1"
         style="stop-color:#b66054;stop-opacity:1" />
    </linearGradient>
    <path
       id="deethree"
       d="M0,0h7.75a45.5,45.5 0 1 1 0,91h-7.75v-20h7.75a25.5,25.5 0 1 0 0,-51h-7.75zm36.2510,0h32a27.75,27.75 0 0 1 21.331,45.5a27.75,27.75 0 0 1 -21.331,45.5h-32a53.6895,53.6895 0 0 0 18.7464,-20h13.2526a7.75,7.75 0 1 0 0,-15.5h-7.75a53.6895,53.6895 0 0 0 0,-20h7.75a7.75,7.75 0 1 0 0,-15.5h-13.2526a53.6895,53.6895 0 0 0 -18.7464,-20z" />
    <linearGradient
       gradientUnits="userSpaceOnUse"
       y2="245.87711"
       x2="51.122883"
       y1="294.53354"
       x1="2.2422316"
       id="linearGradient15211"
       xlink:href="#linearGradient15209" />
  </defs>
  <metadata
     id="metadata2347">
    <rdf:RDF>
      <cc:Work
         rdf:about="">
        <dc:format>image/svg+xml</dc:format>
        <dc:type
           rdf:resource="http://purl.org/dc/dcmitype/StillImage" />
        <dc:title></dc:title>
      </cc:Work>
    </rdf:RDF>
  </metadata>
  <g
     style="fill:url(#linearGradient15211);fill-opacity:1"
     id="layer1"
     transform="translate(0,-244.08332)">
    <rect
       style="opacity:1;fill:url(#linearGradient15211);fill-opacity:1;stroke:none;stroke-width:1.32291651;stroke-linecap:round;stroke-linejoin:round;stroke-miterlimit:4;stroke-dasharray:none;stroke-dashoffset:0;stroke-opacity:1;paint-order:markers fill stroke"
       id="rect2895"
       width="52.785728"
       height="52.785728"
       x="0.13363464"
       y="244.21425"
       rx="6.4425325"
       ry="6.5887613" />
  </g>
  <g
     style="stroke:#333333;stroke-width:4.07723665;stroke-miterlimit:4;stroke-dasharray:none;stroke-opacity:1;fill:#333333;fill-opacity:1"
     transform="matrix(0.45459106,0,0,0.45390848,4.7080907,5.870957)"
     id="g15203">
    <use
       height="100%"
       width="100%"
       y="0"
       x="0"
       style="fill:#333333;stroke:#333333;stroke-width:4.07723665;stroke-miterlimit:4;stroke-dasharray:none;stroke-opacity:1;fill-opacity:1"
       xlink:href="#deethree"
       id="use15190" />
    <use
       height="100%"
       width="100%"
       y="0"
       x="0"
       style="fill:#333333;stroke:#333333;stroke-width:4.07723665;stroke-miterlimit:4;stroke-dasharray:none;stroke-opacity:1;fill-opacity:1"
       xlink:href="#deethree"
       id="use15192" />
  </g>
</svg>
