<?xml version="1.0" encoding="UTF-8" standalone="no"?>
<svg
   xmlns:dc="http://purl.org/dc/elements/1.1/"
   xmlns:cc="http://creativecommons.org/ns#"
   xmlns:rdf="http://www.w3.org/1999/02/22-rdf-syntax-ns#"
   xmlns:svg="http://www.w3.org/2000/svg"
   xmlns="http://www.w3.org/2000/svg"
   xmlns:sodipodi="http://sodipodi.sourceforge.net/DTD/sodipodi-0.dtd"
   xmlns:inkscape="http://www.inkscape.org/namespaces/inkscape"
   viewBox="0 0 52.916665 52.916668"
   version="1.1"
   id="svg2350"
   sodipodi:docname="ejs.svg"
   inkscape:version="0.92.2 5c3e80d, 2017-08-06">
  <sodipodi:namedview
     pagecolor="#ffffff"
     bordercolor="#666666"
     borderopacity="1"
     objecttolerance="10"
     gridtolerance="10"
     guidetolerance="10"
     inkscape:pageopacity="0"
     inkscape:pageshadow="2"
     inkscape:window-width="1143"
     inkscape:window-height="709"
     id="namedview899"
     showgrid="false"
     inkscape:zoom="7.46972"
     inkscape:cx="26.324458"
     inkscape:cy="26.458334"
     inkscape:window-x="0"
     inkscape:window-y="0"
     inkscape:window-maximized="0"
     inkscape:current-layer="svg2350" />
  <defs
     id="defs2344" />
  <metadata
     id="metadata2347">
    <rdf:RDF>
      <cc:Work
         rdf:about="">
        <dc:format>image/svg+xml</dc:format>
        <dc:type
           rdf:resource="http://purl.org/dc/dcmitype/StillImage" />
        <dc:title />
      </cc:Work>
    </rdf:RDF>
  </metadata>
  <g
     style="fill:#b4ca65;fill-opacity:1"
     id="layer1"
     transform="translate(0,-244.08332)">
    <rect
       style="opacity:1;fill:#b4ca65;fill-opacity:1;stroke:none;stroke-width:1.32291651;stroke-linecap:round;stroke-linejoin:round;stroke-miterlimit:4;stroke-dasharray:none;stroke-dashoffset:0;stroke-opacity:1;paint-order:markers fill stroke"
       id="rect2895"
       width="52.785728"
       height="52.785728"
       x="0.13363464"
       y="244.21425"
       rx="6.4425325"
       ry="6.5887613" />
  </g>
  <g
     id="g904"
     transform="matrix(0.91405771,0,0,0.91405771,2.2797487,2.2795154)"
     style="stroke-width:1.09402287">
    <path
       id="path10167"
       style="font-style:normal;font-variant:normal;font-weight:normal;font-stretch:normal;font-size:10.58333302px;line-height:1.25;font-family:Monaco;-inkscape-font-specification:'Monaco, Normal';font-variant-ligatures:normal;font-variant-caps:normal;font-variant-numeric:normal;font-feature-settings:normal;text-align:start;letter-spacing:0px;word-spacing:0px;writing-mode:lr-tb;text-anchor:start;fill:#a91e50;fill-opacity:1;stroke:none;stroke-width:0.28946021;stroke-miterlimit:4;stroke-dasharray:none;stroke-opacity:1"
       d="m 16.720339,36.263079 v 2.752757 H 1.5055513 V 14.03175 H 16.429842 v 2.511289 H 5.1730772 v 8.48364 H 15.304166 v 2.49519 H 5.1730772 v 8.74121 z"
       inkscape:connector-curvature="0" />
    <path
       id="path10169"
       style="font-style:normal;font-variant:normal;font-weight:normal;font-stretch:normal;font-size:10.58333302px;line-height:1.25;font-family:Monaco;-inkscape-font-specification:'Monaco, Normal';font-variant-ligatures:normal;font-variant-caps:normal;font-variant-numeric:normal;font-feature-settings:normal;text-align:start;letter-spacing:0px;word-spacing:0px;writing-mode:lr-tb;text-anchor:start;fill:#a91e50;fill-opacity:1;stroke:none;stroke-width:0.28946021;stroke-miterlimit:4;stroke-dasharray:none;stroke-opacity:1"
       d="M 18.036803,38.090199 V 35.03158 q 4.081222,1.85127 6.833235,1.85127 1.441533,0 2.620967,-0.482939 1.198155,-0.482939 1.890839,-1.609798 0.711407,-1.142959 0.711407,-4.861597 V 16.164734 h -6.533696 v -2.511289 h 10.315374 v 16.355564 q 0,3.9923 -1.067106,5.746981 -1.048386,1.754681 -2.957949,2.704464 -1.909559,0.933686 -4.886231,0.933686 -3.332371,0 -6.92684,-1.303941 z"
       inkscape:connector-curvature="0" />
    <path
       id="path10171"
       style="font-style:normal;font-variant:normal;font-weight:normal;font-stretch:normal;font-size:10.58333302px;line-height:1.25;font-family:Monaco;-inkscape-font-specification:'Monaco, Normal';font-variant-ligatures:normal;font-variant-caps:normal;font-variant-numeric:normal;font-feature-settings:normal;text-align:start;letter-spacing:0px;word-spacing:0px;writing-mode:lr-tb;text-anchor:start;fill:#a91e50;fill-opacity:1;stroke:none;stroke-width:0.28946021;stroke-miterlimit:4;stroke-dasharray:none;stroke-opacity:1"
       d="m 35.089532,38.476552 v -3.058618 q 4.175372,1.83517 7.585265,1.83517 1.42658,0 2.731384,-0.499038 1.304792,-0.515135 1.965896,-1.464916 0.678497,-0.949782 0.678497,-2.060545 0,-1.303937 -0.922053,-2.430798 -0.922075,-1.142954 -3.462085,-2.511285 L 41.891904,27.33674 40.099979,26.386958 q -4.732086,-2.591775 -4.732086,-6.439196 0,-2.817151 2.10508,-4.73281 2.122479,-1.93176 6.611,-1.93176 2.887972,0 5.584557,0.772705 v 2.784952 q -2.974951,-1.062469 -5.793326,-1.062469 -2.24426,0 -3.636047,1.094664 -1.374393,1.094665 -1.374393,2.640073 0,1.529309 1.061239,2.543481 1.061244,1.014175 2.713995,1.867368 l 1.356995,0.756605 1.687542,0.949782 1.426581,0.772704 q 4.436329,2.511286 4.436329,6.310413 0,2.89764 -2.279059,4.974282 -2.279059,2.076642 -7.306885,2.076642 -1.600565,0 -3.061943,-0.257562 -1.443981,-0.241455 -3.810026,-1.03027 z"
       inkscape:connector-curvature="0" />
  </g>
</svg>
