<?xml version="1.0" encoding="UTF-8"?>
<svg version="1.1" viewBox="0 0 52.916665 52.916668" xmlns="http://www.w3.org/2000/svg" xmlns:cc="http://creativecommons.org/ns#" xmlns:dc="http://purl.org/dc/elements/1.1/" xmlns:rdf="http://www.w3.org/1999/02/22-rdf-syntax-ns#">
 <metadata>
  <rdf:RDF>
   <cc:Work rdf:about="">
    <dc:format>image/svg+xml</dc:format>
    <dc:type rdf:resource="http://purl.org/dc/dcmitype/StillImage"/>
    <dc:title/>
   </cc:Work>
  </rdf:RDF>
 </metadata>
 <g transform="translate(0 -244.08)" fill="#1d365d">
  <rect x=".13363" y="244.21" width="52.786" height="52.786" rx="6.4425" ry="6.5888" fill="#1d365d" style="paint-order:markers fill stroke"/>
 </g>
 <path d="m48.472 23.745c0-1.5373 0.23997-2.4447 0.23997-4.0945 0-2.5647-0.94488-3.3896-3.0371-3.3896h-1.5373v1.8148h0.47244c1.0649 0 1.2973 0.35245 1.2973 1.6573 0 1.2223-0.11998 2.4447-0.11998 3.862 0 1.8148 0.59242 2.5197 1.7698 2.7971v0.11999c-1.1848 0.27746-1.7698 0.98237-1.7698 2.7971 0 1.4173 0.11998 2.5647 0.11998 3.862 0 1.3423-0.27746 1.6948-1.2973 1.6948v0.0375h-0.47244v1.8898h1.5373c2.0847 0 3.0371-0.82489 3.0371-3.3896 0-1.6948-0.23997-2.5647-0.23997-4.0945 0-0.82489 0.50993-1.6948 2.0472-1.7698v-2.0472c-1.5373-0.05247-2.0472-0.92238-2.0472-1.7473zm-7.919 2.3997c-1.1848-0.47244-2.2872-0.74991-2.2872-1.5373 0-0.59242 0.47244-0.94488 1.3423-0.94488 0.86988 0 1.6573 0.35246 2.5197 0.98238l1.5748-2.0847c-0.98237-0.7499-2.3247-1.5373-4.1395-1.5373-2.6771 0-4.4919 1.5373-4.4919 3.7045 0 1.9272 1.6948 2.9171 3.1121 3.4645 1.2223 0.47244 2.4072 0.86989 2.4072 1.6573 0 0.59242-0.47244 0.98237-1.5373 0.98237-0.98237 0-1.9722-0.39745-3.0371-1.2223l-1.5748 2.2872c1.1848 0.98238 2.9921 1.6573 4.4919 1.6573 3.1496 0 4.8444-1.6573 4.8444-3.8245 0-2.1672-1.6873-3.0746-3.2246-3.5845zm-26.914 4.4544c-0.27747 0-0.62992-0.23996-0.62992-0.98237v-13.363h-5.5943c-2.1297 0-3.0746 0.82489-3.0746 3.3896 0 1.6948 0.23997 2.6397 0.23997 4.0945 0 0.82488-0.50993 1.6948-2.0472 1.7698v2.0472c1.5373 0.03747 2.0472 0.90738 2.0472 1.7323 0 1.4548-0.23997 2.3247-0.23997 4.0195 0 2.5647 0.94488 3.3896 3.0371 3.3896h1.5373v-1.8148h-0.47244c-0.98237 0-1.2973-0.39745-1.2973-1.6948 0-1.2973 0.11999-2.4072 0.11999-3.862 0-1.8148-0.59242-2.5197-1.7698-2.7971v-0.11999c1.1848-0.27746 1.7698-0.98237 1.7698-2.7971 0-1.4173-0.11999-2.5647-0.11999-3.862 0-1.2973 0.27746-1.6573 1.2973-1.6573h1.0574v11.309c0 2.4072 0.82489 3.982 3.2321 3.982 0.7499 0 1.3423-0.11998 1.7698-0.27746l-0.39745-2.5647c-0.23247 0.06001-0.34496 0.06001-0.46493 0.06001zm17.375-4.4544c-1.2223-0.47244-2.3247-0.74991-2.3247-1.5373 0-0.59242 0.47244-0.94488 1.3423-0.94488 0.86989 0 1.6573 0.35246 2.5197 0.98238l1.5748-2.0847c-0.98237-0.7499-2.3247-1.5373-4.1395-1.5373-2.6771 0-4.4919 1.5373-4.4919 3.7045 0 1.9272 1.6948 2.9171 3.1121 3.4645 1.2223 0.47244 2.4072 0.86989 2.4072 1.6573 0 0.59242-0.47244 0.98237-1.5373 0.98237-0.98237 0-1.9722-0.39745-3.0371-1.2223l-1.5373 2.2872c1.1848 0.98238 2.9921 1.6573 4.4919 1.6573 3.1496 0 4.8444-1.6573 4.8444-3.8245 0.0075-2.1672-1.6873-3.0746-3.2246-3.5845zm-11.623-5.1593c-2.8796 0-5.6318 2.4072-5.5568 6.1867 0 3.8995 2.5647 6.1867 5.9467 6.1867 1.4173 0 2.9921-0.50993 4.2144-1.3423l-1.1848-2.0847c-0.86989 0.50993-1.6948 0.7499-2.5647 0.7499-1.5748 0-2.7971-0.7499-3.1121-2.5647h7.1391c0.0375-0.27746 0.11998-0.82489 0.11998-1.4548 0.04499-3.1946-1.6948-5.6768-5.0018-5.6768zm-2.2497 4.9643c0.23996-1.5748 1.1848-2.3247 2.2872-2.3247 1.4173 0 1.9722 0.98237 1.9722 2.3247z" fill="#f9f9f9"/>
</svg>
