<?xml version="1.0" encoding="UTF-8" standalone="no"?>
<svg
   xmlns:dc="http://purl.org/dc/elements/1.1/"
   xmlns:cc="http://creativecommons.org/ns#"
   xmlns:rdf="http://www.w3.org/1999/02/22-rdf-syntax-ns#"
   xmlns:svg="http://www.w3.org/2000/svg"
   xmlns="http://www.w3.org/2000/svg"
   
   viewBox="0 0 52.916665 52.916668"
   version="1.1"
   id="svg2350">
  <defs
     id="defs2344" />
  <metadata
     id="metadata2347">
    <rdf:RDF>
      <cc:Work
         rdf:about="">
        <dc:format>image/svg+xml</dc:format>
        <dc:type
           rdf:resource="http://purl.org/dc/dcmitype/StillImage" />
        <dc:title></dc:title>
      </cc:Work>
    </rdf:RDF>
  </metadata>
  <g
     style="fill:#00678c;fill-opacity:1"
     id="layer1"
     transform="translate(0,-244.08332)">
    <rect
       style="opacity:1;fill:#00678c;fill-opacity:1;stroke:none;stroke-width:1.32291651;stroke-linecap:round;stroke-linejoin:round;stroke-miterlimit:4;stroke-dasharray:none;stroke-dashoffset:0;stroke-opacity:1;paint-order:markers fill stroke"
       id="rect2895"
       width="52.785728"
       height="52.785728"
       x="0.13363464"
       y="244.21425"
       rx="6.4425325"
       ry="6.5887613" />
  </g>
  <path
     id="path14516"
     d="m 1.2007976,32.223025 h 1.7876933 v -7.069308 l 2.7918835,6.163532 c 0.3162371,0.740866 0.7702497,1.015614 1.6502258,1.015614 0.8802847,0 1.3065575,-0.274748 1.6366639,-1.015614 l 2.7780139,-6.163532 v 7.069308 h 1.801562 v -7.069308 c 0,-0.686102 -0.275242,-1.01623 -0.852851,-1.194679 -1.361422,-0.411661 -2.269138,-0.05477 -2.68154,0.864858 L 7.3760446,30.919125 4.7354984,24.823896 C 4.336658,23.904581 3.4150717,23.547685 2.0400887,23.959038 1.4763491,24.137487 1.2011063,24.467308 1.2011063,25.153717 v 7.069308 z"
     style="clip-rule:evenodd;fill:#333333;fill-rule:evenodd;stroke:#ffffff;stroke-width:0.21166667;stroke-miterlimit:4;stroke-dasharray:none;stroke-opacity:1" />
  <path
     id="path14514"
     d="m 15.131857,26.471463 h 1.801563 v 3.884935 c -0.01353,0.219369 0.06874,0.713792 1.045186,0.727022 0.508876,0.01385 3.878061,0 3.905494,0 v -4.639647 h 1.801563 v 6.355824 c 0,1.564804 -1.939027,1.907855 -2.846748,1.9217 h -5.666064 v -1.194063 h 5.679624 c 1.155223,-0.123682 1.017752,-0.699946 1.017752,-0.89224 v -0.467041 h -3.809322 c -1.774137,-0.01385 -2.915487,-0.796248 -2.929048,-1.688487 0,-0.08215 0.04099,-3.980928 0,-4.008003 z"
     style="clip-rule:evenodd;fill:#333333;fill-rule:evenodd;stroke:#ffffff;stroke-width:0.21166667;stroke-miterlimit:4;stroke-dasharray:none;stroke-opacity:1" />
  <path
     id="path14484"
     d="m 50.104512,21.968728 c -1.099739,-0.02738 -1.9529,0.08246 -2.667978,0.384586 -0.205891,0.08276 -0.536303,0.08276 -0.563431,0.343359 0.110038,0.109222 0.123293,0.287978 0.219764,0.439351 0.164897,0.274748 0.454009,0.644874 0.715079,0.837167 0.289112,0.219983 0.57792,0.439351 0.879976,0.631644 0.536309,0.329206 1.14135,0.521499 1.663787,0.851013 0.302673,0.192293 0.605041,0.439351 0.907714,0.645489 0.151031,0.109838 0.247509,0.288594 0.440144,0.356896 v -0.04154 C 51.603402,26.29363 51.575664,26.115181 51.479804,25.977346 51.342028,25.840433 51.204564,25.716442 51.066788,25.57953 50.668255,25.044186 50.172939,24.577145 49.636325,24.193174 49.19618,23.891043 48.2336,23.479382 48.05483,22.97142 l -0.02712,-0.02769 c 0.302056,-0.02769 0.659907,-0.137529 0.948708,-0.219983 0.467882,-0.123068 0.893849,-0.09599 1.374986,-0.219369 0.220374,-0.05507 0.440138,-0.123683 0.660518,-0.192292 V 22.188712 C 50.76442,21.941654 50.58565,21.61214 50.324588,21.378928 49.623381,20.774973 48.852819,20.184557 48.055142,19.69044 47.628871,19.416 47.078689,19.237244 46.625296,19.004339 46.459775,18.921883 46.185152,18.880656 46.088987,18.743435 45.840868,18.441612 45.703709,18.043489 45.52494,17.686285 45.126406,16.931266 44.741129,16.094098 44.397455,15.297851 44.149953,14.762507 43.998311,14.227163 43.696249,13.733047 42.279658,11.399378 40.739157,9.9853319 38.373859,8.5989756 37.865288,8.31069 37.260247,8.1870072 36.613594,8.0362493 36.269928,8.0224016 35.926261,7.9950247 35.582282,7.981177 35.361901,7.8851848 35.142138,7.6242809 34.949502,7.5005981 34.165691,7.006482 32.144053,5.9357942 31.566133,7.3495329 c -0.371406,0.8922398 0.550181,1.7706348 0.866415,2.2238313 0.234253,0.315668 0.536309,0.6725638 0.701824,1.0294598 0.09586,0.233213 0.123293,0.480579 0.219763,0.727637 0.219763,0.603954 0.426272,1.276518 0.715079,1.839553 0.151031,0.288285 0.315929,0.590416 0.508571,0.85132 0.110031,0.151065 0.302673,0.219675 0.343667,0.466734 -0.192643,0.274748 -0.205891,0.686409 -0.315929,1.029767 -0.495315,1.551267 -0.302673,3.472967 0.398533,4.612265 0.220381,0.343051 0.742818,1.098071 1.444329,0.809784 0.618914,-0.247057 0.481138,-1.02946 0.659908,-1.715869 0.04162,-0.164603 0.01387,-0.274441 0.09616,-0.384278 v 0.02738 c 0.192642,0.384279 0.385278,0.75502 0.564047,1.139298 0.426272,0.672565 1.169089,1.372819 1.788003,1.839553 0.329801,0.247058 0.591169,0.672872 1.003574,0.82363 v -0.04154 h -0.02712 c -0.0826,-0.123067 -0.206515,-0.17814 -0.316546,-0.27444 -0.247508,-0.247058 -0.522443,-0.549189 -0.715079,-0.82363 -0.577302,-0.768557 -1.085866,-1.619877 -1.539883,-2.498272 -0.220381,-0.425505 -0.413016,-0.892239 -0.591169,-1.317745 -0.08322,-0.164911 -0.08322,-0.411969 -0.22038,-0.494117 -0.206508,0.301823 -0.508571,0.563035 -0.660525,0.933468 -0.261375,0.590109 -0.288496,1.317746 -0.384661,2.072766 -0.05549,0.01385 -0.02774,0 -0.05549,0.02738 -0.439527,-0.10953 -0.591176,-0.562726 -0.756073,-0.947004 -0.412406,-0.974696 -0.481443,-2.5395 -0.12391,-3.66526 0.09617,-0.288287 0.509188,-1.194371 0.344291,-1.468812 -0.08322,-0.260903 -0.35754,-0.411661 -0.509188,-0.617799 -0.178766,-0.260895 -0.370784,-0.5901 -0.494695,-0.878386 C 34.179855,11.907342 34.014951,11.05633 33.657107,10.287465 33.491592,9.9305698 33.203097,9.5598287 32.969156,9.2306225 32.707781,8.8598815 32.419591,8.5989783 32.213083,8.1599349 32.144344,8.0088697 32.048179,7.7618114 32.158217,7.5972087 c 0.02712,-0.1098379 0.0826,-0.151066 0.192025,-0.1784484 0.178769,-0.1510653 0.687951,0.041225 0.86672,0.1233754 0.508571,0.2058308 0.934843,0.3981234 1.361114,0.6861016 0.192643,0.1372203 0.399151,0.3981235 0.646652,0.4670414 h 0.289113 c 0.440144,0.095993 0.934842,0.027384 1.347241,0.1507579 0.728952,0.2335207 1.388852,0.5765718 1.980645,0.9473128 1.801251,1.1392986 3.286886,2.7591746 4.29046,4.6947206 0.164904,0.315668 0.233636,0.603953 0.385278,0.933467 0.289113,0.672872 0.646652,1.358974 0.934842,2.018 0.289113,0.645182 0.564048,1.304209 0.976454,1.839553 0.206508,0.288286 1.031312,0.439044 1.402717,0.590109 0.275247,0.123375 0.701207,0.233521 0.949333,0.384278 0.467265,0.288286 0.934835,0.6178 1.374979,0.933468 0.219764,0.164295 0.907715,0.507346 0.948708,0.781787 z"
     style="clip-rule:evenodd;fill:#333333;fill-rule:evenodd;stroke:#ffffff;stroke-width:0.21166667;stroke-miterlimit:4;stroke-dasharray:none;stroke-opacity:1" />
  <path
     id="path14488"
     d="m 44.230469,23.959298 v 6.19137 h 3.67e-4 c 0,1.221753 0.921813,1.907655 2.764682,2.045184 0.178768,0.01385 0.343482,0.02719 0.522252,0.02719 h 4.675904 v -1.193978 h -4.716767 c -1.045803,0 -1.444529,-0.261016 -1.444529,-0.892352 v -6.177417 z m -16.157947,3.67e-4 c -0.728944,0 -1.113767,0.04151 -1.457435,0.151349 -1.059057,0.329206 -1.526612,0.851078 -1.526612,1.770393 v 1.043703 c 0,0.809477 0.907626,1.496303 2.447815,1.660906 0.164903,0.01385 0.343848,0.01396 0.52261,0.01396 h 1.856742 c 0.06874,0 0.136908,1.07e-4 0.191767,0.01396 0.564048,0.05477 0.811499,0.150488 0.976402,0.356011 0.110039,0.109837 0.138002,0.206208 0.138002,0.329891 v 1.043344 c 0,0.123068 -0.08279,0.288511 -0.247685,0.425425 -0.165522,0.136911 -0.426622,0.233394 -0.770297,0.24724 -0.06874,0 -0.109514,0.01359 -0.178864,0.01359 h -4.964092 v 1.193621 h 5.170915 c 0.60504,0 1.183013,-0.123146 1.650276,-0.343131 0.783812,-0.356896 1.154908,-0.837073 1.154908,-1.46841 V 29.09374 c 0,-0.507653 -0.425975,-0.988572 -1.278212,-1.317777 -0.440137,-0.164603 -0.990305,-0.260836 -1.526614,-0.260836 H 28.05926 c -0.728946,0 -1.07241,-0.219893 -1.168888,-0.699856 -0.0136,-0.05477 -0.01362,-0.109823 -0.01362,-0.164589 v -0.810058 c 0,-0.04154 2.6e-5,-0.09623 0.01362,-0.150991 0.09617,-0.370742 0.288781,-0.466968 0.921561,-0.53527 h 5.294222 V 23.95967 Z m 8.856081,0.01324 c -0.151338,0 -0.316136,0.0137 -0.481032,0.02755 -1.499507,0.205523 -2.269311,0.865121 -2.269311,1.949652 v 4.254956 c 0,0.988541 0.564028,1.59258 1.70476,1.908864 0.371406,0.09599 0.729296,0.136678 1.045225,0.136678 h 1.925203 l 1.444171,-0.08229 1.430551,1.28987 h 2.076108 L 42.04396,31.866333 c 0.743129,-0.315976 1.059202,-0.782869 1.059202,-1.661265 v -4.254956 c 0,-1.084531 -0.756082,-1.744129 -2.254973,-1.949652 -0.17877,-0.01383 -0.330578,-0.02755 -0.509349,-0.02755 z m 0.508633,1.195052 h 2.709837 c 0.701518,0 1.168784,0.260622 1.26495,0.727049 0.01387,0.05538 0.01362,0.109821 0.01362,0.164588 v 4.07713 c 0,0.05538 1.84e-4,0.123775 -0.01362,0.178542 -0.05487,0.247057 -0.206031,0.439245 -0.454149,0.576772 l -1.306171,-1.180739 h -2.076109 l 1.485035,1.345328 h -1.623393 c -0.715081,0 -1.182407,-0.274746 -1.278571,-0.768554 -0.01387,-0.06922 -0.04158,-0.123775 -0.04158,-0.178542 v -4.049937 c 0,-0.548574 0.522473,-0.891637 1.32015,-0.891637 z"
     style="clip-rule:evenodd;fill:#ce8b2c;fill-rule:evenodd;stroke-width:3.4315834" />
</svg>
