<?xml version="1.0" encoding="UTF-8" standalone="no"?>
<svg
   xmlns:dc="http://purl.org/dc/elements/1.1/"
   xmlns:cc="http://creativecommons.org/ns#"
   xmlns:rdf="http://www.w3.org/1999/02/22-rdf-syntax-ns#"
   xmlns:svg="http://www.w3.org/2000/svg"
   xmlns="http://www.w3.org/2000/svg"
   
   viewBox="0 0 52.916665 52.916668"
   version="1.1"
   id="svg2350">
  <defs
     id="defs2344" />
  <metadata
     id="metadata2347">
    <rdf:RDF>
      <cc:Work
         rdf:about="">
        <dc:format>image/svg+xml</dc:format>
        <dc:type
           rdf:resource="http://purl.org/dc/dcmitype/StillImage" />
        <dc:title></dc:title>
      </cc:Work>
    </rdf:RDF>
  </metadata>
  <g
     style="fill:#82ba6f;fill-opacity:0.94117647"
     id="layer1"
     transform="translate(0,-244.08332)">
    <rect
       style="opacity:1;fill:#82ba6f;fill-opacity:0.94117647;stroke:none;stroke-width:1.32291651;stroke-linecap:round;stroke-linejoin:round;stroke-miterlimit:4;stroke-dasharray:none;stroke-dashoffset:0;stroke-opacity:1;paint-order:markers fill stroke"
       id="rect2895"
       width="52.785728"
       height="52.785728"
       x="0.13363464"
       y="244.21425"
       rx="6.4425325"
       ry="6.5887613" />
  </g>
  <path
     style="fill:#333333;fill-opacity:1;stroke:#00ff00;stroke-width:0.26458332;stroke-miterlimit:4;stroke-dasharray:none;stroke-opacity:1"
     d="m 26.486385,45.777993 c -0.264054,0 -0.532049,-0.07113 -0.764576,-0.205496 l -2.431672,-1.44243 c -0.362581,-0.205498 -0.185231,-0.276631 -0.06699,-0.31615 0.484757,-0.169931 0.583285,-0.205496 1.099573,-0.501886 0.05517,-0.03162 0.126113,-0.01976 0.18129,0.01581 l 1.86809,1.110474 c 0.067,0.03953 0.161586,0.03953 0.224642,0 l 7.279245,-4.212686 c 0.067,-0.03952 0.110351,-0.118557 0.110351,-0.197594 v -8.425381 c 0,-0.08299 -0.04334,-0.158075 -0.114292,-0.201546 l -7.275307,-4.208736 c -0.067,-0.03952 -0.157641,-0.03952 -0.224642,0 l -7.271364,4.212688 c -0.07094,0.03953 -0.114294,0.118557 -0.114294,0.201546 v 8.421424 c 0,0.07903 0.04335,0.158075 0.114294,0.193642 l 1.994206,1.153944 c 1.083807,0.541405 1.745915,-0.09484 1.745915,-0.738999 v -8.314725 c 0,-0.118555 0.09459,-0.209448 0.21282,-0.209448 h 0.922223 c 0.114292,0 0.21282,0.09089 0.21282,0.209448 v 8.318677 c 0,1.446383 -0.788223,2.276275 -2.155793,2.276275 -0.421699,0 -0.752754,0 -1.674975,-0.458417 l -1.907505,-1.10257 c -0.472935,-0.27268 -0.764577,-0.782469 -0.764577,-1.331779 v -8.421424 c 0,-0.545358 0.291642,-1.059101 0.764577,-1.331779 l 7.271365,-4.212688 c 0.46111,-0.260823 1.071983,-0.260823 1.529155,0 l 7.279244,4.21664 c 0.472934,0.272679 0.76458,0.782469 0.76458,1.331779 v 8.421424 c 0,0.545358 -0.291646,1.055147 -0.76458,1.331779 l -7.279244,4.212688 c -0.232526,0.134363 -0.496579,0.205496 -0.764579,0.205496 z m 5.87621,-8.302869 c 0,-1.576794 -1.064103,-1.995691 -3.298718,-2.292081 -2.262202,-0.300342 -2.490787,-0.454464 -2.490787,-0.984015 0,-0.438657 0.193115,-1.023533 1.86809,-1.023533 1.493685,0 2.045441,0.324052 2.274026,1.335731 0.01971,0.09484 0.106413,0.165979 0.204939,0.165979 h 0.94587 c 0.05911,0 0.114292,-0.02371 0.153703,-0.06719 0.03942,-0.04347 0.05911,-0.102748 0.05518,-0.162026 -0.145825,-1.742772 -1.300571,-2.552905 -3.633716,-2.552905 -2.07697,0 -3.31448,0.877314 -3.31448,2.35136 0,1.596555 1.233568,2.039163 3.223837,2.236755 2.384377,0.233162 2.569608,0.584877 2.569608,1.055149 0,0.814085 -0.654224,1.161848 -2.18732,1.161848 -1.927209,0 -2.348908,-0.486078 -2.49079,-1.446382 C 26.226267,37.151065 26.13957,37.07598 26.03316,37.07598 h -0.941927 c -0.118234,0 -0.20888,0.09484 -0.20888,0.209448 0,1.229031 0.666049,2.695173 3.854416,2.695173 2.301613,-0.004 3.625829,-0.916835 3.625829,-2.505483 z"
     id="path6253" />
  <path
     style="fill:#333333;fill-opacity:1;stroke:#00ff00;stroke-width:0.26458332;stroke-miterlimit:4;stroke-dasharray:none;stroke-opacity:1"
     d="m 12.404238,17.354265 c 0,-0.20792 -0.108217,-0.392737 -0.286001,-0.492846 L 7.3798974,14.14307 c -0.077294,-0.04621 -0.1700548,-0.06931 -0.2628107,-0.077 h -0.046387 c -0.092761,0 -0.1777848,0.0308 -0.2628115,0.077 l -4.730605,2.718349 c -0.1777848,0.100109 -0.2860006,0.292627 -0.2860006,0.492846 l 0.00777,7.315672 c 0,0.100109 0.054106,0.192517 0.1391364,0.246423 0.085022,0.0539 0.193244,0.0539 0.2860006,0 l 2.813627,-1.609449 C 5.2156007,23.199102 5.323818,23.014285 5.323818,22.814066 v -3.419114 c 0,-0.200219 0.1082158,-0.392736 0.2860014,-0.492847 l 1.1981114,-0.685361 c 0.092761,-0.05391 0.1855148,-0.077 0.2860014,-0.077 0.1004866,0 0.2009732,0.0231 0.2860006,0.077 l 1.1981115,0.685361 c 0.177784,0.100111 0.2860006,0.292629 0.2860006,0.492847 v 3.419114 c 0,0.200219 0.1082173,0.392737 0.2860006,0.492845 l 2.8136325,1.609449 c 0.08502,0.0539 0.200972,0.0539 0.286001,0 0.08503,-0.04621 0.139136,-0.146314 0.139136,-0.246423 z M 38.314373,9.3686308 V 22.952679 c 0,0.200218 -0.10822,0.392737 -0.285998,0.492846 l -4.738339,2.72605 c -0.177794,0.100109 -0.394225,0.100109 -0.572003,0 l -4.73834,-2.72605 c -0.177778,-0.100109 -0.286005,-0.292628 -0.286005,-0.492846 v -5.452102 c 0,-0.200218 0.108227,-0.392736 0.286005,-0.492845 l 4.73834,-2.726049 c 0.177778,-0.100109 0.394209,-0.100109 0.572003,0 l 1.182643,0.677662 c 0.131421,0.077 0.301458,-0.0231 0.301458,-0.169416 V 7.5512648 c 0,-0.215621 0.231899,-0.354233 0.425145,-0.246424 l 2.821352,1.570945 c 0.177793,0.09241 0.293739,0.284926 0.293739,0.492845 z m -3.555681,9.9262112 c 0,-0.05391 -0.03092,-0.100109 -0.06959,-0.123211 l -1.623256,-0.939486 c -0.04642,-0.0231 -0.100486,-0.0231 -0.146858,0 l -1.623256,0.939486 c -0.04642,0.0231 -0.06967,0.06931 -0.06967,0.123211 v 1.871273 c 0,0.0539 0.03092,0.10011 0.06967,0.123212 l 1.623256,0.931784 c 0.04642,0.0231 0.100486,0.0231 0.139132,0 l 1.623249,-0.931784 c 0.04642,-0.0231 0.06951,-0.06931 0.06951,-0.123212 v -1.871273 z m 16.217018,-0.05391 c 0.177786,-0.100109 0.286005,-0.292627 0.286005,-0.492846 v -1.31682 c 0,-0.200218 -0.108219,-0.392735 -0.286005,-0.492844 l -4.70742,-2.72605 c -0.177778,-0.100111 -0.394217,-0.100111 -0.572003,0 l -4.738332,2.72605 c -0.177793,0.100109 -0.286013,0.292626 -0.286013,0.492844 v 5.452103 c 0,0.207919 0.10822,0.392736 0.286013,0.492844 l 4.70742,2.672146 c 0.170037,0.100109 0.386491,0.100109 0.564261,0 l 2.844547,-1.578645 c 0.193253,-0.107809 0.193253,-0.385036 0,-0.492846 l -4.769245,-2.72605 c -0.09273,-0.05391 -0.146881,-0.146313 -0.146881,-0.246424 v -1.709557 c 0,-0.100109 0.05417,-0.192516 0.146881,-0.246422 l 1.484101,-0.854779 c 0.08506,-0.0539 0.20098,-0.0539 0.286006,0 l 1.484109,0.854779 c 0.08506,0.0539 0.146873,0.146313 0.146873,0.246422 v 1.339923 c 0,0.21562 0.239618,0.354234 0.432863,0.246423 z m -5.975097,0.269525 c -0.03092,0.0231 -0.05409,0.05391 -0.05409,0.09241 v 1.047296 c 0,0.0385 0.02325,0.077 0.05409,0.0924 l 0.912106,0.523648 c 0.03092,0.0231 0.07729,0.0231 0.10822,0 l 0.912113,-0.523648 c 0.03092,-0.0231 0.05409,-0.05391 0.05409,-0.0924 v -1.047296 c 0,-0.0385 -0.02325,-0.07701 -0.05409,-0.09241 l -0.912113,-0.523643 c -0.03092,-0.0231 -0.07729,-0.0231 -0.10822,0 z m -19.649035,3.349809 v -5.421299 c 0,-0.200218 -0.123679,-0.392736 -0.301465,-0.492846 l -4.72288,-2.710651 c -0.162325,-0.09241 -0.386488,-0.107809 -0.572,0 l -4.72288,2.71065 c -0.177781,0.100109 -0.301459,0.284926 -0.301459,0.492846 v 5.421297 c 0,0.215621 0.146865,0.400437 0.309188,0.492847 l 4.730609,2.710648 c 0.185516,0.10781 0.401947,0.10011 0.572004,0 l 4.715152,-2.710648 c 0.139132,-0.077 0.239625,-0.20792 0.278271,-0.361934 0.0077,-0.0385 0.01542,-0.0847 0.01542,-0.130913 z m -5.743209,-9.618184 -0.06184,0.0385 h 0.08503 z m 5.890067,10.026321 -0.03092,-0.05391 v 0.06931 z"
     id="path6193" />
</svg>
