<?xml version="1.0" encoding="UTF-8" standalone="no"?>
<svg
   xmlns:dc="http://purl.org/dc/elements/1.1/"
   xmlns:cc="http://creativecommons.org/ns#"
   xmlns:rdf="http://www.w3.org/1999/02/22-rdf-syntax-ns#"
   xmlns:svg="http://www.w3.org/2000/svg"
   xmlns="http://www.w3.org/2000/svg"
   
   viewBox="0 0 52.916665 52.916668"
   version="1.1"
   id="svg2350">
  <defs
     id="defs2344" />
  <metadata
     id="metadata2347">
    <rdf:RDF>
      <cc:Work
         rdf:about="">
        <dc:format>image/svg+xml</dc:format>
        <dc:type
           rdf:resource="http://purl.org/dc/dcmitype/StillImage" />
        <dc:title></dc:title>
      </cc:Work>
    </rdf:RDF>
  </metadata>
  <g
     style="fill:#75a7cf;fill-opacity:1"
     id="layer1"
     transform="translate(-0.11211173,-244.08332)">
    <rect
       style="opacity:1;fill:#75a7cf;fill-opacity:1;stroke:none;stroke-width:1.32291651;stroke-linecap:round;stroke-linejoin:round;stroke-miterlimit:4;stroke-dasharray:none;stroke-dashoffset:0;stroke-opacity:1;paint-order:markers fill stroke"
       id="rect2895"
       width="52.785728"
       height="52.785728"
       x="0.13363464"
       y="244.21425"
       rx="6.4425325"
       ry="6.5887613" />
  </g>
  <g
     style="stroke-width:0.92962009"
     transform="matrix(1.0757884,0,0,1.0756281,-2.0807181,-2.021355)"
     id="g4870">
    <path
       id="path4677"
       d="m 36.550971,36.102327 c 0.265933,-2.220231 0.186237,-2.54582 1.836374,-2.186177 l 0.418941,0.03688 c 1.268838,0.05786 2.928644,-0.204516 3.903763,-0.658515 2.099116,-0.976108 3.34383,-2.605839 1.274001,-2.177616 -4.721369,0.976108 -5.045971,-0.62606 -5.045971,-0.62606 4.985519,-7.413284 7.069616,-16.823751 5.270695,-19.127238 C 39.3022,5.0805148 30.809051,8.0516421 30.666931,8.1287825 l -0.04525,0.00837 C 29.688809,7.9431759 28.644787,7.8272773 27.47198,7.8082744 c -2.136572,-0.035184 -3.757796,0.5613373 -4.987586,1.496147 0,0 -15.1513333,-6.2557078 -14.4464646,7.8671886 0.1499084,3.004336 4.2970776,22.733362 9.2433586,16.774269 1.807836,-2.179028 3.554941,-4.02146 3.554941,-4.02146 0.867544,0.577612 1.906214,0.872251 2.995574,0.766418 l 0.0842,-0.07197 c -0.02637,0.270555 -0.01474,0.535185 0.0337,0.84845 -1.274001,1.426815 -0.89965,1.677333 -3.447181,2.202828 -2.577383,0.532362 -1.063169,1.480154 -0.07482,1.72785 1.198531,0.300377 3.971163,0.725872 5.845085,-1.902545 l -0.07463,0.299907 c 0.499856,0.400753 0.466063,2.88044 0.536936,4.652129 0.07097,1.771782 0.189334,3.425126 0.549702,4.399917 0.360365,0.974603 0.785594,3.485428 4.13365,2.766329 2.798164,-0.600942 4.93755,-1.465855 5.132518,-9.511502"
       style="clip-rule:nonzero;fill:#000000;fill-rule:nonzero;stroke:#333333;stroke-width:3.44346786;stroke-linecap:butt;stroke-linejoin:miter;stroke-miterlimit:4;stroke-dasharray:none;stroke-opacity:1" />
    <path
       id="path4679"
       d="m 43.984519,31.116708 c -4.721838,0.976108 -5.04644,-0.626061 -5.04644,-0.626061 4.985519,-7.413754 7.069616,-16.824409 5.27107,-19.127613 C 39.302576,5.0803266 30.809051,8.0516421 30.667306,8.1287825 l -0.04562,0.00818 c -0.932877,-0.1940701 -1.976899,-0.3096866 -3.15027,-0.3288777 -2.136572,-0.035089 -3.757232,0.5613373 -4.987022,1.495959 0,0 -15.1516153,-6.2554257 -14.4469356,7.8673772 0.1499111,3.004523 4.2969846,22.73355 9.2434516,16.774456 1.807932,-2.179027 3.554757,-4.021459 3.554757,-4.021459 0.867638,0.577612 1.906308,0.872251 2.995197,0.766418 l 0.08458,-0.07197 c -0.02629,0.270555 -0.01426,0.535184 0.03389,0.848449 -1.27428,1.426815 -0.899834,1.677333 -3.447178,2.202829 -2.577572,0.532362 -1.063358,1.480154 -0.07472,1.72785 1.198528,0.300377 3.971347,0.725872 5.844896,-1.902545 l -0.07472,0.299907 c 0.499292,0.400753 0.849894,2.606874 0.791134,4.606691 -0.05876,1.999911 -0.098,3.372916 0.295408,4.445355 0.393408,1.072439 0.785501,3.485428 4.134213,2.766329 2.798164,-0.600942 4.248171,-2.158237 4.449897,-4.755892 0.143151,-1.846759 0.467096,-1.573758 0.487559,-3.224844 l 0.259832,-0.781658 c 0.299632,-2.503393 0.04759,-3.311015 1.771511,-2.935379 l 0.41894,0.03688 c 1.268838,0.05786 2.929489,-0.204516 3.904139,-0.658516 2.09874,-0.976108 3.343454,-2.605839 1.274094,-2.177616 z"
       style="clip-rule:nonzero;fill:#336791;fill-rule:nonzero;stroke:none;stroke-width:4.08792067;stroke-linecap:round;stroke-linejoin:round;stroke-miterlimit:4" />
    <path
       style="clip-rule:nonzero;fill:none;fill-rule:nonzero;stroke:#ffffff;stroke-width:0.98384792;stroke-linecap:round;stroke-linejoin:round;stroke-miterlimit:4;stroke-dasharray:none"
       id="path4681"
       d="m 26.475083,32.551707 c -0.130011,4.658149 0.03266,9.348754 0.487464,10.488738 0.455082,1.139985 1.428981,3.3573 4.777973,2.638295 2.797882,-0.60113 3.8159,-1.764445 4.257651,-4.332184 0.325353,-1.889187 0.952591,-7.135861 1.033037,-8.21084" />
    <path
       style="clip-rule:nonzero;fill:none;fill-rule:nonzero;stroke:#ffffff;stroke-width:0.98384792;stroke-linecap:round;stroke-linejoin:round;stroke-miterlimit:4;stroke-dasharray:none"
       id="path4683"
       d="m 22.461021,9.1999987 c 0,0 -15.1619423,-6.2103643 -14.4570736,7.9124383 0.1499111,3.004524 4.2972666,22.734209 9.2436406,16.774833 1.807557,-2.17931 3.442298,-3.888533 3.442298,-3.888533" />
    <path
       style="clip-rule:nonzero;fill:none;fill-rule:nonzero;stroke:#ffffff;stroke-width:0.98384792;stroke-linecap:round;stroke-linejoin:round;stroke-miterlimit:4;stroke-dasharray:none"
       id="path4685"
       d="m 30.650691,8.0665057 c -0.524825,0.164911 8.434013,-3.2821348 13.525416,3.2377323 1.798451,2.303298 -0.285646,11.713953 -5.27107,19.127896" />
    <path
       id="path4687"
       d="m 38.904943,30.432134 c 0,0 0.324884,1.602638 5.046815,0.625872 2.06889,-0.428223 0.823802,1.201696 -1.274469,2.178274 -1.722042,0.800943 -5.582812,1.006212 -5.645893,-0.100564 -0.162301,-2.855605 2.031999,-1.988058 1.873641,-2.703582 C 38.761886,29.787729 37.780571,29.155272 37.131461,27.578128 36.564769,26.201549 29.359419,15.644983 39.129667,17.212814 39.487593,17.13859 36.581478,7.8993369 27.437905,7.7491014 18.296394,7.5988658 18.596309,19.015547 18.596309,19.015547"
       style="clip-rule:nonzero;fill:none;fill-rule:nonzero;stroke:#ffffff;stroke-width:0.98384792;stroke-linecap:round;stroke-linejoin:bevel;stroke-miterlimit:4;stroke-dasharray:none" />
    <path
       style="clip-rule:nonzero;fill:none;fill-rule:nonzero;stroke:#ffffff;stroke-width:0.98384792;stroke-linecap:round;stroke-linejoin:round;stroke-miterlimit:4;stroke-dasharray:none"
       id="path4689"
       d="m 23.916004,31.408712 c -1.274472,1.426721 -0.899648,1.677239 -3.447181,2.202922 -2.577569,0.532457 -1.063169,1.48006 -0.07481,1.727662 1.198528,0.300566 3.971349,0.72606 5.844896,-1.903015 0.57054,-0.800473 -0.0034,-2.07771 -0.787098,-2.403299 -0.378672,-0.157197 -0.885004,-0.354187 -1.535804,0.37573 z" />
    <path
       style="clip-rule:nonzero;fill:none;fill-rule:nonzero;stroke:#ffffff;stroke-width:0.98384792;stroke-linecap:round;stroke-linejoin:round;stroke-miterlimit:4;stroke-dasharray:none"
       id="path4691"
       d="m 23.832553,31.383783 c -0.128413,-0.838855 0.275039,-1.83707 0.707402,-3.0049 0.649768,-1.752216 2.148961,-3.504713 0.949683,-9.062959 -0.893924,-4.141968 -6.889668,-0.861997 -6.893422,-0.300377 -0.0037,0.561431 0.271188,2.846668 -0.100161,5.507822 -0.484556,3.47254 2.204815,6.409425 5.301673,6.108954" />
    <path
       id="path4695"
       d="m 37.371017,18.540287 c 0.02666,0.191816 -0.350322,0.703671 -0.842575,0.772062 -0.49169,0.06867 -0.912227,-0.331327 -0.939167,-0.522955 -0.026,-0.191816 0.351073,-0.403106 0.842856,-0.471779 0.491784,-0.06867 0.912227,0.03133 0.938886,0.222766 z"
       style="clip-rule:nonzero;fill:#ffffff;fill-rule:nonzero;stroke:#ffffff;stroke-width:0.68131477;stroke-linecap:butt;stroke-linejoin:miter;stroke-miterlimit:4" />
    <path
       style="clip-rule:nonzero;fill:none;fill-rule:nonzero;stroke:#ffffff;stroke-width:0.98384792;stroke-linecap:round;stroke-linejoin:round;stroke-miterlimit:4;stroke-dasharray:none"
       id="path4697"
       d="m 39.129667,17.212814 c 0.08101,1.504614 -0.323381,2.529452 -0.374352,4.131149 -0.07547,2.328134 1.107569,4.992864 -0.675018,7.660886" />
    <path
       id="path4699"
       d="M 6.2117862,11.267361"
       style="clip-rule:nonzero;fill:none;fill-rule:nonzero;stroke:#ffffff;stroke-width:0.98384792;stroke-linecap:round;stroke-linejoin:round;stroke-miterlimit:4" />
    <path
       style="clip-rule:nonzero;fill:#ffffff;fill-rule:nonzero;stroke:#ffffff;stroke-width:0.68131477;stroke-linecap:butt;stroke-linejoin:miter;stroke-miterlimit:4"
       d="m 22.305959,18.932677 c -0.02666,0.191816 0.350322,0.703671 0.842575,0.772062 0.49169,0.06867 0.912227,-0.331327 0.939167,-0.522955 0.026,-0.191816 -0.351073,-0.403106 -0.842856,-0.471779 -0.491784,-0.06867 -0.912227,0.03133 -0.938886,0.222766 z"
       id="path4830" />
  </g>
</svg>
