<?xml version="1.0" encoding="UTF-8" standalone="no"?>
<svg
   xmlns:dc="http://purl.org/dc/elements/1.1/"
   xmlns:cc="http://creativecommons.org/ns#"
   xmlns:rdf="http://www.w3.org/1999/02/22-rdf-syntax-ns#"
   xmlns:svg="http://www.w3.org/2000/svg"
   xmlns="http://www.w3.org/2000/svg"
  
   viewBox="0 0 52.916665 52.916668"
   version="1.1"
   id="svg2350">
  <defs
     id="defs2344" />
  <metadata
     id="metadata2347">
    <rdf:RDF>
      <cc:Work
         rdf:about="">
        <dc:format>image/svg+xml</dc:format>
        <dc:type
           rdf:resource="http://purl.org/dc/dcmitype/StillImage" />
        <dc:title></dc:title>
      </cc:Work>
    </rdf:RDF>
  </metadata>
  <g
     style="fill:#5fd5ff;fill-opacity:0.94117647"
     id="layer1"
     transform="translate(0,-244.08332)">
    <rect
       style="opacity:1;fill:#5fd5ff;fill-opacity:0.94117647;stroke:none;stroke-width:1.32291651;stroke-linecap:round;stroke-linejoin:round;stroke-miterlimit:4;stroke-dasharray:none;stroke-dashoffset:0;stroke-opacity:1;paint-order:markers fill stroke"
       id="rect2895"
       width="52.785728"
       height="52.785728"
       x="0.13363464"
       y="244.21425"
       rx="6.4425325"
       ry="6.5887613" />
  </g>
  <path
     style="stroke-width:0.52916666;fill:#333333;stroke-miterlimit:4;stroke-dasharray:none;stroke:#e0e0e0;stroke-opacity:1"
     d="m 42.946532,18.544136 c -0.546659,-0.18222 -1.093319,-0.354317 -1.639978,-0.51629 0.09111,-0.374563 0.172096,-0.749126 0.253083,-1.123689 1.245168,-6.033503 0.42518,-10.8825756 -2.33849,-12.4820606 -2.662433,-1.528622 -7.00534,0.06074 -11.398863,3.887357 -0.435303,0.374563 -0.860483,0.769373 -1.265416,1.164182 -0.27333,-0.263206 -0.556783,-0.526412 -0.840236,-0.779496 -4.606113,-4.089823 -9.22235,-5.810789 -11.986018,-4.20118 -2.652311,1.538746 -3.44193,6.1043656 -2.328365,11.8139216 0.111357,0.566906 0.232837,1.123689 0.374563,1.690595 -0.647893,0.18222 -1.285662,0.384686 -1.8829375,0.597276 -5.405856,1.872815 -9.28309004,4.828826 -9.28309004,7.886071 0,3.158478 4.13031704,6.327079 9.74876254,8.25051 0.455549,0.15185 0.911099,0.3037 1.376772,0.435304 -0.15185,0.607399 -0.283453,1.204675 -0.404933,1.822198 -1.062949,5.618444 -0.232837,10.072709 2.419475,11.601332 2.733298,1.579238 7.329288,-0.04049 11.803798,-3.958221 0.354316,-0.313824 0.708632,-0.637768 1.062949,-0.981964 0.445426,0.435304 0.911099,0.85036 1.376772,1.255295 4.332784,3.725382 8.61495,5.233756 11.257139,3.705137 2.733298,-1.579238 3.62415,-6.367575 2.47009,-12.198608 -0.09111,-0.445427 -0.192343,-0.900976 -0.303699,-1.366649 0.323947,-0.09111 0.637771,-0.192344 0.951591,-0.293577 5.84116,-1.933555 10.072712,-5.061663 10.072712,-8.270757 0,-3.067368 -3.988593,-6.043626 -9.495681,-7.936687 z M 29.249673,9.9494324 c 3.765877,-3.279958 7.278671,-4.56562 8.878156,-3.644397 1.710842,0.981962 2.368857,4.9503056 1.295786,10.1638186 -0.07086,0.344193 -0.141728,0.678263 -0.232836,1.012332 C 36.9434,16.97502 34.665652,16.61058 32.37778,16.408114 c -1.316032,-1.882939 -2.753544,-3.684891 -4.312536,-5.375486 0.394809,-0.374563 0.779495,-0.72888 1.184429,-1.0831956 z M 16.089349,29.092641 c 0.465673,0.890853 0.94147,1.771582 1.447636,2.642188 0.516289,0.880729 1.042702,1.761459 1.599485,2.621941 -1.579239,-0.172096 -3.148354,-0.425179 -4.697223,-0.759249 0.445426,-1.457759 1.002209,-2.966135 1.650102,-4.50488 z m 0,-5.122403 c -0.637769,-1.508376 -1.174306,-2.986381 -1.619732,-4.41377 1.457759,-0.323946 3.006628,-0.587153 4.616237,-0.789619 -0.536536,0.840236 -1.06295,1.700718 -1.558993,2.571324 -0.496042,0.860483 -0.981962,1.741212 -1.437512,2.632065 z m 1.154059,2.561201 c 0.66814,-1.397019 1.397019,-2.763668 2.166392,-4.11007 0.769373,-1.346402 1.599485,-2.652311 2.470091,-3.937973 1.518499,-0.111357 3.067368,-0.172097 4.646607,-0.172097 1.579239,0 3.138231,0.06074 4.646607,0.172097 0.860482,1.275539 1.680471,2.581447 2.459968,3.917726 0.779496,1.336279 1.508375,2.702928 2.196761,4.089824 -0.678263,1.397019 -1.407142,2.773791 -2.186638,4.130317 -0.769373,1.346402 -1.589362,2.652311 -2.449845,3.948097 -1.508375,0.111357 -3.077491,0.161973 -4.666853,0.161973 -1.589362,0 -3.128108,-0.05062 -4.616237,-0.141726 -0.880729,-1.285663 -1.710841,-2.601695 -2.490338,-3.948097 -0.779496,-1.346403 -1.498252,-2.713052 -2.176515,-4.110071 z m 18.282726,5.183143 c 0.51629,-0.890852 1.00221,-1.791828 1.478006,-2.702928 0.647893,1.467882 1.214799,2.956011 1.710842,4.484634 -1.569115,0.354316 -3.158478,0.627646 -4.757963,0.809866 0.54666,-0.85036 1.062949,-1.720965 1.569115,-2.591572 z m 1.457759,-7.744344 c -0.475796,-0.890853 -0.961715,-1.781706 -1.467882,-2.652311 -0.496043,-0.860483 -1.012332,-1.710842 -1.548869,-2.551078 1.629856,0.202466 3.188848,0.475796 4.646607,0.809866 -0.465673,1.498252 -1.012333,2.956011 -1.629856,4.393523 z M 26.546745,12.581496 c 1.062949,1.15406 2.065158,2.368859 2.996504,3.624151 -2.004419,-0.09111 -4.01896,-0.09111 -6.023379,0 0.992086,-1.305909 2.014542,-2.520708 3.026875,-3.624151 z M 14.803687,6.3758984 c 1.700718,-0.992086 5.476719,0.425179 9.455186,3.9480966 0.253083,0.222713 0.506166,0.465673 0.769373,0.708633 -1.569116,1.690595 -3.016752,3.492547 -4.342907,5.375486 -2.287871,0.202466 -4.555496,0.556783 -6.802875,1.052826 -0.131603,-0.51629 -0.24296,-1.042703 -0.354316,-1.569116 -0.951593,-4.89969 -0.323947,-8.5947036 1.275539,-9.5159256 z M 12.323472,33.060985 c -0.42518,-0.12148 -0.840236,-0.253083 -1.255293,-0.39481 -2.1562675,-0.678263 -4.6061125,-1.751335 -6.3776945,-3.158478 -1.022456,-0.708632 -1.710842,-1.801952 -1.903185,-3.026874 0,-1.852569 3.198971,-4.221427 7.8152075,-5.831036 0.577029,-0.202466 1.164182,-0.384686 1.751335,-0.556782 0.688386,2.196761 1.518499,4.353029 2.480215,6.438434 -0.97184,2.115776 -1.812075,4.302414 -2.510585,6.529546 z m 11.803798,9.920858 c -1.670349,1.528623 -3.603904,2.743422 -5.709556,3.573533 -1.123689,0.53654 -2.419475,0.587156 -3.573534,0.131604 -1.609609,-0.931343 -2.277748,-4.504881 -1.366649,-9.313459 0.111357,-0.566906 0.232837,-1.133812 0.374563,-1.690595 2.267625,0.48592 4.555497,0.81999 6.873738,0.992086 1.336279,1.893062 2.804161,3.705137 4.373277,5.405856 -0.323947,0.313823 -0.647893,0.617523 -0.971839,0.900975 z m 2.480215,-2.459966 c -1.03258,-1.113568 -2.065159,-2.348613 -3.067368,-3.674768 0.971839,0.04049 1.974048,0.06074 2.986381,0.06074 1.042702,0 2.065158,-0.02025 3.077491,-0.07086 -0.931346,1.285663 -1.933555,2.510585 -2.996504,3.684892 z m 13.231186,3.036997 c -0.09111,1.235044 -0.698508,2.389103 -1.670349,3.168602 -1.609608,0.931343 -5.041416,-0.283456 -8.746553,-3.462177 -0.42518,-0.36444 -0.850359,-0.759252 -1.285662,-1.164184 1.548869,-1.710842 2.976258,-3.522918 4.272043,-5.426103 2.318242,-0.192343 4.62636,-0.54666 6.904109,-1.062949 0.101232,0.415056 0.192344,0.830113 0.273328,1.235046 0.496044,2.186637 0.577031,4.464387 0.253084,6.711765 z m 1.842446,-10.882576 c -0.283455,0.09111 -0.566907,0.18222 -0.860483,0.263207 -0.708632,-2.206885 -1.579239,-4.363154 -2.581448,-6.458682 0.971837,-2.065159 1.791829,-4.191057 2.480216,-6.367572 0.526412,0.15185 1.032579,0.313823 1.518499,0.475796 4.717468,1.619732 8.027794,4.029084 8.027794,5.871529 0,1.984172 -3.533037,4.545374 -8.584578,6.215722 z M 26.526498,21.884833 c 2.561201,0 4.636483,2.075282 4.636483,4.636483 0,2.561202 -2.075282,4.636484 -4.636483,4.636484 -2.561201,0 -4.636483,-2.075282 -4.636483,-4.636484 0,-2.561201 2.075282,-4.636483 4.636483,-4.636483"
     id="path7583" />
</svg>
