<?xml version="1.0" encoding="UTF-8" standalone="no"?>
<svg
   xmlns:dc="http://purl.org/dc/elements/1.1/"
   xmlns:cc="http://creativecommons.org/ns#"
   xmlns:rdf="http://www.w3.org/1999/02/22-rdf-syntax-ns#"
   xmlns:svg="http://www.w3.org/2000/svg"
   xmlns="http://www.w3.org/2000/svg"
   viewBox="0 0 52.916665 52.916668"
   version="1.1"
   id="svg2350">
  <defs
     id="defs2344" />
  <metadata
     id="metadata2347">
    <rdf:RDF>
      <cc:Work
         rdf:about="">
        <dc:format>image/svg+xml</dc:format>
        <dc:type
           rdf:resource="http://purl.org/dc/dcmitype/StillImage" />
        <dc:title></dc:title>
      </cc:Work>
    </rdf:RDF>
  </metadata>
  <path
     style="opacity:1;fill:#6f4ebf;fill-opacity:0.94117647;stroke:none;stroke-width:1.32291651;stroke-linecap:round;stroke-linejoin:round;stroke-miterlimit:4;stroke-dasharray:none;stroke-dashoffset:0;stroke-opacity:1;paint-order:markers fill stroke"
     d="M 6.5761672,0.13093 H 46.476831 c 3.569163,0 6.442532,2.93859 6.442532,6.58876 V 46.3279 c 0,3.65017 -2.873369,6.58876 -6.442532,6.58876 H 6.5761672 c -3.569163,0 -6.44253256,-2.93859 -6.44253256,-6.58876 V 6.71969 c 0,-3.65017 2.87336956,-6.58876 6.44253256,-6.58876 z"
     id="rect2895" />
  <path
     id="path3924"
     d="m 35.412949,35.200256 c 1.700117,-0.175874 2.989861,-1.641493 2.931236,-3.400235 -0.05862,-1.758741 -1.524243,-3.165736 -3.282984,-3.165736 h -0.11725 c -1.817368,0.05862 -3.224361,1.582868 -3.165736,3.400235 0.05862,0.879372 0.410373,1.641493 0.937995,2.169116 -1.99324,3.927857 -5.041727,6.80047 -9.614457,9.204083 -3.10711,1.641493 -6.331471,2.22774 -9.555832,1.817367 C 10.907808,44.873338 8.8559421,43.700843 7.5661978,41.766227 5.6902062,38.893614 5.514332,35.786504 7.0971998,32.679392 8.2110699,30.451653 9.9698121,28.81016 11.083682,27.989414 10.849183,27.227292 10.497435,25.937548 10.321561,24.999552 1.8209734,31.155149 2.7003445,39.479862 5.279833,43.407719 c 1.9346164,2.931238 5.862474,4.748604 10.200705,4.748604 1.172494,0 2.344989,-0.117249 3.517484,-0.410373 7.503966,-1.465618 13.190566,-5.921098 16.414927,-12.545694 z"
     style="fill:#333333;fill-opacity:1;stroke-width:0.3;stroke:#ffffff;stroke-opacity:1;stroke-miterlimit:4;stroke-dasharray:none" />
  <path
     id="path3926"
     d="M 45.730902,27.930788 C 41.275423,22.713187 34.709452,19.840575 27.205485,19.840575 h -0.937996 c -0.527623,-1.055246 -1.641493,-1.758743 -2.872612,-1.758743 h -0.11725 c -1.817366,0.05862 -3.22436,1.582869 -3.165736,3.400235 0.05862,1.758743 1.524244,3.165736 3.282986,3.165736 h 0.117249 c 1.289745,-0.05862 2.403615,-0.879371 2.872613,-1.993241 h 1.055245 c 4.45548,0 8.676461,1.289744 12.487069,3.810609 2.931237,1.934616 5.041728,4.455479 6.214222,7.503965 0.996622,2.462239 0.937996,4.865854 -0.117248,6.91772 -1.641493,3.107111 -4.396857,4.807228 -8.03159,4.807228 -2.344989,0 -4.572729,-0.703496 -5.745224,-1.231119 -0.644873,0.586247 -1.817367,1.524243 -2.638113,2.11049 2.520863,1.172495 5.100352,1.817368 7.562591,1.817368 5.627975,0 9.790331,-3.107112 11.373199,-6.214223 1.700117,-3.400235 1.582867,-9.262708 -2.813988,-14.245812 z"
     style="fill:#333333;fill-opacity:1;stroke-width:0.3;stroke-miterlimit:4;stroke-dasharray:none;stroke:#f7f7f7;stroke-opacity:1" />
  <path
     style="opacity:1;fill:#333333;fill-opacity:1;stroke-width:0.3;stroke:#fafafa;stroke-opacity:1;stroke-miterlimit:4;stroke-dasharray:none"
     d="m 15.949535,36.196877 c 0.05862,1.758741 1.524244,3.165736 3.282986,3.165736 h 0.117249 c 1.817367,-0.05862 3.224361,-1.582868 3.165736,-3.400235 -0.05862,-1.758742 -1.524243,-3.165736 -3.282985,-3.165736 h -0.11725 c -0.117249,0 -0.293123,0 -0.410373,0.05862 -2.403614,-3.986482 -3.400235,-8.324713 -3.048486,-13.014692 0.234499,-3.517485 1.406993,-6.565971 3.458859,-9.086834 1.700117,-2.1691157 4.983103,-3.224361 7.210843,-3.2829857 6.214222,-0.1172496 8.852335,7.6212167 9.02821,10.7283267 0.762121,0.175874 2.051866,0.586247 2.931237,0.879372 C 37.582064,9.5812455 31.71959,4.6567674 26.091615,4.6567674 c -5.276227,0 -10.14208,3.810608 -12.076696,9.4385826 -2.696738,7.503967 -0.937996,14.71481 2.34499,20.401409 -0.293124,0.410373 -0.468998,1.055246 -0.410374,1.700118 z"
     id="path3946" />
</svg>
